<svg width="46" height="46" fill="none" xmlns="http://www.w3.org/2000/svg"><path d="M21.16 10.332l-3.9 3.9-1.298-1.297 3.257-3.257a2.76 2.76 0 013.9 0 2.76 2.76 0 010 3.901l-.653.653-1.306-1.297 1.297-1.297-1.297-1.306zM35.668 24.84l-3.9 3.9 1.297 1.298 3.257-3.257a2.76 2.76 0 000-3.9 2.76 2.76 0 00-3.901 0l-.653.653 1.297 1.306 1.297-1.297 1.306 1.297z" fill="#E66D53"/><path d="M38.658 5.649c-2.208.156-3.919.423-5.86 2.355l-4.876 4.876H11.003l-4.002 4.002 13.34 3.579-7.029 7.02-3.082-.829-4.655 4.656 7.185 1.922 1.923 7.186 4.655-4.656-.828-3.082 7.02-7.028 3.579 13.34 4.011-3.993V18.078l4.876-4.876c1.941-1.941 2.199-3.652 2.355-5.86l.129-1.822-1.822.129zM10.562 15.925l1.205-1.205h14.315l-4.232 4.232-11.288-3.027zm5.078 20.94l-1.37-5.134-5.134-1.371 1.656-1.656 5.133 1.37 1.371 5.134-1.656 1.656zm15.64-2.632l-1.205 1.205-3.027-11.288 4.232-4.232v14.315zm5.419-22.328L17.977 30.627l-.552-2.052-2.052-.552L34.104 9.301c1.38-1.37 2.484-1.647 4.398-1.803-.156 1.923-.432 3.027-1.803 4.407z" fill="#000"/></svg>