<svg width="44" height="44" fill="none" xmlns="http://www.w3.org/2000/svg"><path d="M24.64 22.88h-5.28v1.76h5.28v-1.76z" fill="#E66D53"/><path d="M38.702 19.36h-5.27l-7.04-7.04H7.805L3.52 19.747v8.413l1.76 1.76h.88a5.284 5.284 0 005.28 5.28 5.284 5.284 0 005.28-5.28h10.56a5.284 5.284 0 005.28 5.28 5.284 5.284 0 005.28-5.28h4.4v-7.022l-3.538-3.538zm-7.752 0H19.36v-5.28h6.31l5.28 5.28zm-19.959 0l3.045-5.28H17.6v5.28h-6.609zm-2.165-5.28h3.177l-3.045 5.28H5.773l3.053-5.28zm2.614 19.36a3.519 3.519 0 01-3.52-3.52 3.519 3.519 0 013.52-3.52 3.519 3.519 0 013.52 3.52 3.519 3.519 0 01-3.52 3.52zm21.12 0a3.519 3.519 0 01-3.52-3.52 3.519 3.519 0 013.52-3.52 3.519 3.519 0 013.52 3.52 3.519 3.519 0 01-3.52 3.52zm7.92-5.28h-2.948a5.28 5.28 0 00-4.972-3.52 5.28 5.28 0 00-4.972 3.52H16.412a5.28 5.28 0 00-4.972-3.52 5.28 5.28 0 00-4.972 3.52H6.01l-.73-.73v-6.31h32.692l2.508 2.508v4.532z" fill="#000"/></svg>