<svg width="44" height="44" fill="none" xmlns="http://www.w3.org/2000/svg"><path d="M40.48 38.702l-2.64-2.64-2.64 2.64-2.64-2.64-2.64 2.64-2.64-2.64-2.64 2.64-2.64-2.64-2.64 2.64-2.64-2.64-2.64 2.64-2.64-2.64-2.64 2.64-2.64-2.64-2.64 2.64-1.24-1.24 3.88-3.89 2.64 2.64 2.64-2.64 2.64 2.64 2.64-2.64 2.64 2.64 2.64-2.64 2.64 2.64 2.64-2.64 2.64 2.64 2.64-2.64 2.64 2.64 2.64-2.64 3.89 3.89-1.25 1.24z" fill="#E66D53"/><path d="M35.2 16.87V8.782h-5.28V7.92a2.648 2.648 0 00-2.64-2.64 2.648 2.648 0 00-2.64 2.64v.862h-5.28v5.28H3.52v1.76h3.52v3.52H3.52v10.35l.255.254a5.817 5.817 0 004.145 1.716 5.817 5.817 0 004.145-1.716l.255-.255V19.342H8.8v-3.52h10.56v1.048l-5.069 2.93 6.855 11.862h12.276L40.278 19.8 35.2 16.87zM10.56 28.943c-1.47 1.241-3.802 1.241-5.28 0v-7.84h5.28v7.84zM26.4 7.023h1.76v1.76H26.4v-1.76zm-5.28 3.52h12.32v5.315l-6.16-3.556-6.16 3.556v-5.316zm-4.426 9.9l9.706-5.606v15.065h-4.242l-5.464-9.46zm15.708 9.46H28.16V14.836l9.706 5.605-5.464 9.46zm1.038-10.56v1.76h-1.76v-1.76h1.76zm-10.56 0v1.76h-1.76v-1.76h1.76z" fill="#000"/></svg>