<svg width="46" height="46" fill="none" xmlns="http://www.w3.org/2000/svg"><path d="M31.28 44.004l-2.76-2.76-2.76 2.76-2.76-2.76-2.76 2.76-2.76-2.76-2.76 2.76-2.76-2.76-2.76 2.76-1.297-1.298 4.057-4.057 2.76 2.76 2.76-2.76 2.76 2.76L23 38.65l2.76 2.76 2.76-2.76 2.76 2.76 2.76-2.76 4.057 4.057-1.297 1.298-2.76-2.76-2.76 2.76z" fill="#E66D53"/><path d="M36.81 23.92h-6l-2.962-11.04h1.601v-1.84h-2.088l-1.978-7.37h-4.738l-1.978 7.37H16.56v1.84h1.61l-2.962 11.04H9.2v5.52h3.68v7.36h5.52v-7.36h9.2v7.36h5.52v-7.36h3.68v-5.52h.01zm-17.278-9.007l2.17 2.171-3.753 3.754 1.583-5.925zm8.546 5.943l-3.772-3.772 2.18-2.18 1.592 5.952zM23 15.787l-2.898-2.907h5.814L23 15.787zm0 2.594l5.538 5.539H17.471L23 18.38zm-.948-12.87h1.914l1.481 5.529h-4.876l1.481-5.53zM16.57 34.96h-1.84v-5.52h1.84v5.52zm14.72 0h-1.84v-5.52h1.84v5.52zm3.68-7.36H11.05v-1.84h23.92v1.84z" fill="#000"/></svg>