<svg width="46" height="46" fill="none" xmlns="http://www.w3.org/2000/svg"><path d="M11.04 27.6H9.2v-1.84h1.84v1.84zm0-5.52H9.2v1.84h1.84v-1.84zm0-3.68H9.2v1.84h1.84V18.4zm3.68 0h-1.84v1.84h1.84V18.4zm3.68 0h-1.84v1.84h1.84V18.4zm-7.36 11.04H9.2v1.84h1.84v-1.84zm3.68-3.68h-1.84v1.84h1.84v-1.84zm0-3.68h-1.84v1.84h1.84v-1.84z" fill="#E66D53"/><path d="M23.92 27.6h-1.84v-1.84h1.84v1.84zm0 1.84h-1.84v1.84h1.84v-1.84zm0 3.68h-1.84v1.84h1.84v-1.84zm16.56-9.2v16.56H5.52V14.196l8.28-4.987 8.28 4.987v7.884h1.84V10.874A2.769 2.769 0 0122.246 9.2H20.24V7.36h2.006c.386-1.067 1.398-1.84 2.594-1.84s2.208.773 2.594 1.84H36.8V9.2h-1.84v7.36h3.68v1.84h-9.2v-1.84h3.68V9.2h-5.686a2.769 2.769 0 01-1.674 1.674V22.08h3.68v5.52h9.2v-3.68h1.84zM23.92 9.2h1.84V7.36h-1.84V9.2zm5.52 20.24v3.68h9.2v-3.68h-9.2zm-1.84-5.52h-9.2v14.72h9.2V23.92zM7.36 38.64h9.2V22.08h3.68v-6.845l-6.44-3.882-6.44 3.882V38.64zm31.28 0v-3.68h-9.2v3.68h9.2z" fill="#000"/></svg>