<svg width="71" height="71" fill="none" xmlns="http://www.w3.org/2000/svg"><path d="M8.875 39.908c.613 0 1.11.497 1.11 1.11v7.773h1.764a7.011 7.011 0 0113.934 0h23.13V16.62H9.983v3.49a1.11 1.11 0 01-2.218 0v-4.6c0-.613.496-1.11 1.109-1.11h41.047c.613 0 1.11.497 1.11 1.11v1.11h12.704a5.052 5.052 0 015.045 5.045v1.61a1.11 1.11 0 01-1.11 1.11h-1.29l.847 10.168A5.042 5.042 0 0171 39.415v9.376a1.11 1.11 0 01-1.11 1.11h-2.246a7.204 7.204 0 01-14.366 0c-.01 0-.018.005-.028.005h-2.219a1.11 1.11 0 01-1.11 1.11H25.583a7.014 7.014 0 01-13.732 0H8.875a1.11 1.11 0 01-1.11-1.11v-8.888c0-.613.497-1.11 1.11-1.11zm51.586 14.43a4.992 4.992 0 100-9.984 4.992 4.992 0 000 9.984zm-9.43-6.656h2.219c.065.007.13.02.192.039a7.202 7.202 0 0114.028-.04h1.311v-8.266a2.83 2.83 0 00-2.826-2.827H51.03v11.094zm0-13.313h13.956l-.832-9.984H51.031v9.984zm0-12.203h15.532v-.501a2.83 2.83 0 00-2.827-2.827H51.03v3.328zM13.93 49.856a4.786 4.786 0 004.786 4.518h.001a4.794 4.794 0 004.713-3.975.998.998 0 01.056-1.08 4.786 4.786 0 00-9.556.537z" fill="#E66D53"/><path d="M9.984 23.276h15.532a1.11 1.11 0 110 2.218H9.984a1.11 1.11 0 010-2.218zM7.766 35.479h24.406a1.11 1.11 0 010 2.218H7.766a1.11 1.11 0 010-2.218zm2.218-6.656h12.204a1.11 1.11 0 010 2.218H9.983a1.11 1.11 0 010-2.218zm-4.437-3.329H3.328a1.11 1.11 0 010-2.218h2.219a1.11 1.11 0 010 2.218zm-3.328 9.985h2.219a1.11 1.11 0 010 2.218h-2.22a1.11 1.11 0 010-2.218zM1.11 28.823h4.437a1.11 1.11 0 010 2.218H1.109a1.11 1.11 0 010-2.218z" fill="#E66D53"/></svg>