<svg width="94" height="94" fill="none" xmlns="http://www.w3.org/2000/svg"><path d="M59.52 50.958a.918.918 0 00-.918.918v6.189h-3.64a.918.918 0 00-.896.72 15.362 15.362 0 01-2.062 4.963.917.917 0 00.125 1.143l2.578 2.578-3.727 3.727-2.577-2.578a.918.918 0 00-1.143-.125c-1.52.974-3.2 1.672-4.964 2.062a.918.918 0 00-.72.897v3.639h-5.27v-3.636a.918.918 0 00-.72-.897 15.375 15.375 0 01-4.963-2.065.918.918 0 00-1.142.125l-2.577 2.577-3.727-3.727 2.578-2.578a.917.917 0 00.124-1.143 15.36 15.36 0 01-2.062-4.963.917.917 0 00-.896-.72h-3.64v-5.27h3.638a.918.918 0 00.897-.72 15.357 15.357 0 012.062-4.963.918.918 0 00-.125-1.143l-2.577-2.577 3.727-3.727 2.577 2.577a.917.917 0 001.143.125 15.34 15.34 0 014.963-2.062.919.919 0 00.72-.897V35.77h6.189a.918.918 0 100-1.837h-7.108a.918.918 0 00-.918.918v3.836c-1.472.393-2.885.98-4.203 1.746l-2.717-2.717a.918.918 0 00-1.298 0l-5.023 5.026a.918.918 0 000 1.298l2.717 2.717a17.153 17.153 0 00-1.746 4.202h-3.84a.918.918 0 00-.918.918v7.107a.918.918 0 00.918.917h3.836a17.17 17.17 0 001.746 4.203l-2.718 2.717a.918.918 0 000 1.298l5.03 5.026a.916.916 0 001.299 0l2.717-2.717a17.173 17.173 0 004.202 1.745v3.836a.918.918 0 00.918.918h7.106a.918.918 0 00.918-.918v-3.836a17.174 17.174 0 004.2-1.745l2.718 2.717a.918.918 0 001.298 0l5.025-5.025a.92.92 0 000-1.298l-2.717-2.717a17.165 17.165 0 001.746-4.203h3.836a.918.918 0 00.918-.918v-7.107a.918.918 0 00-.917-.918z" fill="#E66D53"/><path d="M29.307 55.43a9.634 9.634 0 109.634-9.635 9.646 9.646 0 00-9.634 9.634zm9.634-7.8a7.798 7.798 0 11-7.798 7.8 7.807 7.807 0 017.798-7.8zm37.542-10.36a.916.916 0 00-.5-.493l-2.67-1.086a13.77 13.77 0 00-.028-3.352l2.66-1.124a.92.92 0 00.489-1.203l-2.184-5.171a.917.917 0 00-1.203-.488l-2.66 1.122a13.757 13.757 0 00-2.384-2.354l1.085-2.67a.918.918 0 00-.505-1.196l-5.202-2.113a.92.92 0 00-1.196.506l-1.085 2.67a13.798 13.798 0 00-3.352.027l-1.123-2.66a.917.917 0 00-1.203-.488L50.25 19.38a.918.918 0 00-.488 1.203l1.123 2.66c-.88.696-1.67 1.497-2.355 2.386l-2.671-1.086a.918.918 0 00-1.196.505l-2.113 5.2a.918.918 0 00.506 1.196l2.67 1.084a13.743 13.743 0 00.028 3.352l-2.66 1.123a.92.92 0 00-.489 1.203l2.184 5.172a.918.918 0 001.203.488l2.66-1.126a13.754 13.754 0 002.387 2.36l-1.088 2.67a.918.918 0 00.506 1.196l5.201 2.112a.918.918 0 001.196-.505l1.084-2.671a13.77 13.77 0 003.352-.028l1.124 2.66a.917.917 0 001.203.489l5.171-2.184a.918.918 0 00.489-1.203l-1.127-2.66a13.761 13.761 0 002.359-2.383l2.67 1.084a.916.916 0 001.196-.505l2.112-5.201a.918.918 0 00-.004-.702zm-3.463 4.362l-2.485-1.009a.917.917 0 00-1.101.33 11.943 11.943 0 01-2.938 2.972.917.917 0 00-.314 1.106l1.045 2.475-3.48 1.469-1.045-2.475a.92.92 0 00-1.014-.545c-1.38.257-2.795.268-4.18.034a.92.92 0 00-1.004.56l-1.009 2.484-3.5-1.422 1.01-2.484a.917.917 0 00-.33-1.102 11.946 11.946 0 01-2.972-2.938.917.917 0 00-1.107-.314l-2.474 1.045-1.47-3.48 2.476-1.045a.917.917 0 00.545-1.012 11.937 11.937 0 01-.033-4.178.918.918 0 00-.56-1.005l-2.484-1.01 1.421-3.5 2.485 1.01a.916.916 0 001.101-.33 11.946 11.946 0 012.938-2.972.917.917 0 00.314-1.106l-1.045-2.475 3.48-1.468 1.045 2.474a.918.918 0 001.012.546 11.935 11.935 0 014.178-.033.916.916 0 001.005-.56l1.009-2.484 3.5 1.422-1.008 2.484a.918.918 0 00.33 1.102 11.938 11.938 0 012.971 2.937.917.917 0 001.106.314l2.475-1.045 1.469 3.48-2.475 1.046a.918.918 0 00-.546 1.012c.257 1.38.268 2.794.033 4.178a.918.918 0 00.56 1.005l2.484 1.009-1.418 3.498z" fill="#E66D53"/><path d="M62.456 26.878a.918.918 0 00-.69 1.7 5.969 5.969 0 11-4.13-.133.918.918 0 10-.58-1.742 7.805 7.805 0 105.4.174v.001z" fill="#E66D53"/></svg>