<svg width="26" height="40" fill="none" xmlns="http://www.w3.org/2000/svg"><path d="M20.343 24.01a7.308 7.308 0 001.313-1.72h.381a3.337 3.337 0 003.333-3.333v-8.52a10.421 10.421 0 00-4.472-8.566 10.378 10.378 0 00-5.967-1.87h-3.863A10.37 10.37 0 005.1 1.873a10.419 10.419 0 00-4.47 8.565v7.152c0 1.035.841 1.876 1.876 1.876h.452c.176 0 .346-.026.508-.072a7.285 7.285 0 002.189 4.617 9.067 9.067 0 00-5.537 8.352v6.94c0 .385.313.697.698.697h24.37a.698.698 0 00.697-.698v-6.939a9.067 9.067 0 00-5.539-8.353zm1.906-3.128c.147-.484.243-.98.286-1.488.161.046.33.072.507.072h.452c.146 0 .287-.018.423-.05a1.94 1.94 0 01-1.668 1.466zm1.726-7.195v3.903a.48.48 0 01-.48.48h-.453a.481.481 0 01-.48-.48v-4.13a.48.48 0 01.48-.48h.452a.48.48 0 01.48.48v.227zM3.438 17.59a.48.48 0 01-.48.48h-.453a.481.481 0 01-.48-.48v-4.129a.48.48 0 01.48-.48h.452a.48.48 0 01.48.48v4.13zm0-6.852v.912a1.868 1.868 0 00-.48-.065h-.453c-.167 0-.327.024-.48.065v-1.212a9.014 9.014 0 013.874-7.42 8.987 8.987 0 015.169-1.623h3.863A8.98 8.98 0 0120.1 3.017a9.031 9.031 0 013.875 7.421v1.212a1.868 1.868 0 00-.481-.065h-.453a1.86 1.86 0 00-.48.065v-.912c0-4.47-3.637-8.106-8.106-8.106h-2.911c-4.47 0-8.106 3.637-8.106 8.106zm1.395 0c0-3.7 3.01-6.71 6.711-6.71h2.911c3.7 0 6.711 3.01 6.711 6.71v2.176l-3.123-4.372a.697.697 0 00-1.218.153 8.473 8.473 0 01-3.126 3.94 8.474 8.474 0 01-4.804 1.485H4.833v-3.382zm0 8.03v-3.253h4.062a9.864 9.864 0 005.592-1.73 9.857 9.857 0 003.117-3.457l3.562 4.986v3.454c0 .735-.135 1.448-.397 2.127h-5.06a.697.697 0 100 1.395h4.294a5.914 5.914 0 01-2.844 2.074l-.017.006-3.24 1.09a2.853 2.853 0 01-1.804 0l-3.24-1.09a5.908 5.908 0 01-4.025-5.602zm12.62 10.86l-3.755-2.022v-.66a4.31 4.31 0 00.649-.163l2.47-.832.636 3.676zm-5.15-2.683v.66l-3.757 2.022.637-3.675 2.47.831c.212.072.43.126.65.162zm0 11.66H1.512v-6.242a7.67 7.67 0 015.45-7.344c.284.172.58.325.887.457l-.924 5.326a.698.698 0 001.018.733l1.796-.966 2.562 2.562v5.474zm-1.28-8.726L13 28.815l1.977 1.064L13 31.856l-1.977-1.977zm13.464 8.726h-10.79V33.13l2.563-2.562 1.795.966a.697.697 0 001.018-.733l-.923-5.327c.306-.132.602-.284.887-.456a7.67 7.67 0 015.45 7.344v6.242z" fill="#fff"/></svg>