<svg width="20" height="16" fill="none" xmlns="http://www.w3.org/2000/svg"><path d="M16.875 0H3.125A3.128 3.128 0 000 3.125v9.219a3.128 3.128 0 003.125 3.125h13.75c.959 0 1.85-.431 2.448-1.182a.787.787 0 00-.085-1.064l-.039-.036-.136-.127-.478-.445a2386.818 2386.818 0 00-3.562-3.305.781.781 0 00-1.062 1.146c1.144 1.06 2.703 2.507 3.566 3.309a1.562 1.562 0 01-.652.141H3.125c-.232 0-.452-.051-.65-.142l3.564-3.308A.781.781 0 004.976 9.31l-3.408 3.163a1.589 1.589 0 01-.006-.13V3.126c0-.046.003-.091.007-.136l5.907 5.437a.781.781 0 00.53.207h3.989a.782.782 0 00.529-.206l5.907-5.437c.004.045.006.09.006.135V9.22a.781.781 0 101.563 0V3.125A3.128 3.128 0 0016.875 0zM11.69 7.07H8.31L2.48 1.703c.197-.09.416-.14.646-.14h13.75c.23 0 .45.05.647.14L11.69 7.07z" fill="#E66D53"/></svg>