<svg width="346" height="431" fill="none" xmlns="http://www.w3.org/2000/svg"><path d="M71.86 24.564a5.18 5.18 0 00-5.174-5.173 5.138 5.138 0 00-3.659 1.516l-3.38 3.38-3.756 3.756V17.018c3.863-.556 6.843-3.88 6.843-7.893 0-4.403-3.581-7.984-7.984-7.984H9.125c-4.403 0-7.984 3.581-7.984 7.984v57.031c0 .63.51 1.14 1.14 1.14h5.703v3.423c0 .63.511 1.14 1.141 1.14H54.75c.63 0 1.14-.51 1.14-1.14V42.675l11.073-11.072 1.171-1.171a15.284 15.284 0 01-4.2 7.819l-5.427 5.426 1.613 1.613 5.426-5.426c3.237-3.237 5.047-7.512 5.153-12.074a5.115 5.115 0 001.16-3.226zm-7.22-2.045a2.874 2.874 0 012.046-.847 2.896 2.896 0 012.892 2.892c0 .773-.301 1.5-.847 2.046l-2.575 2.574-4.09-4.09 2.574-2.575zm-4.187 4.188l1.239 1.238-14.356 14.356-1.239-1.239 14.356-14.355zm-27.127 30.1l2.346-4.694 3.465 3.465-4.694 2.346-1.117-1.117zm3.646-6.62l7.512-7.512 4.09 4.09-7.511 7.513-4.09-4.09zM54.75 3.422a5.71 5.71 0 015.703 5.703 5.71 5.71 0 01-5.703 5.703H14.703a7.958 7.958 0 000-11.406H54.75zm-44.484 11.29v-3.306c0-.628.512-1.14 1.14-1.14h3.307a5.72 5.72 0 01-4.447 4.447zM3.422 65.017V9.125a5.71 5.71 0 015.703-5.703 5.714 5.714 0 015.588 4.562h-3.307a3.426 3.426 0 00-3.422 3.422v53.61H3.422zm50.187 4.562H10.266V17.11h43.343v13.216l-5.034 5.034H14.828v2.282h31.465l-2.28 2.28H14.827v2.282H41.73l-7.178 7.178a1.115 1.115 0 00-.2.302l-.013-.007-3.422 6.844c-.22.44-.134.97.214 1.316l.333.336-2.615 2.615 1.613 1.613 2.615-2.615.334.334a1.14 1.14 0 001.317.214l6.843-3.422-.007-.012c.108-.054.214-.112.303-.2l9.125-9.126 2.616-2.616v24.621zm-3.422-24.425l-1.238-1.239 14.356-14.356 1.238 1.239-14.356 14.356z" fill="#000"/><path d="M14.828 21.672h34.219v2.281H14.828v-2.281zm0 4.562h34.219v2.282H14.828v-2.282zm0 4.563h34.219v2.281H14.828v-2.281zm0 27.375h12.547v2.281H14.828v-2.281zm0 4.562h34.219v2.282H14.828v-2.282zm23.527 353.454L27.71 399.729V386.5c0-.575-.467-1.042-1.042-1.042h-5.209c-.575 0-1.041.467-1.041 1.042v13.258l-9.707 16.503A5.135 5.135 0 0015.136 424h18.968a5.063 5.063 0 004.251-7.812zm-4.25 5.729h-18.97a3.052 3.052 0 01-2.635-4.6l9.856-16.747a1.04 1.04 0 00.144-.528v-12.5h3.125v12.5c0 .201.058.397.167.566l10.812 16.711a2.98 2.98 0 01-2.5 4.598z" fill="#000"/><path d="M25.005 404.284l-1.795-1.055-8.845 15.034a1.041 1.041 0 00.899 1.57H22.5v-2.083h-5.416l7.921-13.466zm32.481-6.326H41.25a4.167 4.167 0 00-4.166 4.167v16.667A5.214 5.214 0 0042.291 424h9.375a5.214 5.214 0 005.208-5.208V404.64l2.39-2.389a2.516 2.516 0 00-1.78-4.293zm.305 2.82l-2.694 2.694a1.04 1.04 0 00-.305.736v14.584c0 1.726-1.4 3.125-3.125 3.125h-9.375a3.125 3.125 0 01-3.125-3.125v-16.667c0-1.15.933-2.083 2.083-2.083h16.236a.432.432 0 01.305.736z" fill="#000"/><path d="M50.625 404.208v13.542H47.5v2.083h4.167c.575 0 1.042-.466 1.042-1.041v-14.584h-2.084zm-11.458-15.12v-14.046c0-.576-.467-1.042-1.042-1.042h-7.291c-.576 0-1.042.466-1.042 1.042v14.341a17.696 17.696 0 00-3.646 1.591l1.042 1.803a15.635 15.635 0 013.906-1.597 1.04 1.04 0 00.781-1.009v-14.088h5.209v13.845c0 .5.355.93.846 1.023a15.638 15.638 0 019.264 5.576l1.624-1.304a17.73 17.73 0 00-9.651-6.135zm15.104-.505a3.646 3.646 0 100 7.293 3.646 3.646 0 000-7.293zm0 5.209a1.563 1.563 0 110-3.126 1.563 1.563 0 010 3.126zm-3.646-12.5a3.125 3.125 0 100 6.25 3.125 3.125 0 000-6.25zm0 4.166a1.042 1.042 0 110-2.083 1.042 1.042 0 010 2.083zm-36.979-3.125a3.646 3.646 0 100 7.293 3.646 3.646 0 000-7.293zm0 5.209a1.563 1.563 0 110-3.126 1.563 1.563 0 010 3.126zm4.688-12.5a3.125 3.125 0 100 6.25 3.125 3.125 0 000-6.25zm0 4.166a1.042 1.042 0 110-2.083 1.042 1.042 0 010 2.083zm26.041 25H41.25v2.084h3.125v-2.084zm-1.041 4.167H41.25v2.083h2.084v-2.083zm1.041 4.167H41.25v2.083h3.125v-2.083zm-1.041 4.166H41.25v2.084h2.084v-2.084zM14.167 392.75h-2.083v2.083h2.083v-2.083zm3.125 5.208h-2.084v2.084h2.084v-2.084zM35 402.125h-2.083v2.083H35v-2.083zm-2.083-4.167h-2.084v2.084h2.084v-2.084zm-1.042-4.166h-2.083v2.083h2.083v-2.083zm1.042 22.916h-2.084v2.084h2.084v-2.084zm-3.125-4.166h-2.084v2.083h2.084v-2.083z" fill="#000"/><g clip-path="url(#clip0)" fill="#000"><path d="M48.343 253.015c-5.008 0-9.57 1.899-13.045 4.994a31.783 31.783 0 01-1.785-2.434c-.01-.024-.014-.051-.027-.074a.984.984 0 00-.868-.52h-.031a.981.981 0 00-.86.531c-.004.008-.005.019-.01.029a32.47 32.47 0 01-9.461 9.426 32.503 32.503 0 01-12.4 4.769.984.984 0 00-.826.933c-.201 5.332.445 15.816 7.034 26.12 4.968 7.77 11.36 12.42 15.904 14.974a.978.978 0 00.619.222h.031c.227 0 .437-.08.604-.215 4.546-2.553 10.944-7.204 15.917-14.981a43.461 43.461 0 002.636-4.781c9.206-1.63 16.225-9.67 16.225-19.336 0-10.839-8.818-19.657-19.657-19.657zm-.86 42.716c-4.63 7.24-10.558 11.652-14.882 14.133-4.322-2.481-10.25-6.893-14.882-14.133-5.987-9.365-6.842-18.892-6.746-24.194a34.53 34.53 0 0012.35-4.92 34.518 34.518 0 009.28-8.884c.397.556.818 1.108 1.257 1.651-.165.18-.31.373-.468.559-.117.139-.235.276-.35.418-.292.362-.568.734-.832 1.112-.084.122-.17.242-.252.366-.233.351-.452.709-.662 1.073a.973.973 0 00-.512.425c-.98 1.704-2.818 3.35-5.658 5.619-3.765 3.005-7.721 4.223-10.377 4.715a.983.983 0 00-.803.928c-.153 3.897.3 11.578 5.062 19.232 4.035 6.488 9.377 10.183 13.145 12.141l.005.001a.961.961 0 00.435.115h.025a.952.952 0 00.43-.114c.003-.002.007-.001.01-.003 3.77-1.958 9.11-5.652 13.146-12.141.296-.476.591-.997.9-1.564.412.025.822.062 1.24.062.361 0 .728-.012 1.107-.037a40.724 40.724 0 01-1.968 3.44zM28.784 274.6c.014.146.04.287.058.433.059.502.132.999.228 1.489.024.118.054.235.08.354.115.529.247 1.049.403 1.561.017.059.037.117.056.176a19.513 19.513 0 0011.039 12.144c.042.019.085.035.128.053.486.2.981.382 1.487.544.16.053.32.104.484.152.387.113.78.213 1.177.303.252.058.505.116.761.166.101.018.199.047.3.064-.151.264-.3.513-.45.753-3.642 5.855-8.414 9.295-11.93 11.195-3.516-1.9-8.288-5.34-11.93-11.195-4.188-6.733-4.837-13.492-4.787-17.346a25.499 25.499 0 0010.464-4.954 64.758 64.758 0 002.88-2.412c-.032.131-.055.264-.083.396-.025.113-.054.223-.077.337-.024.121-.048.242-.07.363-.081.45-.143.904-.193 1.36-.007.065-.017.128-.023.193-.01.113-.016.228-.025.342a19.3 19.3 0 00-.074 1.601c0 .65.036 1.293.097 1.928zm22.188 15.546h-.004c-.425.063-.817.11-1.194.144a17.78 17.78 0 01-1.43.073 17.96 17.96 0 01-1.714-.087c-.345-.033-.68-.094-1.018-.146-.245-.039-.493-.065-.735-.113-.203-.04-.398-.098-.598-.145-.383-.09-.767-.179-1.14-.294-.08-.023-.154-.054-.232-.079-5.447-1.764-9.751-6.098-11.457-11.571l-.002-.004a17.486 17.486 0 01-.397-1.542c-.012-.063-.031-.123-.044-.186a17.46 17.46 0 01-.221-1.445c-.012-.104-.033-.205-.044-.31a17.816 17.816 0 01-.09-1.769c0-.538.034-1.069.081-1.594.01-.119.02-.239.033-.358.003-.029.01-.055.013-.084.054-.466.122-.926.212-1.38.026-.133.058-.265.087-.398.092-.418.198-.832.32-1.24.026-.089.047-.179.076-.268a17.36 17.36 0 01.64-1.701c2.722-6.269 8.97-10.668 16.23-10.668 9.754 0 17.69 7.936 17.69 17.691 0 8.859-6.552 16.197-15.062 17.474z"/><path d="M48.343 256.946c-8.67 0-15.725 7.055-15.725 15.726 0 8.67 7.055 15.725 15.725 15.725s15.726-7.055 15.726-15.725c0-8.671-7.055-15.726-15.726-15.726zm.983 29.435v-1.915h-1.965v1.915c-6.803-.483-12.244-5.924-12.727-12.727h1.915v-1.965h-1.915c.483-6.802 5.924-12.243 12.727-12.727v1.916h1.965v-1.916c6.802.484 12.243 5.925 12.727 12.727h-1.916v1.965h1.916c-.484 6.803-5.925 12.244-12.727 12.727z"/><path d="M56.494 265.097l-8.15 8.151-4.22-4.22-1.39 1.39 4.914 4.914a.979.979 0 001.39 0l8.846-8.845-1.39-1.39z"/></g><path d="M218.996 156.763l3.287-3.288-6.957-6.957-3.288 3.287a17.482 17.482 0 00-3.62-1.492v-4.561c3.178-1.71 4.92-4.518 4.92-7.966a9.852 9.852 0 00-6.559-9.268l-1.311-.465v8.039l-1.968.657-1.968-.657v-8.039l-1.312.465a9.852 9.852 0 00-6.559 9.268c0 3.448 1.742 6.256 4.92 7.966v4.561a17.537 17.537 0 00-3.62 1.492l-3.288-3.287-6.957 6.957 3.287 3.288a17.469 17.469 0 00-1.5 3.619h-4.648v9.839h4.648a17.51 17.51 0 001.5 3.62l-3.287 3.288 6.957 6.957 3.288-3.287a17.51 17.51 0 003.62 1.5v4.648h9.838v-4.648a17.564 17.564 0 003.62-1.5l3.288 3.287 6.957-6.957-3.287-3.288a17.455 17.455 0 001.5-3.62h4.648v-9.839h-4.648a17.472 17.472 0 00-1.501-3.619zm-23.367-20.977a7.883 7.883 0 013.936-6.808v6.533l3.935 1.312 3.936-1.312v-6.533a7.884 7.884 0 013.935 6.808c0 2.885-1.506 5.124-4.357 6.473l-.562.266v15.89h1.967v-1.639c3.03 1.737 4.92 4.944 4.92 8.526 0 3.632-1.984 6.803-4.92 8.507v-13.427h-1.967v14.305a9.804 9.804 0 01-5.904 0v-32.162l-.562-.266c-2.851-1.349-4.357-3.588-4.357-6.473zm27.548 32.467h-4.211l-.182.753a15.579 15.579 0 01-1.858 4.482l-.404.661 2.98 2.979-4.175 4.174-2.979-2.98-.661.405a15.579 15.579 0 01-4.482 1.858l-.753.183v4.211h-5.904v-4.211l-.752-.182a15.567 15.567 0 01-4.482-1.858l-.661-.405-2.979 2.98-4.175-4.174 2.98-2.979-.404-.661a15.59 15.59 0 01-1.858-4.482l-.183-.754h-4.211v-5.903h4.211l.182-.752a15.556 15.556 0 011.858-4.482l.404-.661-2.98-2.979 4.175-4.175 2.979 2.98.661-.404a15.458 15.458 0 013.267-1.51v4.207a11.726 11.726 0 00-6.887 10.729c0 6.51 5.296 11.806 11.806 11.806 6.51 0 11.806-5.296 11.806-11.806 0-4.673-2.683-8.809-6.887-10.729v-4.207c1.142.375 2.237.88 3.267 1.51l.661.404 2.979-2.98 4.175 4.175-2.98 2.979.404.661a15.567 15.567 0 011.858 4.482l.184.752h4.211v5.903zm-24.596-11.476v17.032c-2.936-1.704-4.92-4.875-4.92-8.507 0-3.581 1.89-6.788 4.92-8.525z" fill="#000"/><path d="M176.935 174.338v-35.601c0-.542.442-.984.984-.984h8.052a2.948 2.948 0 002.771 1.968 2.956 2.956 0 002.952-2.952 2.955 2.955 0 00-2.952-2.951 2.948 2.948 0 00-2.771 1.968h-8.052a2.955 2.955 0 00-2.951 2.951v35.601a2.946 2.946 0 00-1.968 2.77 2.955 2.955 0 002.952 2.952 2.955 2.955 0 002.951-2.952 2.946 2.946 0 00-1.968-2.77zm11.807-38.552c.542 0 .984.441.984.983a.985.985 0 01-1.968 0c0-.542.442-.983.984-.983zm-12.79 42.306a.986.986 0 01-.984-.984c0-.542.442-.984.984-.984a.985.985 0 010 1.968z" fill="#000"/><path d="M180.871 139.721h-1.968v1.968h1.968v-1.968zm0 3.936h-1.968v1.967h1.968v-1.967zm0 3.935h-1.968v1.968h1.968v-1.968zm51.161 26.746v-35.601a2.955 2.955 0 00-2.951-2.951h-8.052a2.948 2.948 0 00-2.771-1.968 2.955 2.955 0 00-2.952 2.951 2.956 2.956 0 002.952 2.952 2.948 2.948 0 002.771-1.968h8.052c.542 0 .984.442.984.984v35.601a2.946 2.946 0 00-1.968 2.77 2.955 2.955 0 002.951 2.952 2.955 2.955 0 002.952-2.952 2.946 2.946 0 00-1.968-2.77zm-13.774-36.585a.985.985 0 01-.984-.984.985.985 0 011.968 0 .985.985 0 01-.984.984zm12.79 40.339a.985.985 0 010-1.968.985.985 0 010 1.968z" fill="#000"/><path d="M228.097 139.721h-1.968v1.968h1.968v-1.968zm0 3.936h-1.968v1.967h1.968v-1.967zm0 3.935h-1.968v1.968h1.968v-1.968zm-23.613 23.613h-1.968v1.968h1.968v-1.968zm0-3.935h-1.968v1.967h1.968v-1.967zm0-3.936h-1.968v1.968h1.968v-1.968zm-174.838-48.98a.5.5 0 00.708 0l3.181-3.182a.501.501 0 00-.707-.708L30 113.293l-2.828-2.829a.5.5 0 00-.707.708l3.181 3.182zM29.5 89v25h1V89h-1zm72.5-1v-.5.5zm107.184 27.351a.5.5 0 00.301-.64l-1.521-4.235a.5.5 0 00-.941.338l1.352 3.765-3.764 1.352a.5.5 0 00.338.941l4.235-1.521zM48 88.001v.5h1.406l6.844-.001H102v-1H48.001v.5zm54 .5c24.922 0 51.617 6.701 72.102 13.415a367.124 367.124 0 0125.033 9.227 288.569 288.569 0 017.13 3.039 184.427 184.427 0 012.496 1.132l.031.014.007.004h.002c0 .001.001.001.214-.452l.212-.452-.002-.001-.008-.004a.621.621 0 01-.032-.015l-.124-.058-.49-.226c-.432-.198-1.071-.487-1.901-.856a289.272 289.272 0 00-7.155-3.05 367.997 367.997 0 00-25.102-9.253C153.89 94.239 127.078 87.501 102 87.5v1zM29.646 235.354a.5.5 0 00.708 0l3.181-3.182a.501.501 0 00-.707-.708L30 234.293l-2.828-2.829a.5.5 0 00-.707.708l3.181 3.182zM30.5 235v-34h-1v34h1zm-.854 122.354a.5.5 0 00.708 0l3.181-3.182a.501.501 0 00-.707-.708L30 356.293l-2.828-2.829a.5.5 0 00-.707.708l3.181 3.182zM30.5 357v-34h-1v34h1zm241.854 49.354a.502.502 0 000-.708l-3.182-3.182a.502.502 0 00-.708.708l2.829 2.828-2.829 2.828a.502.502 0 00.708.708l3.182-3.182zM272 405.5H83v1h189v-1z" fill="#000"/><g clip-path="url(#clip1)" fill="#000"><path d="M333.539 421.945a.978.978 0 01-.003-1.953h.003a.976.976 0 010 1.953zm-24.242-1.953h-.003a.975.975 0 10.003 1.953.976.976 0 000-1.953z"/><path d="M344.586 417.417v-7.95a.989.989 0 00-.069-.36l-4.662-11.75a.974.974 0 00-.907-.617h-7.757v-3.832a.976.976 0 00-.976-.976h-10.133a13.044 13.044 0 00-1.921-2.441 12.91 12.91 0 00-6.866-3.596 12.95 12.95 0 00-7.51.879.976.976 0 10.782 1.789 10.962 10.962 0 0112.213 2.309 10.96 10.96 0 013.231 7.799c0 2.946-1.147 5.715-3.231 7.797a10.952 10.952 0 01-7.797 3.231 10.958 10.958 0 01-7.798-3.231 10.97 10.97 0 01-2.314-12.206.978.978 0 00-1.791-.78 12.965 12.965 0 00-.871 7.507 12.906 12.906 0 003.378 6.635v9.793a2.393 2.393 0 00-1.414 2.181v1.271a2.394 2.394 0 002.391 2.391h3.905a5.352 5.352 0 004.828 3.053 5.348 5.348 0 004.824-3.053h14.59a5.35 5.35 0 004.825 3.053 5.35 5.35 0 004.827-3.053h5.246a2.394 2.394 0 002.391-2.391v-1.271c0-.97-.582-1.807-1.414-2.181zm-4.488-14.151l2.073 5.225H331.57v-5.225h8.528zm-1.813-4.573l1.039 2.62h-8.73a.976.976 0 00-.977.976v7.178c0 .539.437.977.977.977h12.038v2.406h-1.326a.978.978 0 000 1.954h1.326v2.403h-5.305a5.33 5.33 0 00-3.791-1.58c-1.48 0-2.82.605-3.789 1.58h-3.281v-18.514h11.819zm-34.321 22.614h-3.4a.444.444 0 01-.438-.438v-1.271c0-.237.2-.438.438-.438h3.704a5.316 5.316 0 00-.304 2.147zm5.333 3.053a3.395 3.395 0 01-3.392-3.391 3.394 3.394 0 013.392-3.389 3.392 3.392 0 013.388 3.389c0 1.87-1.52 3.391-3.388 3.391zm3.789-7.153a5.329 5.329 0 00-3.789-1.58 5.33 5.33 0 00-3.791 1.58h-3.966v-7.898a12.883 12.883 0 007.444 2.343 12.89 12.89 0 009.177-3.803 12.891 12.891 0 003.803-9.178c0-1.665-.313-3.283-.908-4.786h8.182v2.855h-3.749a.976.976 0 00-.976.977v19.49h-11.427zm1.541 4.1a5.316 5.316 0 00-.304-2.147h14.187a5.316 5.316 0 00-.304 2.147h-13.579zm18.909 3.053a3.393 3.393 0 01-3.388-3.391 3.388 3.388 0 015.988-2.174l.021.026c.481.585.771 1.333.771 2.148a3.395 3.395 0 01-3.392 3.391zm10.511-3.491a.444.444 0 01-.438.438h-4.74a5.316 5.316 0 00-.304-2.147h5.044c.237 0 .438.201.438.438v1.271z"/><path d="M308.984 407.678c4.966 0 9.006-4.04 9.006-9.006 0-4.968-4.04-9.01-9.006-9.01-4.968 0-9.009 4.042-9.009 9.01 0 4.966 4.041 9.006 9.009 9.006zm0-16.063c3.889 0 7.053 3.166 7.053 7.057a7.061 7.061 0 01-7.053 7.053c-3.891 0-7.056-3.164-7.056-7.053 0-3.891 3.165-7.057 7.056-7.057z"/><path d="M308.984 399.648h2.82a.976.976 0 100-1.953h-1.844v-3.087a.977.977 0 10-1.953 0v4.063c0 .54.438.977.977.977zm-8.492-8.487a.973.973 0 00.69-.286l.003-.003a.974.974 0 00-.002-1.379.978.978 0 00-1.382 1.382.974.974 0 00.691.286z"/></g><path d="M47.647 233.626a.5.5 0 010-.707l3.182-3.182a.5.5 0 01.707.708l-2.829 2.827 2.828 2.829a.5.5 0 01-.707.707l-3.181-3.182zm54.353-.354v.5-.5zm-54 0v-.5h1.406l6.844.001 45.75-.001v1l-45.75.001-6.844-.001h-1.405v-.5zm54-.5c24.922 0 51.617-6.702 72.102-13.415a367.664 367.664 0 0025.033-9.227 291.782 291.782 0 007.13-3.04c.826-.367 1.461-.655 1.889-.851l.485-.223.122-.057.031-.015a.024.024 0 00.007-.003l.002-.001.214.452c.213.452.213.452.212.453l-.002.001a.35.35 0 01-.04.018l-.124.059-.49.225c-.432.198-1.071.488-1.901.856-1.66.737-4.087 1.789-7.155 3.05a367.997 367.997 0 01-25.102 9.253c-20.523 6.726-47.335 13.465-72.413 13.465v-1z" fill="#000"/><g clip-path="url(#clip2)" fill="#000"><path d="M11.93 160.334a3.477 3.477 0 003.472-3.474 3.476 3.476 0 00-3.472-3.473 3.477 3.477 0 00-3.473 3.473 3.477 3.477 0 003.473 3.474zm0-5.116a1.644 1.644 0 010 3.286 1.644 1.644 0 010-3.286z"/><path d="M56.437 167.621H54.16v-19.212a2.13 2.13 0 00-2.127-2.127h-20.58a2.13 2.13 0 00-2.127 2.127v8.407a.915.915 0 001.83 0v-8.407c0-.16.136-.297.297-.297h5.613v2.481c0 1.016.826 1.843 1.842 1.843h5.667a1.844 1.844 0 001.842-1.843v-2.481h5.616c.161 0 .297.137.297.297v19.212H31.157l.006-6.608a.914.914 0 00-.914-.916h-.001a.915.915 0 00-.915.914l-.006 6.61H16.614v-4.87a7.521 7.521 0 002.845-5.891c0-3.157-1.953-5.865-4.713-6.983v-14.986a4.707 4.707 0 001.424-1.754l3.322.003 5.106-.003a5.7 5.7 0 00.616 1.034l2.927 3.833a.915.915 0 001.275.178l.432-.323 1.057 1.416c-.37.343-.61.798-.684 1.306-.086.59.063 1.175.415 1.647.417.56 1.084.895 1.786.895a2.2 2.2 0 001.326-.44l1.239-.925.672.901a1.689 1.689 0 002.209.441l1.154 1.472a.914.914 0 001.44-1.129l-1.131-1.444c.264-.256.438-.59.492-.962a1.669 1.669 0 00-.315-1.251l-.673-.903 1.38-1.031a2.232 2.232 0 00.447-3.106 2.228 2.228 0 00-2.911-.583l-1.057-1.416.435-.324a.916.916 0 00.186-1.281l-2.887-3.867a5.79 5.79 0 00-4.62-2.306 5.736 5.736 0 00-4.757 2.529H14.862a4.658 4.658 0 00-2.933-1.037 4.694 4.694 0 00-4.687 4.689c0 1.527.733 2.884 1.867 3.74v6.026a.915.915 0 101.83 0v-5.186a4.677 4.677 0 001.976 0v13.665a7.473 7.473 0 00-.986-.067c-.336 0-.666.024-.99.067v-4.482a.915.915 0 00-1.83 0v4.965c-2.758 1.119-4.71 3.826-4.71 6.982a7.524 7.524 0 002.843 5.889v6.029C4.687 170.272 3 173.071 3 176.348c0 4.722 3.84 8.563 8.559 8.563h44.878c4.722 0 8.563-3.841 8.563-8.563v-.161c0-4.723-3.841-8.566-8.563-8.566zm-11.85-17.028c0 .006-.008.012-.01.013h-5.668a.025.025 0 01-.013-.013v-2.481h5.69v2.481zm-9.359-16.75l1.047 1.404-1.613 1.205-2.299 1.717-1.047-1.404 3.912-2.922zm1.812 7.606l-.587-.786.915-.684.586.785-.914.685zm1.063-5.283l.002-.002.54-.402a.387.387 0 01.235-.078c.06 0 .21.015.313.154a.397.397 0 01-.077.551l-2.056 1.535a1.067 1.067 0 00-.055.037l-.052.043-2.266 1.694a.899.899 0 00-.124.092l-1.91 1.426a.394.394 0 01-.55-.082.387.387 0 01-.071-.29.386.386 0 01.15-.256l3.49-2.606 2.431-1.816zm-10.633-8.592a3.872 3.872 0 012.337-.775c1.24 0 2.42.587 3.154 1.571l2.34 3.134-6.255 4.669-2.372-3.105a3.922 3.922 0 01-.594-1.157 3.948 3.948 0 01.305-3.09 3.91 3.91 0 011.085-1.247zm-3.232 1.755a5.796 5.796 0 00-.14 1.978l-4.606.003-2.882-.003c.001-.052.004-.104.004-.157 0-.645-.131-1.261-.368-1.821h7.992zm-12.308 4.677a2.86 2.86 0 01-2.857-2.856 2.86 2.86 0 012.857-2.858 2.858 2.858 0 010 5.714zm-5.7 22.854a5.707 5.707 0 015.7-5.702c3.143 0 5.7 2.558 5.7 5.702a5.707 5.707 0 01-5.7 5.702 5.706 5.706 0 01-5.7-5.702zm8.553 6.969v3.792H11.56c-.869 0-1.702.127-2.486.362v-4.155a7.488 7.488 0 005.71.001zm48.387 12.519a6.74 6.74 0 01-6.733 6.733H11.56c-3.71 0-6.729-3.021-6.729-6.733 0-2.715 1.458-5.015 3.632-6.146a.909.909 0 00.21-.106 6.694 6.694 0 012.887-.645h44.878c3.713 0 6.733 3.022 6.733 6.736v.161z"/><path d="M56.358 170.787H11.641a5.483 5.483 0 00-5.476 5.479 5.484 5.484 0 005.476 5.479h44.717a5.484 5.484 0 005.477-5.479 5.484 5.484 0 00-5.477-5.479zm0 9.127H11.641a3.652 3.652 0 01-3.646-3.648 3.652 3.652 0 013.646-3.649h44.717a3.652 3.652 0 013.647 3.649 3.651 3.651 0 01-3.647 3.648z"/><path d="M24.296 173.538a2.755 2.755 0 000 5.508 2.757 2.757 0 002.755-2.753 2.758 2.758 0 00-2.755-2.755zm0 3.677a.922.922 0 11.003-1.845.922.922 0 01-.003 1.845zm9.614-3.701a2.756 2.756 0 00-2.754 2.752 2.759 2.759 0 002.755 2.756 2.755 2.755 0 000-5.508zm0 3.677a.924.924 0 11.921-.925.922.922 0 01-.92.925zm9.635-3.677a2.755 2.755 0 000 5.508 2.759 2.759 0 002.755-2.756 2.756 2.756 0 00-2.755-2.752zm0 3.677a.924.924 0 010-1.847.924.924 0 110 1.847zm9.615-3.705a2.758 2.758 0 00-2.755 2.756 2.756 2.756 0 002.755 2.752 2.754 2.754 0 000-5.508zm0 3.678a.925.925 0 110-1.848.925.925 0 010 1.848zm-38.474-3.599a2.755 2.755 0 00-2.752 2.752 2.755 2.755 0 002.752 2.753 2.756 2.756 0 002.752-2.753 2.755 2.755 0 00-2.752-2.752zm0 3.674a.922.922 0 11.002-1.845.922.922 0 01-.002 1.845z"/></g><defs><clipPath id="clip0"><path fill="#fff" transform="translate(9 253)" d="M0 0h59v59H0z"/></clipPath><clipPath id="clip1"><path fill="#fff" transform="translate(296 381)" d="M0 0h50v50H0z"/></clipPath><clipPath id="clip2"><path fill="#fff" transform="translate(3 124)" d="M0 0h62v62H0z"/></clipPath></defs></svg>