<svg width="25" height="25" fill="none" xmlns="http://www.w3.org/2000/svg"><g clip-path="url(#clip0)" fill="#E66D53"><path d="M19.02 4.269c0-.587-.23-1.139-.645-1.554L16.304.644c-.41-.41-.99-.644-1.568-.644h-.126v4.395h4.41v-.126z"/><path d="M13.376 15.114a2.94 2.94 0 01.704-1.143l4.959-4.939V5.859h-5.147c-.405 0-.708-.327-.708-.732V0H2.197A2.2 2.2 0 000 2.197v20.606A2.2 2.2 0 002.197 25h14.625c1.212 0 2.217-.986 2.217-2.197v-5.467l-.805.786a2.912 2.912 0 01-1.139.702l-2.329.778-.354.019a1.838 1.838 0 01-1.487-.763 1.837 1.837 0 01-.249-1.65l.7-2.094zm-9.714-1.93h7.3a.732.732 0 110 1.464h-7.3a.732.732 0 110-1.464zm-.732-2.198c0-.405.327-.732.732-.732h7.3a.732.732 0 110 1.465h-7.3a.732.732 0 01-.732-.733zm0 5.86c0-.405.327-.733.732-.733h7.3a.732.732 0 110 1.465h-7.3a.732.732 0 01-.732-.732zm10.962 3.662a.732.732 0 110 1.465H9.498a.732.732 0 110-1.465h4.394zM3.662 8.789a.732.732 0 110-1.465h10.23a.732.732 0 110 1.465H3.662z"/><path d="M14.703 15.762l-.637 1.912a.366.366 0 00.463.463l1.91-.638-1.736-1.737zm5.688-6.03l-4.823 4.823 2.08 2.08 4.823-4.823-2.08-2.08zm4.179-2.101a1.466 1.466 0 00-1.039-.407 1.47 1.47 0 00-1.04.408l-1.064 1.064 2.08 2.08 1.064-1.064a1.474 1.474 0 00-.001-2.08z"/><path d="M24.57 9.712a.648.648 0 01.006-.006l-.005.006z"/><path d="M24.575 9.707a.825.825 0 01.006-.006l-.006.006zm.005-.006c.005-.005.005-.005 0 0z"/></g><defs><clipPath id="clip0"><path fill="#fff" d="M0 0h25v25H0z"/></clipPath></defs></svg>