<svg width="112" height="112" fill="none" xmlns="http://www.w3.org/2000/svg"><path d="M56 107.625c-23.168 0-43.378-15.649-49.15-38.057a1.753 1.753 0 011.26-2.132 1.76 1.76 0 012.131 1.26c5.371 20.86 24.189 35.429 45.76 35.429 26.053 0 47.249-21.196 47.249-47.25a1.75 1.75 0 113.5 0c0 27.983-22.768 50.75-50.75 50.75zM7.001 56.876c-.968 0-1.75-.783-1.75-1.75 0-27.983 22.767-50.75 50.75-50.75 23.167 0 43.378 15.648 49.15 38.056a1.753 1.753 0 01-1.261 2.133 1.756 1.756 0 01-2.131-1.26C96.388 22.444 77.57 7.875 56.001 7.875c-26.054 0-47.25 21.196-47.25 47.25a1.75 1.75 0 01-1.75 1.75z" fill="#fff"/><path d="M7 56.876c-.448 0-.896-.172-1.237-.514l-5.25-5.25a1.747 1.747 0 010-2.473 1.747 1.747 0 012.474 0l5.25 5.25c.685.683.685 1.79 0 2.473a1.74 1.74 0 01-1.236.514z" fill="#fff"/><path d="M7 56.876c-.448 0-.896-.172-1.237-.514a1.747 1.747 0 010-2.473l5.25-5.25a1.747 1.747 0 012.474 0c.684.683.684 1.79 0 2.473l-5.25 5.25a1.74 1.74 0 01-1.236.514zm103.251 5.25c-.449 0-.897-.172-1.238-.514l-5.25-5.25a1.748 1.748 0 010-2.474 1.747 1.747 0 012.474 0l5.25 5.25c.685.684.685 1.79 0 2.474a1.742 1.742 0 01-1.236.514z" fill="#fff"/><path d="M99.75 62.126c-.448 0-.896-.172-1.237-.514a1.747 1.747 0 010-2.474l5.25-5.25a1.747 1.747 0 012.474 0c.685.684.685 1.79 0 2.474l-5.25 5.25a1.742 1.742 0 01-1.236.514zM24.496 96.154a1.75 1.75 0 01-1.75-1.75V49.858c0-.968.783-1.75 1.75-1.75.968 0 1.75.782 1.75 1.75v44.546c0 .967-.782 1.75-1.75 1.75zm63.008.003c-.968 0-1.75-.781-1.75-1.75V49.858c0-.968.782-1.75 1.75-1.75.967 0 1.75.782 1.75 1.75v44.55c0 .968-.783 1.75-1.75 1.75z" fill="#fff"/><path d="M87.503 51.608H24.496c-.967 0-1.75-.782-1.75-1.75s.783-1.75 1.75-1.75h63.007c.968 0 1.75.782 1.75 1.75s-.782 1.75-1.75 1.75z" fill="#fff"/><path d="M24.494 51.608a1.75 1.75 0 01-1.5-2.651l5.25-8.754a1.75 1.75 0 013.002 1.801l-5.25 8.754c-.327.548-.906.85-1.502.85zm63.011 0a1.747 1.747 0 01-1.502-.848l-5.25-8.754a1.75 1.75 0 113.002-1.801l5.25 8.753a1.75 1.75 0 01-1.5 2.65z" fill="#fff"/><path d="M82.253 42.855H29.746a1.749 1.749 0 110-3.5h52.507a1.749 1.749 0 110 3.5z" fill="#fff"/><path d="M48.998 51.608a1.749 1.749 0 01-1.717-2.094l1.75-8.755a1.739 1.739 0 012.06-1.371 1.749 1.749 0 011.373 2.06l-1.75 8.753a1.751 1.751 0 01-1.716 1.407zm14 0a1.748 1.748 0 01-1.713-1.407l-1.75-8.754a1.751 1.751 0 011.372-2.059 1.74 1.74 0 012.06 1.371l1.75 8.755a1.751 1.751 0 01-1.719 2.094z" fill="#fff"/><path d="M48.996 62.108c-.967 0-1.75-.782-1.75-1.75v-10.5c0-.968.783-1.75 1.75-1.75.968 0 1.75.782 1.75 1.75v10.5c0 .968-.782 1.75-1.75 1.75zm14.004 0c-.968 0-1.75-.782-1.75-1.75v-10.5c0-.968.782-1.75 1.75-1.75.967 0 1.75.782 1.75 1.75v10.5c0 .968-.783 1.75-1.75 1.75z" fill="#fff"/><path d="M63.002 62.108c-.14 0-.284-.017-.425-.052l-7-1.75a1.75 1.75 0 01.846-3.396l7 1.75a1.75 1.75 0 01-.42 3.448z" fill="#fff"/><path d="M48.994 62.108a1.75 1.75 0 01-.421-3.448l7.003-1.75a1.745 1.745 0 012.12 1.274 1.747 1.747 0 01-1.273 2.122l-7.004 1.75a1.776 1.776 0 01-.425.052zm22.763 21.003H40.242a1.749 1.749 0 110-3.5h31.515a1.749 1.749 0 110 3.5zm0-6.985H40.242a1.749 1.749 0 110-3.5h31.515a1.749 1.749 0 110 3.5zm-8.753 13.989H48.996a1.749 1.749 0 110-3.5h14.008a1.749 1.749 0 110 3.5z" fill="#fff"/></svg>