<svg width="50" height="50" fill="none" xmlns="http://www.w3.org/2000/svg"><path d="M50 27.818a3.662 3.662 0 00-3.657-3.658c-.977 0-1.895.38-2.587 1.072l-3.433 3.433V0H8.537L0 8.537V50h40.323V39.01l8.606-8.606A3.634 3.634 0 0050 27.818zM30.24 41.83l2.098 2.098-2.937.858.839-2.956zm3.631 1.35l-.875-.875L44.51 30.79l.875.875L33.871 43.18zm-2.016-2.016l-.876-.875 11.515-11.515.876.876-11.515 11.514zM8.065 2.755v5.31H2.753l5.312-5.31zM38.71 48.386H1.613V9.677h8.064V1.613H38.71v28.665l-9.59 9.589-2.068 7.284 7.243-2.113 4.415-4.415v7.764zm9.079-19.123l-1.263 1.262-2.891-2.892 1.262-1.262c.386-.386.9-.6 1.446-.6a2.048 2.048 0 011.446 3.492z" fill="#000"/><path d="M16.338 33.328l-3.47 3.819a5.629 5.629 0 00-3.997-1.663 5.652 5.652 0 00-5.645 5.645 5.652 5.652 0 005.645 5.645 5.652 5.652 0 005.645-5.645 5.6 5.6 0 00-.67-2.661l3.686-4.054-1.194-1.086zm-3.435 7.801a4.037 4.037 0 01-4.032 4.032 4.037 4.037 0 01-4.032-4.032 4.037 4.037 0 014.032-4.032c1.143 0 2.17.483 2.906 1.25l-3.036 3.34-1.842-1.228-.894 1.342 2.997 1.998 3.653-4.018c.15.423.248.872.248 1.348zm-.035-18.499a5.629 5.629 0 00-3.997-1.662 5.652 5.652 0 00-5.645 5.645 5.653 5.653 0 005.645 5.645 5.653 5.653 0 005.645-5.645c0-.962-.242-1.868-.67-2.661l3.686-4.055-1.194-1.085-3.47 3.819zm.035 3.983a4.037 4.037 0 01-4.032 4.032 4.037 4.037 0 01-4.032-4.032A4.037 4.037 0 018.87 22.58c1.143 0 2.17.483 2.906 1.25L8.74 27.17l-1.842-1.228-.894 1.342 2.997 1.998 3.653-4.018c.15.423.248.872.248 1.348zm22.581-.807h1.613v1.613h-1.613v-1.613zm-17.742 0h16.13v1.613h-16.13v-1.613zm0-3.226h19.355v1.614H17.742V22.58zm0 6.452h19.355v1.613H17.742v-1.613zm0 11.29h8.871v1.613h-8.871v-1.613zm0 3.226h8.871v1.613h-8.871v-1.613zm0-6.451h8.871v1.613h-8.871v-1.613zm-2.419-19.355h17.742a4.037 4.037 0 004.032-4.032V7.258a4.037 4.037 0 00-4.032-4.032H15.323a4.037 4.037 0 00-4.033 4.032v6.452a4.037 4.037 0 004.033 4.032zm-2.42-10.484a2.422 2.422 0 012.42-2.42h17.742a2.422 2.422 0 012.419 2.42v6.452a2.423 2.423 0 01-2.42 2.42h-17.74a2.423 2.423 0 01-2.42-2.42V7.258z" fill="#000"/><path d="M33.87 8.064h-4.838v4.84h4.839v-4.84zm-1.612 3.226h-1.613V9.677h1.613v1.613zm-5.645-3.226h-4.839v4.84h4.839v-4.84zM25 11.29h-1.613V9.677H25v1.613zm-5.645-3.226h-4.839v4.84h4.839v-4.84zm-1.613 3.226h-1.613V9.677h1.613v1.613z" fill="#000"/></svg>