<svg width="25" height="23" fill="none" xmlns="http://www.w3.org/2000/svg"><path d="M20.866 12.537a.397.397 0 00-.181-.045c-.13 0-.245.05-.345.15l-.963.962a.45.45 0 00-.135.331v3.818c0 .662-.235 1.228-.706 1.699a2.316 2.316 0 01-1.699.706H4.33a2.316 2.316 0 01-1.7-.706 2.316 2.316 0 01-.706-1.699V5.246c0-.662.236-1.228.707-1.699a2.316 2.316 0 011.699-.706h12.507c.22 0 .446.03.677.09.06.02.105.03.134.03.131 0 .246-.05.346-.15l.737-.737a.467.467 0 00.135-.436.456.456 0 00-.27-.345 4.14 4.14 0 00-1.76-.376H4.33c-1.193 0-2.213.423-3.06 1.27S0 4.054 0 5.247v12.507c0 1.192.423 2.212 1.27 3.059s1.867 1.27 3.06 1.27h12.507c1.192 0 2.212-.423 3.06-1.27.846-.847 1.27-1.867 1.27-3.06v-4.78c0-.21-.1-.356-.301-.436z" fill="#000"/><path d="M24.64 3.908l-1.655-1.654a1.17 1.17 0 00-.857-.36c-.33 0-.616.12-.857.36l-9.726 9.727-3.953-3.954a1.17 1.17 0 00-.857-.36c-.331 0-.617.12-.857.36L4.224 9.681c-.24.24-.36.526-.36.857 0 .33.12.616.36.857l6.464 6.464c.24.24.527.36.857.36.33 0 .617-.12.857-.36L24.64 5.622c.24-.24.36-.526.36-.857 0-.33-.12-.616-.36-.857z" fill="#000"/></svg>