<svg width="60" height="60" fill="none" xmlns="http://www.w3.org/2000/svg"><path d="M20.22 45.926a1.22 1.22 0 00-.174-.422 1.125 1.125 0 00-.323-.323 1.157 1.157 0 00-.422-.175 1.156 1.156 0 00-.88.175 1.125 1.125 0 00-.323.323 1.115 1.115 0 00-.174.422 1.158 1.158 0 00.32 1.057 1.182 1.182 0 00.829.343 1.157 1.157 0 00.447-.09 1.157 1.157 0 00.634-.634 1.18 1.18 0 00.067-.676z" fill="#000"/><path d="M53.905 46.287a1.054 1.054 0 00-.014-.035c-1.078-2.524-3.608-3.457-6.602-2.434l-8.164 2.258c-.472-1.43-1.65-2.646-3.314-3.264a1.038 1.038 0 00-.031-.011l-8.974-3.046c-.747-.966-3.087-3.436-7.468-3.436-3.062 0-5.77 2.1-7.32 4.39H1.173C.525 40.709 0 41.233 0 41.88v14.775c0 .647.525 1.172 1.172 1.172h6.967c.648 0 1.172-.525 1.172-1.172v-1.012h3.268c.647 0 1.172-.525 1.172-1.172v-.337c1.905.166 2.531.527 4.28 1.536 1.346.776 3.379 1.948 7.04 3.595l.052.021c.703.277 2.077.711 3.77.711 1.18 0 2.514-.21 3.883-.831l18.046-6.461c.032-.012.063-.025.094-.039 1.725-.793 4.295-3.03 2.99-6.38zM6.968 55.483H2.344v-12.43h4.624v12.43zm4.439-2.184H9.311V43.052h2.096V53.3zm38.573-2.782l-18.038 6.458a1.408 1.408 0 00-.1.04c-2.512 1.155-4.9.464-5.836.1-3.537-1.592-5.425-2.68-6.804-3.475-1.917-1.106-2.842-1.64-5.451-1.855v-9.438c1.11-1.82 3.265-3.684 5.587-3.684 3.983 0 5.67 2.59 5.737 2.695.143.232.363.408.622.495l9.313 3.161c1.488.559 2.274 1.833 1.912 3.103a2.268 2.268 0 01-1.084 1.37 2.27 2.27 0 01-1.721.206l-10.5-3.327a1.172 1.172 0 10-.707 2.234l10.517 3.333.034.01a4.603 4.603 0 003.518-.409 4.597 4.597 0 002.27-3.06l8.798-2.438c1.27-.434 2.939-.59 3.682 1.12.768 2.008-1.23 3.113-1.749 3.36zm-7.903-35.102a1.142 1.142 0 00-.175-.422 1.124 1.124 0 00-.324-.323 1.189 1.189 0 00-.42-.175 1.159 1.159 0 00-.88.175 1.124 1.124 0 00-.324.323 1.19 1.19 0 00-.198.65 1.157 1.157 0 00.09.448 1.16 1.16 0 00.634.634 1.18 1.18 0 00.677.067 1.239 1.239 0 00.421-.175 1.125 1.125 0 00.324-.323 1.09 1.09 0 00.107-.203 1.108 1.108 0 00.09-.447c0-.076-.006-.154-.022-.229z" fill="#000"/><path d="M58.828 3.972H51.86a1.17 1.17 0 00-1.171 1.172v1.011H47.42c-.647 0-1.172.525-1.172 1.172v.338c-1.905-.167-2.531-.528-4.28-1.537-1.346-.775-3.379-1.948-7.04-3.594a.977.977 0 00-.052-.022c-1.192-.469-4.316-1.392-7.653.12L22.51 4.321 18.534.346a1.172 1.172 0 00-1.657 0l-13.05 13.05a1.162 1.162 0 000 1.657l22.3 22.3c.356.356 1.192.464 1.657 0l11.913-11.914c.31.026.632.04.965.04 3.062 0 5.77-2.1 7.319-4.389h10.847c.647 0 1.172-.524 1.172-1.172V5.144c0-.648-.525-1.172-1.172-1.172zm-41.123-1.14l2.671 2.67a5.059 5.059 0 01-2.67.755 5.06 5.06 0 01-2.672-.754l2.671-2.671zM8.984 16.895l-2.671-2.67 2.67-2.672c.492.794.755 1.712.755 2.671 0 .96-.263 1.877-.754 2.671zm17.971 17.971l-2.67-2.67a5.102 5.102 0 015.34 0l-2.67 2.67zm4.359-4.358a7.447 7.447 0 00-8.718 0L10.672 18.584a7.378 7.378 0 001.41-4.36c0-1.589-.495-3.1-1.41-4.359l2.674-2.674a7.377 7.377 0 004.36 1.41c1.588 0 3.1-.495 4.359-1.41l2.534 2.535c-.547.08-1.08.26-1.577.538a4.592 4.592 0 00-1.91 2.017 6.678 6.678 0 00-3.505 1.845 6.688 6.688 0 000 9.447 6.66 6.66 0 004.723 1.953 6.66 6.66 0 004.724-1.953 6.654 6.654 0 001.738-3.024l3.957 1.343a7.482 7.482 0 001.241 5.94l-2.676 2.676zm-7.125-11.521l.031.01 2.343.796a4.316 4.316 0 01-1.166 2.122 4.341 4.341 0 01-6.133 0 4.341 4.341 0 011.414-7.075c.216 1.8 1.512 3.405 3.511 4.147zm11.49 7.156a5.127 5.127 0 01-.75-2.437 9.116 9.116 0 002.067 1.119l-1.318 1.318zm10.57-6.692c-1.11 1.821-3.265 3.685-5.587 3.685-.435 0-.842-.031-1.223-.086l-.004-.001c-2.531-.368-3.892-1.806-4.341-2.375-.024-.036-.126-.169-.141-.191a1.168 1.168 0 00-.646-.537l-9.317-3.162c-1.487-.558-2.273-1.832-1.913-3.102l.001-.002v-.003a2.268 2.268 0 011.084-1.366 2.267 2.267 0 011.721-.206l10.5 3.327a1.172 1.172 0 10.707-2.234l-8.35-2.646-.073-.073-.002-.002-4.323-4.323 3.716-1.33a1.22 1.22 0 00.04-.016l.012-.005.048-.02c2.512-1.155 4.9-.464 5.835-.1 3.538 1.592 5.425 2.68 6.805 3.475 1.917 1.106 2.841 1.64 5.451 1.855v9.438zm4.44-.705h-2.096V8.5h2.096v10.247zm6.967 0h-4.624V6.316h4.624v12.43z" fill="#000"/></svg>