<svg width="37" height="36" fill="none" xmlns="http://www.w3.org/2000/svg"><path d="M11.088 16.904c0 4.257 3.547 7.709 7.923 7.709 4.376 0 7.923-3.452 7.923-7.709s-3.547-7.708-7.923-7.708c-4.373.004-7.918 3.453-7.923 7.708zm7.923.487c-1.315.007-2.429-.94-2.597-2.209-.168-1.268.662-2.46 1.936-2.778v-.651c0-.295.245-.534.549-.534.303 0 .549.239.549.534v.619c1.246.205 2.155 1.259 2.147 2.489a.535.535 0 01-.543.527.535.535 0 01-.542-.527c-.001-.807-.674-1.46-1.503-1.46-.83 0-1.501.656-1.5 1.463 0 .806.674 1.46 1.503 1.459 1.345.007 2.462 1.011 2.576 2.315.113 1.304-.814 2.477-2.138 2.704v.637a.542.542 0 01-.55.534.542.542 0 01-.548-.534v-.67c-1.148-.294-1.95-1.3-1.957-2.455 0-.299.249-.54.555-.54.307 0 .556.241.556.54.002.746.58 1.372 1.342 1.453a.598.598 0 01.209.007c.823-.02 1.477-.681 1.465-1.482-.012-.802-.685-1.444-1.509-1.44zm12.715 10.897a.26.26 0 01-.013.006l-5.097 2.343c.055.275.08.554.071.834a.542.542 0 01-.548.52h-.016l-7.46-.2a.54.54 0 01-.533-.55.543.543 0 01.564-.519l6.857.184c-.228-1.293-1.36-2.25-2.708-2.289l-4.538-.121a6.105 6.105 0 01-2.571-.647l-.462-.232c-2.267-1.15-5-1-7.12.39L7.97 34.43l.78-.406a3.475 3.475 0 012.528-.27l7.7 2.104a7.375 7.375 0 004.408-.48l10.669-6.715a2.036 2.036 0 00-2.329-.375zM2.959 35.545l.27-9.556 3.879.104-.27 9.557-3.88-.105zM19.526 6.334v-5.8A.542.542 0 0018.977 0a.542.542 0 00-.549.534v5.8c0 .295.246.534.55.534a.54.54 0 00.548-.534zm4.706 0V3.587a.542.542 0 00-.549-.534.542.542 0 00-.549.534v2.747c0 .295.246.535.55.535.303 0 .548-.24.548-.535zm-9.412 0V3.587a.542.542 0 00-.55-.534.542.542 0 00-.548.534v2.747c0 .295.246.535.549.535.303 0 .549-.24.549-.535z" fill="#E66D53"/></svg>