<svg width="33" height="33" fill="none" xmlns="http://www.w3.org/2000/svg"><g clip-path="url(#clip0)" fill="#E66D53"><path d="M31.74 6.104L11.53 1.826a1.594 1.594 0 00-1.884 1.226L9.262 5.52l23.32 4.935.384-2.468a1.594 1.594 0 00-1.226-1.883zm-8.5 4.874a1.609 1.609 0 00-1.973-1.117l-3.837 1.065-9.045-1.914-.995 4.7-6.215 1.725a1.609 1.609 0 00-1.117 1.974l3.503 12.622a1.609 1.609 0 001.974 1.117l20.092-5.576a1.609 1.609 0 001.117-1.974l-.602-2.167 2.254.476a1.593 1.593 0 001.883-1.225l1.426-6.737-8.117-1.718-.347-1.251zm2.321 6.415l.497-2.348a.656.656 0 01.775-.505l2.348.498a.656.656 0 01.505.774l-.497 2.349a.656.656 0 01-.775.504l-2.348-.497a.656.656 0 01-.505-.775zm-24.037-.696l5.56-1.543 13.12-3.64 1.412-.393a.303.303 0 01.365.206l.165.598.52 1.87L2.002 19.53l-.685-2.468a.3.3 0 01.206-.365zm23.96 7.252a.292.292 0 01-.03.224.289.289 0 01-.177.141L5.186 29.89a.304.304 0 01-.365-.206L2.778 22.32l20.662-5.734 1.26 4.54.784 2.822z"/><path d="M8.432 24.453a.656.656 0 00-.805-.456l-2.346.652a.656.656 0 00-.455.805l.651 2.346a.655.655 0 00.805.455l2.346-.651a.656.656 0 00.456-.805l-.652-2.346z"/></g><defs><clipPath id="clip0"><path fill="#fff" d="M0 0h33v33H0z"/></clipPath></defs></svg>