<svg width="23" height="23" fill="none" xmlns="http://www.w3.org/2000/svg"><path d="M17.486 15.215c-.751-.742-1.69-.742-2.436 0-.57.565-1.139 1.13-1.699 1.704-.153.158-.282.191-.469.086-.368-.201-.761-.364-1.115-.584-1.651-1.039-3.035-2.374-4.26-3.877-.608-.747-1.148-1.546-1.527-2.446-.076-.181-.062-.301.087-.45.57-.55 1.124-1.115 1.684-1.68.78-.784.78-1.703-.004-2.493-.446-.45-.89-.89-1.336-1.34-.46-.46-.914-.924-1.378-1.378-.752-.733-1.69-.733-2.436.004-.575.565-1.125 1.144-1.709 1.7C.348 4.972.074 5.6.017 6.33c-.09 1.193.201 2.317.613 3.413.842 2.269 2.125 4.284 3.68 6.131 2.101 2.499 4.61 4.475 7.543 5.901 1.32.642 2.69 1.135 4.178 1.216 1.024.058 1.915-.2 2.628-1 .488-.546 1.038-1.044 1.555-1.565.766-.776.77-1.714.01-2.48-.91-.913-1.824-1.823-2.738-2.732zm-.914-3.815l1.766-.301a7.894 7.894 0 00-2.206-4.26 7.85 7.85 0 00-4.5-2.244l-.248 1.775a6.091 6.091 0 013.484 1.738 6.09 6.09 0 011.704 3.292zm2.762-7.676A13.022 13.022 0 0011.867 0l-.249 1.776a11.29 11.29 0 016.452 3.216 11.282 11.282 0 013.164 6.102L23 10.793a13.118 13.118 0 00-3.666-7.07z" fill="#fff"/></svg>