<svg width="23" height="23" fill="none" xmlns="http://www.w3.org/2000/svg"><path d="M17.486 15.215c-.752-.742-1.69-.742-2.436 0-.57.565-1.14 1.13-1.7 1.704-.152.158-.282.191-.468.086-.369-.201-.761-.364-1.115-.584-1.652-1.039-3.035-2.374-4.26-3.877-.608-.746-1.149-1.546-1.527-2.445-.076-.182-.062-.302.086-.45.57-.55 1.125-1.115 1.685-1.68.78-.785.78-1.704-.005-2.494-.445-.45-.89-.89-1.335-1.34-.46-.46-.914-.924-1.379-1.378-.75-.733-1.689-.733-2.436.005-.574.564-1.124 1.143-1.708 1.699C.347 4.973.074 5.6.017 6.33c-.091 1.193.2 2.317.612 3.413.843 2.269 2.125 4.284 3.68 6.131 2.102 2.499 4.61 4.475 7.544 5.902 1.32.641 2.69 1.134 4.178 1.215 1.024.058 1.914-.2 2.628-1 .488-.546 1.038-1.043 1.555-1.565.766-.775.77-1.713.01-2.48-.91-.913-1.824-1.823-2.738-2.732zm-.914-3.815l1.766-.301a7.893 7.893 0 00-2.207-4.26 7.85 7.85 0 00-4.499-2.244l-.248 1.775a6.09 6.09 0 013.484 1.738 6.09 6.09 0 011.704 3.292zm2.761-7.676A13.022 13.022 0 0011.867 0l-.249 1.776c2.46.344 4.69 1.46 6.452 3.216a11.283 11.283 0 013.163 6.102L23 10.793a13.117 13.117 0 00-3.666-7.07z" fill="#fff"/></svg>