<svg width="46" height="46" viewBox="0 0 46 46" fill="none" xmlns="http://www.w3.org/2000/svg">
<path d="M11.04 27.5999H9.20001V25.7599H11.04V27.5999ZM11.04 22.0799H9.20001V23.9199H11.04V22.0799ZM11.04 18.3999H9.20001V20.2399H11.04V18.3999ZM14.72 18.3999H12.88V20.2399H14.72V18.3999ZM18.4 18.3999H16.56V20.2399H18.4V18.3999ZM11.04 29.4399H9.20001V31.2799H11.04V29.4399ZM14.72 25.7599H12.88V27.5999H14.72V25.7599ZM14.72 22.0799H12.88V23.9199H14.72V22.0799Z" fill="#E66D53"/>
<path d="M23.92 27.6H22.08V25.76H23.92V27.6ZM23.92 29.44H22.08V31.28H23.92V29.44ZM23.92 33.12H22.08V34.96H23.92V33.12ZM40.48 23.92V40.48H5.51999V14.1956L13.8 9.20922L22.08 14.1956V22.08H23.92V10.8744C23.138 10.5984 22.5308 9.98202 22.2456 9.20002H20.24V7.36002H22.2456C22.632 6.29282 23.644 5.52002 24.84 5.52002C26.036 5.52002 27.048 6.29282 27.4344 7.36002H36.8V9.20002H34.96V16.56H38.64V18.4H29.44V16.56H33.12V9.20002H27.4344C27.1584 9.98202 26.542 10.5892 25.76 10.8744V22.08H29.44V27.6H38.64V23.92H40.48ZM23.92 9.20002H25.76V7.36002H23.92V9.20002ZM29.44 29.44V33.12H38.64V29.44H29.44ZM27.6 23.92H18.4V38.64H27.6V23.92ZM7.35999 38.64H16.56V22.08H20.24V15.2352L13.8 11.3528L7.35999 15.2352V38.64ZM38.64 38.64V34.96H29.44V38.64H38.64Z" fill="black"/>
</svg>
