<svg width="44" height="44" viewBox="0 0 44 44" fill="none" xmlns="http://www.w3.org/2000/svg">
<path d="M40.48 38.7024L37.84 36.0624L35.2 38.7024L32.56 36.0624L29.92 38.7024L27.28 36.0624L24.64 38.7024L22 36.0624L19.36 38.7024L16.72 36.0624L14.08 38.7024L11.44 36.0624L8.8 38.7024L6.16 36.0624L3.52 38.7024L2.2792 37.4616L6.16 33.572L8.8 36.212L11.44 33.572L14.08 36.212L16.72 33.572L19.36 36.212L22 33.572L24.64 36.212L27.28 33.572L29.92 36.212L32.56 33.572L35.2 36.212L37.84 33.572L41.7296 37.4616L40.48 38.7024Z" fill="#E66D53"/>
<path d="M35.2 16.8696V8.78243H29.92V7.92003C29.92 6.46803 28.732 5.28003 27.28 5.28003C25.828 5.28003 24.64 6.46803 24.64 7.92003V8.78243H19.36V14.0624H3.52V15.8224H7.04V19.3424H3.52V29.6912L3.7752 29.9464C4.884 31.0552 6.3536 31.6624 7.92 31.6624C9.4864 31.6624 10.956 31.0552 12.0648 29.9464L12.32 29.6912V19.3424H8.8V15.8224H19.36V16.8696L14.2912 19.8L21.1464 31.6624H33.4224L40.2776 19.8L35.2 16.8696ZM10.56 28.9432C9.0904 30.184 6.7584 30.184 5.28 28.9432V21.1024H10.56V28.9432ZM26.4 7.02243H28.16V8.78243H26.4V7.02243ZM21.12 10.5424H33.44V15.8576L27.28 12.3024L21.12 15.8576V10.5424ZM16.6936 20.4424L26.4 14.8368V29.9024H22.1584L16.6936 20.4424ZM32.4016 29.9024H28.16V14.8368L37.8664 20.4424L32.4016 29.9024ZM33.44 19.3424V21.1024H31.68V19.3424H33.44ZM22.88 19.3424V21.1024H21.12V19.3424H22.88Z" fill="black"/>
</svg>
