<svg width="46" height="46" viewBox="0 0 46 46" fill="none" xmlns="http://www.w3.org/2000/svg">
<path d="M31.28 44.0036L28.52 41.2436L25.76 44.0036L23 41.2436L20.24 44.0036L17.48 41.2436L14.72 44.0036L11.96 41.2436L9.2 44.0036L7.9028 42.7064L11.96 38.6492L14.72 41.4092L17.48 38.6492L20.24 41.4092L23 38.6492L25.76 41.4092L28.52 38.6492L31.28 41.4092L34.04 38.6492L38.0972 42.7064L36.8 44.0036L34.04 41.2436L31.28 44.0036Z" fill="#E66D53"/>
<path d="M36.8092 23.9199H30.8108L27.8484 12.8799H29.4492V11.0399H27.3608L25.3828 3.67065H20.6448L18.6668 11.0399H16.56V12.8799H18.17L15.2076 23.9199H9.20001V29.4399H12.88V36.7999H18.4V29.4399H27.6V36.7999H33.12V29.4399H36.8V23.9199H36.8092ZM19.5316 14.9131L21.7028 17.0843L17.9492 20.8379L19.5316 14.9131ZM28.0784 20.8563L24.3064 17.0843L26.4868 14.9039L28.0784 20.8563ZM23 15.7871L20.102 12.8799H25.9164L23 15.7871ZM23 18.3815L28.5384 23.9199H17.4708L23 18.3815ZM22.0524 5.51065H23.966L25.4472 11.0399H20.5712L22.0524 5.51065ZM16.5692 34.9599H14.7292V29.4399H16.5692V34.9599ZM31.2892 34.9599H29.4492V29.4399H31.2892V34.9599ZM34.9692 27.5999H11.0492V25.7599H34.9692V27.5999Z" fill="black"/>
</svg>
