<svg width="44" height="44" viewBox="0 0 44 44" fill="none" xmlns="http://www.w3.org/2000/svg">
<path d="M24.64 22.8799H19.36V24.6399H24.64V22.8799Z" fill="#E66D53"/>
<path d="M38.7024 19.3601H33.4312L26.3912 12.3201H7.80559L3.51999 19.7473V28.1601L5.27999 29.9201H6.15999C6.15999 32.8329 8.52719 35.2001 11.44 35.2001C14.3528 35.2001 16.72 32.8329 16.72 29.9201H27.28C27.28 32.8329 29.6472 35.2001 32.56 35.2001C35.4728 35.2001 37.84 32.8329 37.84 29.9201H42.24V22.8977L38.7024 19.3601ZM30.9496 19.3601H19.36V14.0801H25.6696L30.9496 19.3601ZM10.9912 19.3601L14.036 14.0801H17.6V19.3601H10.9912ZM8.82639 14.0801H12.0032L8.95839 19.3601H5.77279L8.82639 14.0801ZM11.44 33.4401C9.49519 33.4401 7.91999 31.8649 7.91999 29.9201C7.91999 27.9753 9.49519 26.4001 11.44 26.4001C13.3848 26.4001 14.96 27.9753 14.96 29.9201C14.96 31.8649 13.3848 33.4401 11.44 33.4401ZM32.56 33.4401C30.6152 33.4401 29.04 31.8649 29.04 29.9201C29.04 27.9753 30.6152 26.4001 32.56 26.4001C34.5048 26.4001 36.08 27.9753 36.08 29.9201C36.08 31.8649 34.5048 33.4401 32.56 33.4401ZM40.48 28.1601H37.532C36.8016 26.1097 34.8568 24.6401 32.56 24.6401C30.2632 24.6401 28.3184 26.1097 27.588 28.1601H16.412C15.6816 26.1097 13.7368 24.6401 11.44 24.6401C9.14319 24.6401 7.19839 26.1097 6.46799 28.1601H6.01039L5.27999 27.4297V21.1201H37.972L40.48 23.6281V28.1601Z" fill="black"/>
</svg>
