<svg width="46" height="46" viewBox="0 0 46 46" fill="none" xmlns="http://www.w3.org/2000/svg">
<path d="M21.16 10.3316L17.2592 14.2324L15.962 12.9352L19.2188 9.67839C20.2952 8.60199 22.0432 8.60199 23.1196 9.67839C24.196 10.7548 24.196 12.5028 23.1196 13.5792L22.4664 14.2324L21.16 12.9352L22.4572 11.638L21.16 10.3316ZM35.6684 24.84L31.7676 28.7408L33.0648 30.038L36.3216 26.7812C37.398 25.7048 37.398 23.9568 36.3216 22.8804C35.2452 21.804 33.4972 21.804 32.4208 22.8804L31.7676 23.5336L33.0648 24.84L34.362 23.5428L35.6684 24.84Z" fill="#E66D53"/>
<path d="M38.6584 5.64882C36.4504 5.80522 34.7392 6.07202 32.798 8.00402L27.922 12.88H11.0032L7.0012 16.882L20.3412 20.4608L13.3124 27.4804L10.2304 26.6524L5.5752 31.3076L12.7604 33.2304L14.6832 40.4156L19.3384 35.7604L18.5104 32.6784L25.53 25.6496L29.1088 38.9896L33.12 34.9968V18.078L37.996 13.202C39.9372 11.2608 40.1948 9.54962 40.3512 7.34162L40.48 5.52002L38.6584 5.64882ZM10.5616 15.9252L11.7668 14.72H26.082L21.85 18.952L10.5616 15.9252ZM15.64 36.8644L14.2692 31.7308L9.1356 30.36L10.7916 28.704L15.9252 30.0748L17.296 35.2084L15.64 36.8644ZM31.28 34.2332L30.0748 35.4384L27.048 24.15L31.28 19.918V34.2332ZM36.6988 11.9048L17.9768 30.6268L17.4248 28.5752L15.3732 28.0232L34.1044 9.30122C35.4844 7.93042 36.5884 7.65442 38.502 7.49802C38.3456 9.42082 38.0696 10.5248 36.6988 11.9048Z" fill="black"/>
</svg>
