<svg width="62" height="62" viewBox="0 0 62 62" fill="none" xmlns="http://www.w3.org/2000/svg">
<g clip-path="url(#clip0)">
<path d="M12.1068 5.44244H18.7248V3.47213C18.7248 2.64481 19.0612 1.89318 19.607 1.34729C20.1494 0.804915 20.901 0.465126 21.7318 0.465126C22.559 0.465126 23.3109 0.805036 23.8532 1.34729C24.3989 1.89318 24.7387 2.64481 24.7387 3.47213V5.44244H31.3534V3.47213C31.3534 2.64481 31.6933 1.89318 32.2355 1.34729C32.7813 0.804915 33.533 0.465126 34.3602 0.465126C35.1875 0.465126 35.9393 0.805036 36.4852 1.34729C37.031 1.89318 37.3674 2.64481 37.3674 3.47213V5.44244H43.9852V3.4961C43.9852 2.66891 44.3216 1.91704 44.8674 1.37127C45.4097 0.829013 46.1614 0.489224 46.9924 0.489224C47.8196 0.489224 48.5713 0.829013 49.1137 1.37127C49.6596 1.91704 49.9994 2.66891 49.9994 3.4961V5.44244H50.9949C52.3988 5.44244 53.6723 6.01558 54.5956 6.93565C55.5189 7.85899 56.0922 9.13253 56.0922 10.5363V20.0001C56.0922 20.5013 55.6837 20.9097 55.1825 20.9097C54.6813 20.9097 54.2729 20.5013 54.2729 20.0001V17.381H30.1038C29.5992 17.381 29.1941 16.9759 29.1941 16.4748C29.1941 15.9702 29.5992 15.5652 30.1038 15.5652H54.2729V10.5364C54.2729 9.63362 53.9056 8.81672 53.3116 8.22275C52.7143 7.62552 51.8974 7.25824 50.9946 7.25824H49.9991V9.20119C49.9991 10.0284 49.6593 10.7801 49.1134 11.3259C48.5711 11.8717 47.8194 12.2081 46.9921 12.2081C46.1613 12.2081 45.4095 11.8717 44.8672 11.3259C44.3214 10.7801 43.985 10.0284 43.985 9.20119V7.25824H37.3671V9.17709C37.3671 10.0044 37.0307 10.756 36.4849 11.3019C35.9391 11.8443 35.1873 12.1841 34.36 12.1841C33.5328 12.1841 32.781 11.8442 32.2353 11.3019C31.6929 10.756 31.3531 10.0044 31.3531 9.17709V7.25824H24.7385V9.17709C24.7385 10.0044 24.3987 10.756 23.8529 11.3019C23.3105 11.8443 22.5588 12.1841 21.7316 12.1841C20.9009 12.1841 20.1492 11.8442 19.6068 11.3019C19.061 10.756 18.7246 10.0044 18.7246 9.17709V7.25824H12.1068V9.17709C12.1068 10.0044 11.7669 10.756 11.2247 11.3019C10.6789 11.8443 9.92715 12.1841 9.09983 12.1841C8.27264 12.1841 7.52077 11.8442 6.975 11.3019C6.43262 10.756 6.09283 10.0044 6.09283 9.17709V7.25824H5.09393C4.19457 7.25824 3.37416 7.62552 2.78043 8.22275C2.18659 8.8166 1.8158 9.6335 1.8158 10.5364V15.5653H25.9884C26.4896 15.5653 26.8981 15.9703 26.8981 16.4749C26.8981 16.9761 26.4896 17.3811 25.9884 17.3811H1.81592V44.2001C1.81592 44.7013 1.41086 45.1063 0.909777 45.1063C0.40857 45.1063 0.000121094 44.7012 0.000121094 44.2001V10.5364C0 9.13253 0.573258 7.85899 1.4966 6.93565C2.41994 6.01558 3.69348 5.44244 5.09393 5.44244H6.09283V3.47213C6.09283 2.64481 6.42923 1.89318 6.975 1.34729C7.52077 0.804915 8.27264 0.465126 9.09983 0.465126C9.92715 0.465126 10.6788 0.805036 11.2247 1.34729C11.767 1.89318 12.1068 2.64481 12.1068 3.47213V5.44244ZM48.3004 40.7435C48.3004 40.2422 48.7055 39.8373 49.2066 39.8373C49.7112 39.8373 50.1162 40.2424 50.1162 40.7435V48.7415C50.1162 48.9886 50.0201 49.2083 49.8588 49.3732L44.3082 55.9018C43.9855 56.2864 43.4157 56.3344 43.0313 56.0083C42.6503 55.6857 42.6021 55.1159 42.9248 54.7314L48.3004 48.412V40.7435ZM42.7637 39.8544C42.3551 40.1496 41.7887 40.057 41.497 39.6519C41.2018 39.2467 41.291 38.6805 41.6995 38.3853C42.7706 37.606 43.9684 36.9916 45.2592 36.5729C46.5053 36.1677 47.8337 35.948 49.2068 35.948C51.0089 35.948 52.7218 36.3188 54.2734 36.9916V24.1124C54.2734 23.6112 54.6818 23.2062 55.183 23.2062C55.6842 23.2062 56.0927 23.6113 56.0927 24.1124V37.9561C56.8753 38.4573 57.5996 39.0409 58.2552 39.6965C60.5687 42.0101 62 45.2093 62 48.7415C62 52.2736 60.5687 55.4728 58.2549 57.7864C55.9379 60.1036 52.7423 61.5349 49.2066 61.5349C45.6744 61.5349 42.4786 60.1036 40.1616 57.7864C39.2829 56.9076 38.5312 55.9017 37.9373 54.7966H4.72326C3.42235 54.7966 2.24145 54.268 1.38677 53.4132C0.532086 52.5552 0 51.3777 0 50.0767V48.3124C0 47.8112 0.40857 47.4064 0.909656 47.4064C1.41074 47.4064 1.8158 47.8113 1.8158 48.3124V50.0767C1.8158 50.8731 2.1453 51.6008 2.6706 52.126C3.19918 52.6546 3.92356 52.9808 4.72326 52.9808H37.1341C36.6673 51.6558 36.4133 50.228 36.4133 48.7415C36.4133 47.4371 36.6125 46.1738 36.9797 44.9794C37.3607 43.7471 37.9203 42.5938 38.6273 41.5536C38.9088 41.1382 39.4751 41.0318 39.887 41.3134C40.2989 41.5949 40.4052 42.1612 40.1238 42.5732C39.5163 43.469 39.0358 44.4576 38.7096 45.5115C38.4006 46.5276 38.2326 47.6124 38.2326 48.7416C38.2326 51.7727 39.4613 54.5187 41.4453 56.5027C43.4328 58.4902 46.1755 59.7191 49.2066 59.7191C52.2375 59.7191 54.9836 58.4902 56.971 56.5027C58.9552 54.5187 60.1841 51.7727 60.1841 48.7416C60.1841 45.7106 58.9552 42.9644 56.971 40.9804C54.9836 38.9929 52.2375 37.7641 49.2066 37.7641C48.0224 37.7641 46.8828 37.953 45.8185 38.2961C44.7133 38.6565 43.6835 39.1851 42.7637 39.8544ZM38.7886 21.2359H49.5121C50.0133 21.2359 50.4219 21.6409 50.4219 22.142V32.8656C50.4219 33.3702 50.0133 33.7752 49.5121 33.7752H38.7886C38.2874 33.7752 37.879 33.3702 37.879 32.8656V22.142C37.8791 21.6409 38.2875 21.2359 38.7886 21.2359ZM48.6059 23.0517H39.6983V31.9594H48.6059V23.0517ZM22.6827 36.5867H33.4063C33.9109 36.5867 34.3159 36.9951 34.3159 37.4963V48.2198C34.3159 48.721 33.9109 49.1294 33.4063 49.1294H22.6827C22.1815 49.1294 21.7765 48.721 21.7765 48.2198V37.4963C21.7765 36.9951 22.1816 36.5867 22.6827 36.5867ZM32.5001 38.4059H23.5925V47.3136H32.5001V38.4059ZM22.6827 21.2359H33.4063C33.9109 21.2359 34.3159 21.6409 34.3159 22.142V32.8656C34.3159 33.3702 33.9109 33.7752 33.4063 33.7752H22.6827C22.1815 33.7752 21.7765 33.3702 21.7765 32.8656V22.142C21.7765 21.6409 22.1816 21.2359 22.6827 21.2359ZM32.5001 23.0517H23.5925V31.9594H32.5001V23.0517ZM6.57684 36.5867H17.3037C17.8049 36.5867 18.21 36.9951 18.21 37.4963V48.2198C18.21 48.721 17.8049 49.1294 17.3037 49.1294H6.57684C6.07564 49.1294 5.6707 48.721 5.6707 48.2198V37.4963C5.6707 36.9951 6.07576 36.5867 6.57684 36.5867ZM16.3942 38.4059H7.4865V47.3136H16.3942V38.4059ZM6.57684 21.2359H17.3037C17.8049 21.2359 18.21 21.6409 18.21 22.142V32.8656C18.21 33.3702 17.8049 33.7752 17.3037 33.7752H6.57684C6.07564 33.7752 5.6707 33.3702 5.6707 32.8656V22.142C5.6707 21.6409 6.07576 21.2359 6.57684 21.2359ZM16.3942 23.0517H7.4865V31.9594H16.3942V23.0517ZM46.9926 2.30842C46.6665 2.30842 46.3678 2.44222 46.1515 2.6585C45.9353 2.87477 45.8014 3.17012 45.8014 3.4961V6.34871V9.20131C45.8014 9.5273 45.9352 9.82592 46.1515 10.0422C46.3678 10.2585 46.6665 10.3924 46.9926 10.3924C47.3186 10.3924 47.6139 10.2586 47.8301 10.0422C48.0464 9.82592 48.1803 9.5273 48.1803 9.20131V6.34871V3.4961C48.1803 3.17012 48.0465 2.87477 47.8301 2.6585C47.6139 2.44235 47.3187 2.30842 46.9926 2.30842ZM9.94095 2.63113C9.72468 2.41498 9.42606 2.28105 9.09995 2.28105C8.77397 2.28105 8.47523 2.41486 8.25896 2.63113C8.04268 2.8474 7.90887 3.14602 7.90887 3.47213V6.34871V9.17722C7.90887 9.50332 8.04268 9.80194 8.25896 10.0182C8.47523 10.2344 8.77397 10.3683 9.09995 10.3683C9.42606 10.3683 9.72468 10.2345 9.94095 10.0182C10.1572 9.80194 10.291 9.50332 10.291 9.17722V6.34871V3.47213C10.291 3.1459 10.1571 2.8474 9.94095 2.63113ZM21.732 2.28105C21.4024 2.28105 21.1072 2.41486 20.891 2.63113C20.6747 2.8474 20.5409 3.14602 20.5409 3.47213V6.34871V9.17722C20.5409 9.50332 20.6747 9.80194 20.891 10.0182C21.1072 10.2344 21.4025 10.3683 21.732 10.3683C22.058 10.3683 22.3532 10.2345 22.5695 10.0182C22.7857 9.80194 22.9197 9.50332 22.9197 9.17722V6.34871V3.47213C22.9197 3.14602 22.7858 2.8474 22.5695 2.63113C22.3532 2.41486 22.058 2.28105 21.732 2.28105ZM34.3605 2.28105C34.0345 2.28105 33.7358 2.41486 33.5196 2.63113C33.3033 2.8474 33.1694 3.14602 33.1694 3.47213V6.34871V9.17722C33.1694 9.50332 33.3032 9.80194 33.5196 10.0182C33.7358 10.2344 34.0345 10.3683 34.3605 10.3683C34.6866 10.3683 34.9852 10.2345 35.2015 10.0182C35.4177 9.80194 35.5517 9.50332 35.5517 9.17722V6.34871V3.47213C35.5517 3.14602 35.4179 2.8474 35.2015 2.63113C34.9852 2.41486 34.6866 2.28105 34.3605 2.28105Z" fill="#E66D53"/>
</g>
<defs>
<clipPath id="clip0">
<rect width="62" height="62" fill="white"/>
</clipPath>
</defs>
</svg>
