<svg width="94" height="94" viewBox="0 0 94 94" fill="none" xmlns="http://www.w3.org/2000/svg">
<path d="M59.5196 50.9583C59.2762 50.9583 59.0427 51.055 58.8705 51.2271C58.6984 51.3993 58.6017 51.6328 58.6017 51.8763V58.0648H54.9628C54.7538 58.0647 54.5509 58.136 54.3879 58.2669C54.2248 58.3978 54.1113 58.5804 54.0662 58.7845C53.6758 60.5474 52.9778 62.2277 52.004 63.7482C51.8915 63.9243 51.8425 64.1337 51.8653 64.3415C51.888 64.5493 51.981 64.7431 52.1289 64.8908L54.7065 67.4685L50.9796 71.1955L48.4027 68.6178C48.2549 68.47 48.0611 68.3771 47.8533 68.3544C47.6455 68.3317 47.4362 68.3806 47.26 68.493C45.7394 69.4665 44.0591 70.1645 42.2963 70.5551C42.0922 70.6002 41.9096 70.7137 41.7787 70.8768C41.6478 71.0398 41.5766 71.2427 41.5766 71.4517V75.0906H36.3053V71.4547C36.3054 71.2456 36.2341 71.0428 36.1032 70.8797C35.9724 70.7167 35.7898 70.6032 35.5856 70.558C33.8231 70.1664 32.1434 69.4673 30.6234 68.493C30.4472 68.3806 30.2379 68.3317 30.0301 68.3544C29.8224 68.3771 29.6286 68.47 29.4808 68.6178L26.9038 71.1947L23.1769 67.4678L25.7545 64.8901C25.9024 64.7424 25.9955 64.5486 26.0182 64.3407C26.0409 64.1329 25.9919 63.9236 25.8794 63.7474C24.9056 62.2269 24.2075 60.5467 23.8172 58.7838C23.7721 58.5796 23.6586 58.397 23.4955 58.2662C23.3325 58.1353 23.1297 58.064 22.9206 58.0641H19.2803V52.7942H22.9191C23.1282 52.7943 23.331 52.723 23.4941 52.5921C23.6571 52.4613 23.7706 52.2787 23.8158 52.0745C24.206 50.3116 24.9041 48.6314 25.8779 47.1109C25.9903 46.9347 26.0392 46.7254 26.0165 46.5176C25.9938 46.3098 25.9009 46.116 25.7531 45.9682L23.1761 43.3913L26.9031 39.6643L29.48 42.2413C29.6277 42.3892 29.8216 42.4822 30.0294 42.5049C30.2372 42.5276 30.4465 42.4786 30.6227 42.3661C32.1432 41.3924 33.8235 40.6943 35.5863 40.304C35.7905 40.2588 35.9731 40.1453 36.104 39.9823C36.2348 39.8192 36.3061 39.6164 36.306 39.4073V35.7685H42.4946C42.7381 35.7685 42.9716 35.6718 43.1437 35.4996C43.3159 35.3274 43.4126 35.094 43.4126 34.8505C43.4126 34.607 43.3159 34.3736 43.1437 34.2014C42.9716 34.0292 42.7381 33.9325 42.4946 33.9325H35.3873C35.1439 33.9325 34.9104 34.0292 34.7382 34.2014C34.5661 34.3736 34.4694 34.607 34.4694 34.8505V38.6861C32.9971 39.0791 31.5837 39.6664 30.2665 40.4325L27.5493 37.7153C27.4641 37.63 27.3629 37.5624 27.2515 37.5162C27.1401 37.4701 27.0207 37.4463 26.9002 37.4463C26.7796 37.4463 26.6602 37.4701 26.5488 37.5162C26.4374 37.5624 26.3362 37.63 26.251 37.7153L21.2278 42.7406C21.1425 42.8258 21.0748 42.927 21.0286 43.0384C20.9824 43.1498 20.9586 43.2692 20.9586 43.3898C20.9586 43.5104 20.9824 43.6298 21.0286 43.7412C21.0748 43.8526 21.1425 43.9538 21.2278 44.039L23.945 46.7562C23.1789 48.0731 22.5916 49.4862 22.1987 50.9583H18.3594C18.1159 50.9583 17.8824 51.055 17.7103 51.2271C17.5381 51.3993 17.4414 51.6328 17.4414 51.8763V58.9828C17.4416 59.2261 17.5384 59.4594 17.7105 59.6314C17.8827 59.8034 18.116 59.9 18.3594 59.9H22.195C22.5877 61.3723 23.1748 62.7856 23.9406 64.1029L21.2234 66.82C21.1381 66.9052 21.0704 67.0064 21.0242 67.1178C20.978 67.2292 20.9542 67.3486 20.9542 67.4692C20.9542 67.5898 20.978 67.7092 21.0242 67.8206C21.0704 67.932 21.1381 68.0332 21.2234 68.1184L26.2532 73.1437C26.3384 73.229 26.4396 73.2967 26.551 73.3428C26.6624 73.389 26.7818 73.4127 26.9024 73.4127C27.0229 73.4127 27.1423 73.389 27.2537 73.3428C27.3651 73.2967 27.4663 73.229 27.5515 73.1437L30.2687 70.4266C31.5858 71.1923 32.9989 71.7793 34.4708 72.1722V76.0078C34.4708 76.2513 34.5675 76.4848 34.7397 76.6569C34.9118 76.8291 35.1453 76.9258 35.3888 76.9258H42.4953C42.7388 76.9258 42.9723 76.8291 43.1444 76.6569C43.3166 76.4848 43.4133 76.2513 43.4133 76.0078V72.1722C44.8847 71.7792 46.2973 71.1921 47.6139 70.4266L50.3311 73.1437C50.5033 73.3157 50.7366 73.4123 50.9799 73.4123C51.2233 73.4123 51.4566 73.3157 51.6288 73.1437L56.6541 68.1192C56.7394 68.0339 56.807 67.9327 56.8532 67.8213C56.8993 67.7099 56.923 67.5905 56.923 67.47C56.923 67.3494 56.8993 67.23 56.8532 67.1186C56.807 67.0072 56.7394 66.906 56.6541 66.8208L53.9369 64.1036C54.703 62.7864 55.2903 61.373 55.6833 59.9008H59.5189C59.7624 59.9008 59.9958 59.8041 60.168 59.6319C60.3401 59.4597 60.4369 59.2263 60.4369 58.9828V51.8763C60.4369 51.6329 60.3402 51.3995 60.1683 51.2274C59.9963 51.0553 59.763 50.9585 59.5196 50.9583Z" fill="#E66D53"/>
<path d="M29.3067 55.4292C29.3067 57.3346 29.8717 59.1973 30.9304 60.7817C31.989 62.366 33.4937 63.6009 35.2541 64.3301C37.0145 65.0593 38.9516 65.25 40.8205 64.8783C42.6894 64.5066 44.406 63.589 45.7534 62.2416C47.1008 60.8942 48.0184 59.1776 48.3901 57.3087C48.7618 55.4398 48.5711 53.5027 47.8419 51.7423C47.1127 49.9818 45.8778 48.4772 44.2935 47.4186C42.7091 46.3599 40.8464 45.7949 38.941 45.7949C36.3867 45.7978 33.9379 46.8138 32.1317 48.6199C30.3256 50.4261 29.3096 52.8749 29.3067 55.4292ZM38.941 47.6308C40.4833 47.6308 41.9911 48.0882 43.2735 48.9451C44.5559 49.802 45.5554 51.0199 46.1457 52.4449C46.7359 53.8698 46.8903 55.4378 46.5894 56.9505C46.2885 58.4633 45.5458 59.8528 44.4552 60.9434C43.3646 62.034 41.9751 62.7767 40.4623 63.0776C38.9496 63.3785 37.3816 63.2241 35.9567 62.6339C34.5317 62.0436 33.3138 61.0441 32.4569 59.7617C31.6 58.4792 31.1426 56.9715 31.1426 55.4292C31.145 53.3616 31.9673 51.3794 33.4293 49.9175C34.8913 48.4555 36.8734 47.6332 38.941 47.6308Z" fill="#E66D53"/>
<path d="M76.4829 37.2703C76.4361 37.1592 76.3678 37.0584 76.282 36.9738C76.1962 36.8891 76.0945 36.8222 75.9828 36.7768L73.3126 35.6906C73.4404 34.5765 73.4312 33.4509 73.2855 32.3389L75.9454 31.2153C76.0564 31.1684 76.1571 31.1001 76.2418 31.0143C76.3264 30.9284 76.3933 30.8267 76.4387 30.715C76.484 30.6033 76.5069 30.4838 76.5061 30.3632C76.5052 30.2427 76.4807 30.1235 76.4337 30.0124L74.2497 24.841C74.2028 24.7299 74.1345 24.6292 74.0486 24.5445C73.9628 24.4599 73.8611 24.393 73.7494 24.3476C73.6377 24.3023 73.5182 24.2794 73.3976 24.2802C73.277 24.2811 73.1578 24.3057 73.0468 24.3526L70.3869 25.4755C69.6912 24.5965 68.8906 23.8058 68.0031 23.1211L69.0878 20.4501C69.1793 20.2246 69.1774 19.9719 69.0827 19.7477C68.9879 19.5235 68.808 19.3462 68.5825 19.2546L63.381 17.1425C63.1554 17.0514 62.9029 17.0535 62.6788 17.1482C62.4547 17.2429 62.2773 17.4225 62.1854 17.6478L61.1 20.318C59.9858 20.1908 58.8603 20.1999 57.7483 20.3451L56.6247 17.6852C56.5779 17.5741 56.5096 17.4733 56.4238 17.3886C56.3379 17.3039 56.2362 17.237 56.1245 17.1916C56.0128 17.1463 55.8932 17.1234 55.7726 17.1243C55.6521 17.1252 55.5328 17.1498 55.4218 17.1969L50.2503 19.3809C50.1393 19.4278 50.0386 19.4961 49.9539 19.582C49.8693 19.6678 49.8024 19.7695 49.757 19.8812C49.7117 19.9929 49.6888 20.1124 49.6896 20.233C49.6905 20.3535 49.715 20.4727 49.762 20.5838L50.8848 23.2437C50.0055 23.9401 49.2146 24.7413 48.5297 25.6297L45.8588 24.5443C45.6332 24.4528 45.3806 24.4546 45.1564 24.5494C44.9322 24.6441 44.7548 24.824 44.6632 25.0495L42.5504 30.2489C42.4589 30.4744 42.4608 30.7271 42.5555 30.9513C42.6502 31.1755 42.8302 31.3529 43.0557 31.4445L45.7266 32.5291C45.5989 33.6433 45.608 34.7689 45.7538 35.8808L43.0938 37.0044C42.9828 37.0513 42.8821 37.1197 42.7974 37.2055C42.7128 37.2913 42.6459 37.393 42.6005 37.5047C42.5552 37.6164 42.5323 37.736 42.5331 37.8565C42.534 37.9771 42.5586 38.0963 42.6055 38.2073L44.7895 43.3788C44.8364 43.4898 44.9048 43.5906 44.9906 43.6752C45.0764 43.7599 45.1781 43.8268 45.2898 43.8721C45.4015 43.9175 45.5211 43.9404 45.6416 43.9395C45.7622 43.9387 45.8814 43.9141 45.9924 43.8672L48.6523 42.7406C49.3486 43.6216 50.1501 44.4141 51.039 45.1002L49.9514 47.7711C49.8599 47.9966 49.8618 48.2493 49.9565 48.4735C50.0513 48.6977 50.2312 48.8751 50.4567 48.9667L55.6583 51.0787C55.8838 51.1702 56.1365 51.1684 56.3607 51.0736C56.5849 50.9789 56.7622 50.799 56.8538 50.5735L57.9385 47.9025C59.0527 48.0303 60.1782 48.0211 61.2902 47.8754L62.4138 50.5353C62.4606 50.6464 62.5289 50.7472 62.6147 50.8319C62.7006 50.9166 62.8022 50.9835 62.914 51.0289C63.0257 51.0742 63.1453 51.0971 63.2659 51.0962C63.3864 51.0953 63.5056 51.0707 63.6167 51.0236L68.7882 48.8396C68.8992 48.7927 68.9999 48.7244 69.0846 48.6385C69.1692 48.5527 69.2361 48.451 69.2815 48.3393C69.3268 48.2276 69.3497 48.1081 69.3489 47.9875C69.348 47.867 69.3234 47.7477 69.2765 47.6367L68.15 44.9775C69.0305 44.2821 69.8226 43.4815 70.5088 42.5937L73.1797 43.6784C73.2914 43.7238 73.4109 43.7468 73.5314 43.7459C73.652 43.7451 73.7712 43.7205 73.8822 43.6736C73.9933 43.6267 74.094 43.5583 74.1786 43.4725C74.2632 43.3866 74.33 43.2849 74.3753 43.1732L76.4873 37.9716C76.5787 37.7464 76.5771 37.4943 76.4829 37.2703ZM73.0196 41.6325L70.5352 40.6234C70.3416 40.5444 70.1267 40.5341 69.9263 40.594C69.7259 40.654 69.5521 40.7807 69.4337 40.9532C68.6368 42.1088 67.6424 43.1149 66.4962 43.9252C66.3256 44.0461 66.2014 44.2216 66.1442 44.4228C66.087 44.6239 66.1003 44.8386 66.1819 45.0311L67.2269 47.506L63.7467 48.9747L62.7017 46.4999C62.6198 46.3073 62.4747 46.1483 62.2903 46.0492C62.1059 45.9502 61.8933 45.9169 61.6875 45.955C60.3074 46.2117 58.8929 46.2231 57.5089 45.9888C57.3028 45.9541 57.091 45.9906 56.9084 46.0923C56.7258 46.194 56.5833 46.3548 56.5043 46.5484L55.4952 49.0327L51.9952 47.611L53.0042 45.1266C53.083 44.9329 53.0932 44.7181 53.0332 44.5178C52.9733 44.3175 52.8467 44.1437 52.6745 44.025C51.519 43.2281 50.5129 42.2337 49.7025 41.0875C49.5816 40.9169 49.406 40.7928 49.2049 40.7356C49.0037 40.6784 48.7891 40.6917 48.5965 40.7732L46.1217 41.8182L44.6529 38.338L47.1278 37.293C47.3204 37.2117 47.4794 37.0671 47.5786 36.883C47.6779 36.699 47.7113 36.4867 47.6734 36.2811C47.4165 34.901 47.4051 33.4865 47.6396 32.1025C47.6747 31.8963 47.6384 31.6844 47.5366 31.5017C47.4349 31.319 47.2738 31.1765 47.08 31.0978L44.5956 30.0888L46.0174 26.588L48.5018 27.5978C48.6955 27.6768 48.9103 27.6872 49.1107 27.6272C49.3111 27.5672 49.4849 27.4405 49.6033 27.2681C50.4003 26.1125 51.3947 25.1064 52.5408 24.2961C52.7115 24.1752 52.8356 23.9996 52.8928 23.7984C52.95 23.5973 52.9367 23.3827 52.8552 23.1901L51.8101 20.7152L55.2903 19.2465L56.3354 21.7213C56.4167 21.9139 56.5613 22.073 56.7453 22.1722C56.9294 22.2714 57.1417 22.3049 57.3473 22.267C58.7272 22.0104 60.1415 21.9992 61.5252 22.2339C61.7314 22.2693 61.9434 22.2331 62.1262 22.1313C62.3089 22.0295 62.4514 21.8683 62.5298 21.6743L63.5388 19.19L67.0396 20.6117L66.0306 23.0961C65.9519 23.2898 65.9416 23.5046 66.0016 23.7049C66.0616 23.9052 66.1881 24.079 66.3603 24.1977C67.516 24.9945 68.522 25.9889 69.3323 27.1352C69.4532 27.3058 69.6288 27.4299 69.8299 27.4871C70.0311 27.5443 70.2457 27.531 70.4383 27.4495L72.9131 26.4045L74.3819 29.8847L71.907 30.9297C71.7145 31.011 71.5554 31.1556 71.4562 31.3397C71.357 31.5237 71.3235 31.736 71.3614 31.9416C71.6182 33.3217 71.6294 34.7363 71.3944 36.1202C71.3593 36.3264 71.3957 36.5383 71.4974 36.721C71.5992 36.9037 71.7603 37.0462 71.954 37.1249L74.4384 38.1339L73.0196 41.6325Z" fill="#E66D53"/>
<path d="M62.4556 26.8781C62.2312 26.7923 61.9821 26.7978 61.7618 26.8936C61.5415 26.9893 61.3674 27.1677 61.2771 27.3903C61.1867 27.6129 61.1872 27.8621 61.2785 28.0843C61.3698 28.3065 61.5446 28.4841 61.7653 28.5789C63.0632 29.1062 64.1343 30.0731 64.791 31.3105C65.4477 32.548 65.6482 33.9769 65.3574 35.3473C65.0666 36.7177 64.3031 37.9421 63.2004 38.8061C62.0977 39.6702 60.7263 40.1189 59.3261 40.0736C57.926 40.0282 56.5864 39.4919 55.5419 38.5583C54.4974 37.6248 53.8146 36.3535 53.613 34.9672C53.4114 33.5809 53.7039 32.1679 54.4393 30.9756C55.1746 29.7832 56.306 28.8875 57.6352 28.4453C57.8662 28.3684 58.0572 28.2028 58.1661 27.9851C58.2751 27.7673 58.293 27.5152 58.2161 27.2842C58.1392 27.0532 57.9736 26.8623 57.7559 26.7533C57.5381 26.6444 57.2861 26.6264 57.0551 26.7033C55.317 27.2818 53.8378 28.4532 52.8764 30.0125C51.9151 31.5718 51.5329 33.4196 51.7967 35.2323C52.0605 37.045 52.9536 38.7071 54.3196 39.9277C55.6855 41.1482 57.4373 41.8494 59.2681 41.9084C61.099 41.9674 62.8923 41.3805 64.334 40.2504C65.7757 39.1203 66.7739 37.5192 67.1539 35.7272C67.5339 33.9352 67.2715 32.0667 66.4125 30.4487C65.5536 28.8308 64.1529 27.5666 62.4556 26.8774V26.8781Z" fill="#E66D53"/>
</svg>
