<svg width="26" height="40" viewBox="0 0 26 40" fill="none" xmlns="http://www.w3.org/2000/svg">
<path d="M20.3435 24.0103C20.8628 23.5061 21.3058 22.9265 21.6562 22.2895H22.0373C23.875 22.2895 25.3701 20.7945 25.3701 18.9568V10.4379C25.3701 9.13922 25.1343 7.87187 24.6692 6.67125C23.9172 4.72836 22.6132 3.06891 20.8984 1.87227C19.1429 0.6475 17.0795 0 14.9312 0H11.0678C8.91943 0 6.85592 0.647656 5.10021 1.87281C3.39529 3.06273 2.09678 4.70977 1.34318 6.63789C1.3381 6.6493 1.33326 6.66086 1.32865 6.67258C0.864355 7.87406 0.628886 9.14078 0.628886 10.4379V17.5902C0.628886 18.6245 1.47029 19.4659 2.50459 19.4659H2.95717C3.13334 19.4659 3.30318 19.4397 3.46506 19.3941C3.61537 21.157 4.39623 22.792 5.65396 24.011C2.33881 25.4092 0.117401 28.678 0.117401 32.363V39.3023C0.117401 39.6876 0.429745 39.9999 0.814979 39.9999H25.1848C25.5702 39.9999 25.8824 39.6876 25.8824 39.3023V32.363C25.8825 28.6773 23.6598 25.408 20.3435 24.0103ZM22.2494 20.8822C22.3962 20.3981 22.4918 19.9012 22.5346 19.3945C22.6962 19.4399 22.8657 19.466 23.0416 19.466H23.4942C23.64 19.466 23.7812 19.4477 23.9174 19.4161C23.7269 20.1963 23.0643 20.793 22.2494 20.8822ZM23.9747 13.6866V17.5902C23.9747 17.8552 23.7592 18.0707 23.4942 18.0707H23.0416C22.7766 18.0707 22.5611 17.8551 22.5611 17.5902V13.4608C22.5611 13.1958 22.7766 12.9802 23.0416 12.9802H23.4942C23.7592 12.9802 23.9747 13.1958 23.9747 13.4608V13.6866ZM3.43787 17.5902C3.43787 17.8552 3.22225 18.0707 2.95725 18.0707H2.50467C2.23967 18.0707 2.02412 17.8551 2.02412 17.5902V13.6866V13.4608C2.02412 13.1958 2.23967 12.9802 2.50467 12.9802H2.95725C3.22225 12.9802 3.43787 13.1958 3.43787 13.4608V17.5902ZM3.43787 10.7384V11.6498C3.2842 11.609 3.12365 11.5851 2.95725 11.5851H2.50467C2.33834 11.5851 2.17779 11.609 2.02412 11.6498V10.438C2.02412 9.32516 2.22381 8.23867 2.61771 7.20781C2.6224 7.19727 2.62685 7.18664 2.631 7.17578C3.28201 5.49266 4.41193 4.05461 5.89857 3.01711C7.41896 1.95602 9.20639 1.39523 11.0676 1.39523H14.931C16.7923 1.39523 18.5797 1.95594 20.0997 3.01656C21.5862 4.05383 22.7163 5.4918 23.3679 7.17508C23.7705 8.21453 23.9746 9.31227 23.9746 10.438V11.6498C23.8209 11.609 23.6604 11.5851 23.494 11.5851H23.0415C22.8751 11.5851 22.7146 11.609 22.5609 11.6498V10.7384C22.5609 6.26867 18.9245 2.63227 14.4548 2.63227H11.5438C7.07428 2.63219 3.43787 6.26859 3.43787 10.7384ZM4.83311 10.7384C4.83311 7.03805 7.84365 4.0275 11.544 4.0275H14.4551C18.1555 4.0275 21.166 7.03805 21.166 10.7384V12.9141L18.0426 8.54211C17.8937 8.33367 17.6426 8.22344 17.3882 8.25547C17.134 8.28734 16.9176 8.45609 16.8248 8.69492C16.2011 10.2998 15.1202 11.6619 13.6992 12.6342C12.2782 13.6063 10.6171 14.1202 8.89529 14.1202H4.83326V10.7384H4.83311ZM4.83311 18.7684V17.5902V15.5152H8.89514C10.8992 15.5152 12.8328 14.9171 14.4869 13.7856C15.7969 12.8895 16.8584 11.7086 17.6041 10.3284L21.166 15.3142V17.5903V18.7684C21.166 19.5035 21.0313 20.2165 20.769 20.8945H15.7088C15.3234 20.8945 15.0112 21.2068 15.0112 21.592C15.0112 21.9773 15.3235 22.2896 15.7088 22.2896H20.0025C19.5999 22.8324 19.1059 23.3049 18.5397 23.6834C18.1126 23.9686 17.6483 24.1977 17.1593 24.3643C17.1534 24.3662 17.1475 24.368 17.1417 24.37L13.9016 25.4608C13.3223 25.6559 12.6786 25.6559 12.0976 25.4608L8.85787 24.37C8.36154 24.2029 7.89115 23.9718 7.45959 23.6833C5.8149 22.5848 4.83311 20.7475 4.83311 18.7684ZM17.453 29.6273L13.6976 27.6059V26.9452C13.9176 26.9084 14.1345 26.8545 14.3467 26.783L16.8164 25.9515L17.453 29.6273ZM12.3022 26.9453V27.6059L8.54615 29.6273L9.18334 25.952L11.6526 26.7833C11.8651 26.8547 12.0822 26.9086 12.3022 26.9453ZM12.3022 38.6048H1.51256V32.3632C1.51264 28.9688 3.73896 25.9908 6.96225 25.0191C7.24678 25.1912 7.54334 25.3437 7.84982 25.4758L6.92646 30.8017C6.88092 31.0648 6.98936 31.3308 7.206 31.4869C7.32709 31.5742 7.47014 31.6186 7.61397 31.6186C7.72717 31.6186 7.84076 31.5911 7.94436 31.5353L9.73951 30.5694L12.3022 33.1314V38.6048ZM11.0225 29.879L13 28.8149L14.9769 29.8789L12.9999 31.8559L11.0225 29.879ZM24.4872 38.6048H13.6976V33.1312L16.2596 30.5691L18.0546 31.5352C18.1581 31.5909 18.2718 31.6184 18.385 31.6184C18.5287 31.6184 18.6718 31.5741 18.7929 31.4868C19.0095 31.3307 19.118 31.0648 19.0725 30.8017L18.15 25.4754C18.4559 25.3434 18.7522 25.1909 19.0367 25.019C22.2606 25.9905 24.4873 28.9685 24.4873 32.363V38.6048H24.4872Z" fill="white"/>
</svg>
