<svg width="20" height="16" viewBox="0 0 20 16" fill="none" xmlns="http://www.w3.org/2000/svg">
<path d="M16.875 0H3.12501C1.40183 0 0 1.40183 0 3.12501V12.3438C0 14.067 1.40183 15.4688 3.12501 15.4688H16.875C17.8336 15.4688 18.7258 15.038 19.3227 14.2867C19.5382 14.0154 19.5815 13.5506 19.2379 13.2234L19.199 13.1867C19.1677 13.1574 19.1219 13.1145 19.0635 13.06C18.9481 12.9524 18.7831 12.7988 18.5849 12.6148C18.1894 12.2472 17.6619 11.7574 17.1341 11.2677C16.079 10.2886 15.0234 9.30986 15.0234 9.30986C14.7069 9.01659 14.2127 9.03521 13.9192 9.35167C13.626 9.66814 13.6446 10.1624 13.9611 10.4558C15.105 11.5163 16.6642 12.9625 17.527 13.7647C17.3256 13.857 17.1041 13.9063 16.875 13.9063H3.12501C2.89307 13.9063 2.67289 13.855 2.47468 13.7639L6.03929 10.4555C6.3556 10.1619 6.37391 9.66768 6.08049 9.35137C5.78691 9.03505 5.29252 9.01674 4.97636 9.31017L1.5683 12.4735C1.56479 12.4306 1.5625 12.3874 1.5625 12.3438V3.12501C1.5625 3.07908 1.56494 3.03376 1.56876 2.9889L7.47636 8.42638C7.62056 8.55913 7.80931 8.63283 8.00539 8.63283H11.995C12.191 8.63283 12.3798 8.55913 12.524 8.42653L18.4313 2.99027C18.4351 3.03483 18.4375 3.07954 18.4375 3.12501V9.21877C18.4375 9.65029 18.7873 10 19.2188 10C19.6503 10 20 9.65029 20 9.21877V3.12501C20 1.40183 18.5982 0 16.875 0ZM11.6902 7.07033H8.31026L2.4788 1.70288C2.67594 1.61301 2.8946 1.5625 3.12501 1.5625H16.875C17.1059 1.5625 17.3249 1.61316 17.5223 1.70349L11.6902 7.07033Z" fill="black"/>
</svg>
