<svg width="346" height="431" viewBox="0 0 346 431" fill="none" xmlns="http://www.w3.org/2000/svg">
<path d="M71.8594 24.5645C71.8594 21.7118 69.5382 19.3906 66.6855 19.3906C65.3042 19.3906 64.0039 19.929 63.0275 20.9065L59.6467 24.2873L55.8906 28.0434V17.0181C59.7539 16.4615 62.7344 13.1389 62.7344 9.125C62.7344 4.72219 59.1528 1.14062 54.75 1.14062H9.125C4.72219 1.14062 1.14062 4.72219 1.14062 9.125V66.1562C1.14062 66.7859 1.65163 67.2969 2.28125 67.2969H7.98438V70.7188C7.98438 71.3484 8.49538 71.8594 9.125 71.8594H54.75C55.3796 71.8594 55.8906 71.3484 55.8906 70.7188V42.6753L66.9627 31.6033L68.1341 30.4319C67.5433 33.3747 66.1026 36.0802 63.9332 38.2509L58.5072 43.6768L60.1201 45.2897L65.546 39.8637C68.7831 36.6266 70.5933 32.3515 70.6994 27.7902C71.4373 26.8754 71.8594 25.7576 71.8594 24.5645V24.5645ZM64.6404 22.5194C65.1867 21.973 65.9133 21.6719 66.6855 21.6719C68.2801 21.6719 69.5781 22.9699 69.5781 24.5645C69.5781 25.3367 69.277 26.0633 68.7306 26.6096L66.1562 29.184L62.066 25.0938L64.6404 22.5194ZM60.4531 26.7066L61.6918 27.9453L47.3359 42.3012L46.0972 41.0625L60.4531 26.7066ZM33.3256 56.8065L35.6719 52.1129L39.1371 55.5781L34.4435 57.9244L33.3256 56.8065ZM36.9722 50.1875L44.4844 42.6753L48.5747 46.7656L41.0625 54.2778L36.9722 50.1875ZM54.75 3.42188C57.8947 3.42188 60.4531 5.9803 60.4531 9.125C60.4531 12.2697 57.8947 14.8281 54.75 14.8281H14.7027C16.1855 13.3773 17.1094 11.3583 17.1094 9.125C17.1094 6.89166 16.1855 4.87275 14.7027 3.42188H54.75ZM10.2656 14.7129V11.4062C10.2656 10.7778 10.7778 10.2656 11.4062 10.2656H14.7129C14.2578 12.4967 12.4967 14.2578 10.2656 14.7129V14.7129ZM3.42188 65.0156V9.125C3.42188 5.9803 5.9803 3.42188 9.125 3.42188C11.8785 3.42188 14.1825 5.38489 14.7129 7.98438H11.4062C9.51966 7.98438 7.98438 9.51966 7.98438 11.4062V65.0156H3.42188ZM53.6094 69.5781H10.2656V17.1094H53.6094V30.3247L48.5747 35.3594H14.8281V37.6406H46.2934L44.0122 39.9219H14.8281V42.2031H41.7309L34.553 49.3811C34.464 49.47 34.4058 49.5761 34.3522 49.6833L34.3397 49.6765L30.9178 56.5202C30.6988 56.9594 30.7843 57.4898 31.1322 57.8365L31.4653 58.1719L28.8498 60.7873L30.4627 62.4002L33.0781 59.7847L33.4123 60.1189C33.6313 60.3379 33.9233 60.4531 34.2188 60.4531C34.391 60.4531 34.5666 60.4132 34.7286 60.3334L41.5724 56.9115L41.5655 56.8989C41.6727 56.8453 41.7788 56.7872 41.8678 56.6982L50.9928 47.5732L53.6094 44.9566V69.5781ZM50.1875 45.1528L48.9488 43.9141L63.3047 29.5582L64.5434 30.7969L50.1875 45.1528Z" fill="black"/>
<path d="M14.8281 21.6719H49.0469V23.9531H14.8281V21.6719Z" fill="black"/>
<path d="M14.8281 26.2344H49.0469V28.5156H14.8281V26.2344Z" fill="black"/>
<path d="M14.8281 30.7969H49.0469V33.0781H14.8281V30.7969Z" fill="black"/>
<path d="M14.8281 58.1719H27.375V60.4531H14.8281V58.1719Z" fill="black"/>
<path d="M14.8281 62.7344H49.0469V65.0156H14.8281V62.7344Z" fill="black"/>
<path d="M38.3554 416.188L27.7085 399.729V386.5C27.7085 385.925 27.2421 385.458 26.6668 385.458H21.4585C20.8832 385.458 20.4168 385.925 20.4168 386.5V399.758L10.7096 416.261C10.2452 417.05 10.0003 417.949 10.0003 418.865C10.0002 421.701 12.2994 424 15.1355 424H34.1043C35.0792 424 36.0332 423.718 36.8519 423.189C39.2005 421.671 39.8736 418.536 38.3554 416.188ZM34.1043 421.917H15.1355C14.5895 421.918 14.0532 421.772 13.5826 421.495C12.1299 420.64 11.6452 418.77 12.5001 417.317L22.3564 400.57C22.4506 400.41 22.5002 400.228 22.5002 400.042V387.542H25.6252V400.042C25.6251 400.243 25.683 400.439 25.7919 400.608L36.6044 417.319C36.9163 417.801 37.0823 418.363 37.0825 418.937C37.083 420.582 35.7497 421.916 34.1043 421.917Z" fill="black"/>
<path d="M25.0054 404.284L23.2096 403.229L14.3648 418.263C14.2704 418.424 14.2207 418.607 14.2209 418.793C14.2215 419.368 14.6884 419.834 15.2637 419.833H22.5001V417.75H17.0835L25.0054 404.284Z" fill="black"/>
<path d="M57.4856 397.958H41.2502C38.949 397.958 37.0835 399.824 37.0835 402.125V418.792C37.0869 421.667 39.4168 423.997 42.2918 424H51.6668C54.5419 423.997 56.8717 421.667 56.8751 418.792V404.64L59.2647 402.251C59.7351 401.78 59.9993 401.141 59.9997 400.475C60.0006 399.086 58.8749 397.959 57.4856 397.958ZM57.7908 400.778L55.0971 403.472C54.9018 403.667 54.7919 403.932 54.7919 404.208V418.792C54.7919 420.518 53.3928 421.917 51.6669 421.917H42.2919C40.566 421.917 39.1669 420.518 39.1669 418.792V402.125C39.1669 400.975 40.0996 400.042 41.2502 400.042H57.4856C57.6003 400.042 57.7104 400.087 57.7914 400.168C57.9596 400.337 57.9594 400.61 57.7908 400.778Z" fill="black"/>
<path d="M50.6252 404.208V417.75H47.5002V419.833H51.6669C52.2422 419.833 52.7086 419.367 52.7086 418.792V404.208H50.6252Z" fill="black"/>
<path d="M39.1668 389.088V375.042C39.1668 374.466 38.7005 374 38.1252 374H30.8335C30.2582 374 29.7918 374.466 29.7918 375.042V389.383C28.5205 389.775 27.2976 390.308 26.146 390.974L27.1877 392.777C28.4115 392.071 29.7256 391.533 31.0939 391.18C31.5541 391.061 31.8756 390.646 31.8752 390.171V376.083H37.0835V389.928C37.0837 390.428 37.4392 390.858 37.9304 390.951C41.5829 391.649 44.8672 393.626 47.194 396.527L48.8179 395.223C46.3666 392.168 42.9731 390.011 39.1668 389.088Z" fill="black"/>
<path d="M54.271 388.583C52.2574 388.583 50.6252 390.216 50.6252 392.229C50.6252 394.243 52.2575 395.875 54.271 395.875C56.2846 395.875 57.9168 394.243 57.9168 392.229C57.9168 390.216 56.2846 388.583 54.271 388.583ZM54.271 393.792C53.408 393.792 52.7085 393.092 52.7085 392.229C52.7085 391.366 53.408 390.667 54.271 390.667C55.134 390.667 55.8335 391.366 55.8335 392.229C55.8335 393.092 55.134 393.792 54.271 393.792Z" fill="black"/>
<path d="M50.6252 381.292C48.8993 381.292 47.5002 382.691 47.5002 384.417C47.5002 386.142 48.8993 387.542 50.6252 387.542C52.3511 387.542 53.7502 386.142 53.7502 384.417C53.7502 382.691 52.3511 381.292 50.6252 381.292ZM50.6252 385.458C50.0499 385.458 49.5835 384.992 49.5835 384.416C49.5835 383.841 50.0499 383.375 50.6252 383.375C51.2005 383.375 51.6669 383.841 51.6669 384.417C51.6669 384.992 51.2005 385.458 50.6252 385.458Z" fill="black"/>
<path d="M13.646 382.333C11.6324 382.333 10.0002 383.966 10.0002 385.979C10.0002 387.993 11.6324 389.625 13.646 389.625C15.6596 389.625 17.2918 387.993 17.2918 385.979C17.2918 383.966 15.6596 382.333 13.646 382.333ZM13.646 387.542C12.783 387.542 12.0835 386.842 12.0835 385.979C12.0835 385.116 12.783 384.417 13.646 384.417C14.509 384.417 15.2085 385.116 15.2085 385.979C15.2085 386.842 14.509 387.542 13.646 387.542Z" fill="black"/>
<path d="M18.3335 375.042C16.6076 375.042 15.2085 376.441 15.2085 378.167C15.2085 379.892 16.6076 381.292 18.3335 381.292C20.0594 381.292 21.4585 379.892 21.4585 378.167C21.4585 376.441 20.0594 375.042 18.3335 375.042ZM18.3335 379.208C17.7582 379.208 17.2918 378.742 17.2918 378.166C17.2918 377.591 17.7582 377.125 18.3335 377.125C18.9088 377.125 19.3752 377.591 19.3752 378.167C19.3752 378.742 18.9088 379.208 18.3335 379.208Z" fill="black"/>
<path d="M44.3752 404.208H41.2502V406.292H44.3752V404.208Z" fill="black"/>
<path d="M43.3335 408.375H41.2502V410.458H43.3335V408.375Z" fill="black"/>
<path d="M44.3752 412.542H41.2502V414.625H44.3752V412.542Z" fill="black"/>
<path d="M43.3335 416.708H41.2502V418.792H43.3335V416.708Z" fill="black"/>
<path d="M14.1668 392.75H12.0835V394.833H14.1668V392.75Z" fill="black"/>
<path d="M17.2918 397.958H15.2085V400.042H17.2918V397.958Z" fill="black"/>
<path d="M35.0001 402.125H32.9168V404.208H35.0001V402.125Z" fill="black"/>
<path d="M32.9168 397.958H30.8335V400.042H32.9168V397.958Z" fill="black"/>
<path d="M31.8751 393.792H29.7918V395.875H31.8751V393.792Z" fill="black"/>
<path d="M32.9168 416.708H30.8335V418.792H32.9168V416.708Z" fill="black"/>
<path d="M29.7918 412.542H27.7085V414.625H29.7918V412.542Z" fill="black"/>
<g clip-path="url(#clip0)">
<path d="M48.3433 253.015C43.3348 253.015 38.7725 254.914 35.2982 258.009C34.6584 257.21 34.053 256.399 33.5134 255.575C33.5026 255.551 33.4987 255.524 33.4859 255.501C33.3139 255.18 32.9807 254.981 32.618 254.981H32.5866C32.2239 254.981 31.8986 255.192 31.7276 255.512C31.7227 255.52 31.7217 255.531 31.7168 255.541C29.2725 259.281 26.0046 262.54 22.256 264.967C18.5291 267.381 14.2411 269.029 9.85664 269.736C9.39373 269.81 9.04875 270.201 9.03008 270.669C8.8286 276.001 9.4753 286.485 16.0642 296.789C21.0324 304.559 27.4238 309.209 31.9684 311.763C32.1394 311.902 32.3546 311.985 32.5866 311.985H32.618C32.8451 311.985 33.0554 311.905 33.2225 311.77C37.7681 309.217 44.1663 304.566 49.1394 296.789C50.1026 295.282 50.9665 293.709 51.7754 292.008C60.9806 290.378 68 282.338 68 272.672C68 261.833 59.182 253.015 48.3433 253.015ZM47.4834 295.731C42.8532 302.971 36.9248 307.383 32.6013 309.864C28.2788 307.383 22.3504 302.971 17.7193 295.731C11.7319 286.366 10.8768 276.839 10.9731 271.537C15.3438 270.722 19.5975 269.029 23.3234 266.617C26.9235 264.285 30.1069 261.233 32.6023 257.733C33.0004 258.289 33.421 258.841 33.8603 259.384C33.6952 259.564 33.5498 259.757 33.3925 259.943C33.2746 260.082 33.1566 260.219 33.0426 260.361C32.7497 260.723 32.4745 261.095 32.2102 261.473C32.1256 261.595 32.0401 261.715 31.9576 261.839C31.7246 262.19 31.5055 262.548 31.2961 262.912C31.0848 262.991 30.9 263.134 30.7841 263.337C29.8032 265.041 27.9663 266.687 25.1259 268.956C21.3607 271.961 17.4048 273.179 14.7492 273.671C14.2981 273.755 13.9639 274.14 13.9462 274.599C13.7929 278.496 14.246 286.177 19.0078 293.831C23.0433 300.319 28.385 304.014 32.1532 305.972C32.1551 305.973 32.1561 305.972 32.1581 305.973C32.2908 306.04 32.4352 306.088 32.5935 306.088H32.618C32.7743 306.088 32.9158 306.04 33.0475 305.974C33.0515 305.972 33.0554 305.973 33.0583 305.971C36.8275 304.013 42.1672 300.319 46.2037 293.83C46.4996 293.354 46.7954 292.833 47.104 292.266C47.5158 292.291 47.9256 292.328 48.3433 292.328C48.705 292.328 49.0716 292.316 49.451 292.291C48.8377 293.494 48.1871 294.629 47.4834 295.731ZM28.784 274.6C28.7978 274.746 28.8243 274.887 28.842 275.033C28.901 275.535 28.9737 276.032 29.07 276.522C29.0936 276.64 29.1241 276.757 29.1506 276.876C29.2646 277.405 29.3973 277.925 29.5526 278.437C29.5703 278.496 29.5899 278.554 29.6086 278.613C31.3276 284.09 35.3611 288.528 40.6478 290.757C40.69 290.776 40.7333 290.792 40.7765 290.81C41.262 291.01 41.7574 291.192 42.2626 291.354C42.4237 291.407 42.5839 291.458 42.7471 291.506C43.1343 291.619 43.5265 291.719 43.9236 291.809C44.1761 291.867 44.4287 291.925 44.6852 291.975C44.7865 291.993 44.8838 292.022 44.985 292.039C44.8337 292.303 44.6852 292.552 44.5349 292.792C40.8925 298.647 36.1209 302.087 32.6053 303.987C29.0887 302.087 24.317 298.647 20.6756 292.792C16.4868 286.059 15.8382 279.3 15.8883 275.446C19.7223 274.612 23.3244 272.908 26.3515 270.492C27.4454 269.618 28.4017 268.827 29.2312 268.08C29.1997 268.211 29.1771 268.344 29.1486 268.476C29.1241 268.589 29.0946 268.699 29.072 268.813C29.0484 268.934 29.0238 269.055 29.0022 269.176C28.9206 269.626 28.8587 270.08 28.8086 270.536C28.8017 270.601 28.7919 270.664 28.786 270.729C28.7752 270.842 28.7703 270.957 28.7614 271.071C28.7172 271.602 28.6867 272.136 28.6867 272.672C28.6867 273.322 28.7231 273.965 28.784 274.6ZM50.9724 290.146C50.9714 290.146 50.9705 290.146 50.9685 290.146C50.5429 290.209 50.1508 290.256 49.7743 290.29C49.3016 290.328 48.8269 290.363 48.3433 290.363C47.7654 290.363 47.1944 290.33 46.6303 290.276C46.6303 290.276 46.6303 290.276 46.6293 290.276C46.2853 290.243 45.9501 290.182 45.6121 290.13C45.3673 290.091 45.1187 290.065 44.8769 290.017C44.6744 289.977 44.4788 289.919 44.2793 289.872C43.896 289.782 43.5117 289.693 43.1383 289.578C43.0596 289.555 42.9849 289.524 42.9073 289.499C37.4595 287.735 33.1556 283.401 31.4495 277.928C31.4495 277.927 31.4485 277.925 31.4485 277.924C31.2912 277.42 31.1634 276.904 31.0514 276.382C31.0386 276.319 31.02 276.259 31.0072 276.196C30.9109 275.722 30.843 275.238 30.786 274.751C30.7742 274.647 30.7526 274.546 30.7418 274.441C30.6838 273.86 30.6524 273.269 30.6524 272.672C30.6524 272.134 30.6858 271.603 30.733 271.078C30.7438 270.959 30.7526 270.839 30.7664 270.72C30.7693 270.691 30.7752 270.665 30.7792 270.636C30.8332 270.17 30.901 269.71 30.9905 269.256C31.017 269.123 31.0485 268.991 31.0779 268.858C31.1703 268.44 31.2755 268.026 31.3974 267.618C31.4239 267.529 31.4455 267.439 31.474 267.35C31.6254 266.869 31.8003 266.4 31.991 265.938C32.0303 265.841 32.0716 265.746 32.1138 265.649C34.8363 259.38 41.0832 254.981 48.3433 254.981C58.0979 254.981 66.0343 262.917 66.0343 272.672C66.0343 281.531 59.4818 288.869 50.9724 290.146Z" fill="black"/>
<path d="M48.3434 256.946C39.6728 256.946 32.6181 264.001 32.6181 272.672C32.6181 281.342 39.6728 288.397 48.3434 288.397C57.0139 288.397 64.0687 281.342 64.0687 272.672C64.0687 264.001 57.0139 256.946 48.3434 256.946ZM49.3262 286.381V284.466H47.3605V286.381C40.5584 285.898 35.1174 280.457 34.6339 273.654H36.5494V271.689H34.6339C35.1174 264.887 40.5584 259.446 47.3605 258.962V260.878H49.3262V258.962C56.1284 259.446 61.5693 264.887 62.0529 271.689H60.1374V273.654H62.0529C61.5693 280.457 56.1284 285.898 49.3262 286.381Z" fill="black"/>
<path d="M56.494 265.097L48.3434 273.248L44.1241 269.028L42.7343 270.418L47.6485 275.332C47.8402 275.524 48.0918 275.62 48.3434 275.62C48.595 275.62 48.8466 275.524 49.0382 275.332L57.8837 266.487L56.494 265.097Z" fill="black"/>
</g>
<path d="M218.996 156.763L222.283 153.475L215.326 146.518L212.038 149.805C210.891 149.171 209.677 148.676 208.418 148.313V143.752C211.596 142.042 213.338 139.234 213.338 135.786C213.338 131.631 210.702 127.907 206.779 126.518L205.468 126.053V134.092L203.5 134.749L201.532 134.092V126.053L200.22 126.518C196.297 127.907 193.661 131.631 193.661 135.786C193.661 139.234 195.403 142.042 198.581 143.752V148.313C197.322 148.677 196.108 149.171 194.961 149.805L191.673 146.518L184.716 153.475L188.003 156.763C187.368 157.911 186.866 159.123 186.503 160.382H181.855V170.221H186.503C186.867 171.481 187.368 172.693 188.003 173.841L184.716 177.129L191.673 184.086L194.961 180.799C196.109 181.433 197.321 181.936 198.581 182.299V186.947H208.419V182.299C209.679 181.935 210.891 181.433 212.039 180.799L215.327 184.086L222.284 177.129L218.997 173.841C219.632 172.693 220.134 171.481 220.497 170.221H225.145V160.382H220.497C220.133 159.123 219.632 157.911 218.996 156.763ZM195.629 135.786C195.629 132.951 197.165 130.367 199.565 128.978V135.511L203.5 136.823L207.436 135.511V128.978C209.835 130.367 211.371 132.951 211.371 135.786C211.371 138.671 209.865 140.91 207.014 142.259L206.452 142.525V158.415H208.419V156.776C211.449 158.513 213.339 161.72 213.339 165.302C213.339 168.934 211.355 172.105 208.419 173.809V160.382H206.452V174.687C205.519 174.981 204.528 175.141 203.5 175.141C202.472 175.141 201.481 174.981 200.548 174.687V142.525L199.986 142.259C197.135 140.91 195.629 138.671 195.629 135.786ZM223.177 168.253H218.966L218.784 169.006C218.402 170.589 217.777 172.097 216.926 173.488L216.522 174.149L219.502 177.128L215.327 181.302L212.348 178.322L211.687 178.727C210.296 179.578 208.788 180.203 207.205 180.585L206.452 180.768V184.979H200.548V180.768L199.796 180.586C198.213 180.204 196.704 179.579 195.314 178.728L194.653 178.323L191.674 181.303L187.499 177.129L190.479 174.15L190.075 173.489C189.224 172.097 188.599 170.59 188.217 169.007L188.034 168.253H183.823V162.35H188.034L188.216 161.598C188.598 160.014 189.223 158.506 190.074 157.116L190.478 156.455L187.498 153.476L191.673 149.301L194.652 152.281L195.313 151.877C196.343 151.246 197.438 150.741 198.58 150.367V154.574C194.376 156.495 191.693 160.631 191.693 165.303C191.693 171.813 196.989 177.109 203.499 177.109C210.009 177.109 215.305 171.813 215.305 165.303C215.305 160.63 212.622 156.494 208.418 154.574V150.367C209.56 150.742 210.655 151.247 211.685 151.877L212.346 152.281L215.325 149.301L219.5 153.476L216.52 156.455L216.924 157.116C217.775 158.507 218.4 160.014 218.782 161.598L218.966 162.35H223.177V168.253ZM198.581 156.777V173.809C195.645 172.105 193.661 168.934 193.661 165.302C193.661 161.721 195.551 158.514 198.581 156.777Z" fill="black"/>
<path d="M176.935 174.338V138.737C176.935 138.195 177.377 137.753 177.919 137.753H185.971C186.379 138.896 187.461 139.721 188.742 139.721C190.369 139.721 191.694 138.397 191.694 136.769C191.694 135.142 190.369 133.818 188.742 133.818C187.461 133.818 186.379 134.643 185.971 135.786H177.919C176.292 135.786 174.968 137.11 174.968 138.737V174.338C173.825 174.745 173 175.827 173 177.108C173 178.736 174.324 180.06 175.952 180.06C177.579 180.06 178.903 178.736 178.903 177.108C178.903 175.827 178.078 174.745 176.935 174.338ZM188.742 135.786C189.284 135.786 189.726 136.227 189.726 136.769C189.726 137.312 189.284 137.753 188.742 137.753C188.2 137.753 187.758 137.312 187.758 136.769C187.758 136.227 188.2 135.786 188.742 135.786ZM175.952 178.092C175.41 178.092 174.968 177.65 174.968 177.108C174.968 176.566 175.41 176.124 175.952 176.124C176.494 176.124 176.935 176.566 176.935 177.108C176.935 177.65 176.494 178.092 175.952 178.092Z" fill="black"/>
<path d="M180.871 139.721H178.903V141.689H180.871V139.721Z" fill="black"/>
<path d="M180.871 143.657H178.903V145.624H180.871V143.657Z" fill="black"/>
<path d="M180.871 147.592H178.903V149.56H180.871V147.592Z" fill="black"/>
<path d="M232.032 174.338V138.737C232.032 137.11 230.708 135.786 229.081 135.786H221.029C220.621 134.643 219.539 133.818 218.258 133.818C216.631 133.818 215.306 135.142 215.306 136.769C215.306 138.397 216.631 139.721 218.258 139.721C219.539 139.721 220.621 138.896 221.029 137.753H229.081C229.623 137.753 230.065 138.195 230.065 138.737V174.338C228.922 174.745 228.097 175.827 228.097 177.108C228.097 178.736 229.421 180.06 231.048 180.06C232.676 180.06 234 178.736 234 177.108C234 175.827 233.175 174.745 232.032 174.338ZM218.258 137.753C217.716 137.753 217.274 137.312 217.274 136.769C217.274 136.227 217.716 135.786 218.258 135.786C218.8 135.786 219.242 136.227 219.242 136.769C219.242 137.312 218.8 137.753 218.258 137.753ZM231.048 178.092C230.506 178.092 230.065 177.65 230.065 177.108C230.065 176.566 230.506 176.124 231.048 176.124C231.591 176.124 232.032 176.566 232.032 177.108C232.032 177.65 231.591 178.092 231.048 178.092Z" fill="black"/>
<path d="M228.097 139.721H226.129V141.689H228.097V139.721Z" fill="black"/>
<path d="M228.097 143.657H226.129V145.624H228.097V143.657Z" fill="black"/>
<path d="M228.097 147.592H226.129V149.56H228.097V147.592Z" fill="black"/>
<path d="M204.484 171.205H202.516V173.173H204.484V171.205Z" fill="black"/>
<path d="M204.484 167.27H202.516V169.237H204.484V167.27Z" fill="black"/>
<path d="M204.484 163.334H202.516V165.302H204.484V163.334Z" fill="black"/>
<path d="M29.6464 114.354C29.8417 114.549 30.1583 114.549 30.3536 114.354L33.5355 111.172C33.7308 110.976 33.7308 110.66 33.5355 110.464C33.3403 110.269 33.0237 110.269 32.8284 110.464L30 113.293L27.1716 110.464C26.9763 110.269 26.6597 110.269 26.4645 110.464C26.2692 110.66 26.2692 110.976 26.4645 111.172L29.6464 114.354ZM29.5 89L29.5 114L30.5 114L30.5 89L29.5 89Z" fill="black"/>
<path d="M102 88.0002L102 87.5002L102 88.0002ZM209.184 115.351C209.444 115.258 209.579 114.971 209.485 114.711L207.964 110.476C207.871 110.216 207.584 110.081 207.325 110.175C207.065 110.268 206.93 110.554 207.023 110.814L208.375 114.579L204.611 115.931C204.351 116.024 204.216 116.311 204.309 116.571C204.403 116.831 204.689 116.966 204.949 116.872L209.184 115.351ZM48.0002 88.0003C48.0003 88.5003 48.0003 88.5003 48.0004 88.5003C48.0004 88.5003 48.0004 88.5003 48.0005 88.5003C48.0006 88.5003 48.0008 88.5003 48.0011 88.5003C48.0016 88.5003 48.0024 88.5003 48.0034 88.5003C48.0055 88.5003 48.0088 88.5002 48.0133 88.5002C48.0224 88.5002 48.0367 88.5002 48.0574 88.5002C48.0989 88.5002 48.1663 88.5002 48.2698 88.5002C48.4768 88.5002 48.8284 88.5002 49.4065 88.5001C50.5627 88.5001 52.6252 88.5 56.2502 88.4999C63.5001 88.4998 77.0001 88.4998 102 88.5002L102 87.5002C77.0001 87.4998 63.5001 87.4998 56.2501 87.4999C52.6252 87.5 50.5627 87.5001 49.4064 87.5001C48.8283 87.5002 48.4767 87.5002 48.2697 87.5002C48.1662 87.5002 48.0988 87.5002 48.0573 87.5002C48.0365 87.5002 48.0222 87.5002 48.0131 87.5002C48.0086 87.5002 48.0053 87.5003 48.0032 87.5003C48.0022 87.5003 48.0014 87.5003 48.0009 87.5003C48.0006 87.5003 48.0004 87.5003 48.0003 87.5003C48.0002 87.5003 48.0002 87.5003 48.0002 87.5003C48.0001 87.5003 48.0001 87.5003 48.0002 88.0003ZM102 88.5002C126.922 88.5006 153.617 95.2022 174.102 101.916C184.34 105.271 193.017 108.627 199.135 111.143C202.193 112.401 204.612 113.449 206.265 114.182C207.091 114.549 207.726 114.837 208.154 115.033C208.368 115.131 208.53 115.206 208.639 115.257C208.693 115.282 208.734 115.301 208.761 115.314C208.775 115.32 208.785 115.325 208.792 115.328C208.795 115.33 208.798 115.331 208.799 115.332C208.8 115.332 208.801 115.332 208.801 115.332C208.801 115.333 208.802 115.333 209.015 114.88C209.228 114.428 209.228 114.428 209.227 114.428C209.227 114.428 209.226 114.427 209.225 114.427C209.223 114.426 209.221 114.425 209.217 114.423C209.21 114.42 209.199 114.415 209.185 114.408C209.157 114.395 209.116 114.376 209.061 114.35C208.95 114.299 208.786 114.223 208.571 114.124C208.139 113.926 207.5 113.637 206.67 113.268C205.01 112.532 202.583 111.48 199.515 110.218C193.38 107.694 184.679 104.33 174.413 100.965C153.89 94.2392 127.078 87.5006 102 87.5002L102 88.5002Z" fill="black"/>
<path d="M29.6464 235.354C29.8417 235.549 30.1583 235.549 30.3536 235.354L33.5355 232.172C33.7308 231.976 33.7308 231.66 33.5355 231.464C33.3403 231.269 33.0237 231.269 32.8284 231.464L30 234.293L27.1716 231.464C26.9763 231.269 26.6597 231.269 26.4645 231.464C26.2692 231.66 26.2692 231.976 26.4645 232.172L29.6464 235.354ZM30.5 235L30.5 201L29.5 201L29.5 235L30.5 235Z" fill="black"/>
<path d="M29.6464 357.354C29.8417 357.549 30.1583 357.549 30.3536 357.354L33.5355 354.172C33.7308 353.976 33.7308 353.66 33.5355 353.464C33.3403 353.269 33.0237 353.269 32.8284 353.464L30 356.293L27.1716 353.464C26.9763 353.269 26.6597 353.269 26.4645 353.464C26.2692 353.66 26.2692 353.976 26.4645 354.172L29.6464 357.354ZM30.5 357L30.5 323L29.5 323L29.5 357L30.5 357Z" fill="black"/>
<path d="M272.354 406.354C272.549 406.158 272.549 405.842 272.354 405.646L269.172 402.464C268.976 402.269 268.66 402.269 268.464 402.464C268.269 402.66 268.269 402.976 268.464 403.172L271.293 406L268.464 408.828C268.269 409.024 268.269 409.34 268.464 409.536C268.66 409.731 268.976 409.731 269.172 409.536L272.354 406.354ZM272 405.5H83V406.5H272V405.5Z" fill="black"/>
<g clip-path="url(#clip1)">
<path d="M333.539 421.945C333 421.945 332.561 421.508 332.561 420.969C332.561 420.429 332.997 419.992 333.536 419.992H333.539C334.078 419.992 334.515 420.429 334.515 420.969C334.515 421.508 334.078 421.945 333.539 421.945Z" fill="black"/>
<path d="M309.297 419.992H309.294C308.755 419.992 308.319 420.429 308.319 420.969C308.319 421.508 308.757 421.945 309.297 421.945C309.836 421.945 310.273 421.508 310.273 420.969C310.273 420.429 309.836 419.992 309.297 419.992Z" fill="black"/>
<path d="M344.586 417.417V409.467C344.586 409.345 344.562 409.221 344.517 409.107L339.855 397.357C339.708 396.984 339.348 396.74 338.948 396.74H331.191V392.908C331.191 392.369 330.754 391.932 330.215 391.932H320.082C319.548 391.055 318.906 390.236 318.161 389.491C316.279 387.609 313.905 386.366 311.295 385.895C308.746 385.436 306.149 385.74 303.785 386.774C303.29 386.99 303.065 387.566 303.281 388.06C303.497 388.554 304.073 388.779 304.567 388.563C308.753 386.733 313.547 387.639 316.78 390.872C318.863 392.956 320.011 395.725 320.011 398.671C320.011 401.617 318.864 404.386 316.78 406.468C314.698 408.551 311.929 409.699 308.983 409.699C306.038 409.699 303.268 408.551 301.185 406.468C297.956 403.239 297.048 398.448 298.871 394.262C299.086 393.767 298.86 393.192 298.365 392.976C297.871 392.761 297.295 392.987 297.08 393.482C296.05 395.847 295.749 398.442 296.209 400.989C296.662 403.494 297.829 405.78 299.587 407.624V417.417C298.754 417.791 298.173 418.628 298.173 419.598V420.869C298.173 422.187 299.245 423.26 300.564 423.26H304.469C305.329 425.063 307.169 426.313 309.297 426.313C311.423 426.313 313.262 425.063 314.121 423.26H328.711C329.57 425.063 331.41 426.313 333.536 426.313C335.663 426.313 337.504 425.063 338.363 423.26H343.609C344.927 423.26 346 422.187 346 420.869V419.598C346 418.628 345.418 417.791 344.586 417.417V417.417ZM340.098 403.266L342.171 408.491H331.57V403.266H340.098ZM338.285 398.693L339.324 401.313H330.594C330.054 401.313 329.617 401.75 329.617 402.289V409.467C329.617 410.006 330.054 410.444 330.594 410.444H342.632V412.85H341.306C340.767 412.85 340.329 413.288 340.329 413.827C340.329 414.366 340.767 414.804 341.306 414.804H342.632V417.207H337.327C336.358 416.232 335.017 415.627 333.536 415.627C332.056 415.627 330.716 416.232 329.747 417.207H326.466V398.693H338.285ZM303.964 421.307H300.564C300.326 421.307 300.126 421.106 300.126 420.869V419.598C300.126 419.361 300.326 419.16 300.564 419.16H304.268C304.064 419.725 303.952 420.334 303.952 420.969C303.952 421.082 303.957 421.195 303.964 421.307ZM309.297 424.36C307.427 424.36 305.905 422.839 305.905 420.969C305.905 419.1 307.427 417.58 309.297 417.58C311.165 417.58 312.685 419.1 312.685 420.969C312.685 422.839 311.165 424.36 309.297 424.36ZM313.086 417.207C312.117 416.232 310.776 415.627 309.297 415.627C307.816 415.627 306.475 416.232 305.506 417.207H301.54V409.309C303.706 410.832 306.282 411.652 308.984 411.652C312.451 411.652 315.71 410.301 318.161 407.849C320.613 405.398 321.964 402.139 321.964 398.671C321.964 397.006 321.651 395.388 321.056 393.885H329.238V396.74H325.489C324.95 396.74 324.513 397.177 324.513 397.717V417.207H313.086V417.207ZM314.627 421.307C314.634 421.195 314.638 421.082 314.638 420.969C314.638 420.334 314.527 419.725 314.323 419.16H328.51C328.306 419.725 328.194 420.334 328.194 420.969C328.194 421.082 328.199 421.195 328.206 421.307H314.627ZM333.536 424.36C331.668 424.36 330.148 422.839 330.148 420.969C330.148 419.1 331.668 417.58 333.536 417.58C334.579 417.58 335.513 418.053 336.136 418.795C336.143 418.804 336.15 418.812 336.157 418.821C336.638 419.406 336.928 420.154 336.928 420.969C336.928 422.839 335.406 424.36 333.536 424.36V424.36ZM344.047 420.869C344.047 421.106 343.846 421.307 343.609 421.307H338.869C338.876 421.195 338.881 421.082 338.881 420.969C338.881 420.334 338.769 419.725 338.565 419.16H343.609C343.846 419.16 344.047 419.361 344.047 419.598V420.869H344.047Z" fill="black"/>
<path d="M308.984 407.678C313.95 407.678 317.99 403.638 317.99 398.672C317.99 393.704 313.95 389.662 308.984 389.662C304.016 389.662 299.975 393.704 299.975 398.672C299.975 403.638 304.016 407.678 308.984 407.678ZM308.984 391.615C312.873 391.615 316.037 394.781 316.037 398.672C316.037 402.561 312.873 405.725 308.984 405.725C305.093 405.725 301.928 402.561 301.928 398.672C301.928 394.781 305.093 391.615 308.984 391.615V391.615Z" fill="black"/>
<path d="M308.984 399.648H311.804C312.344 399.648 312.781 399.211 312.781 398.671C312.781 398.132 312.344 397.695 311.804 397.695H309.96V394.608C309.96 394.069 309.523 393.631 308.984 393.631C308.444 393.631 308.007 394.069 308.007 394.608V398.671C308.007 399.211 308.445 399.648 308.984 399.648Z" fill="black"/>
<path d="M300.492 391.161C300.741 391.161 300.991 391.066 301.182 390.875L301.185 390.872C301.566 390.491 301.565 389.874 301.183 389.493C300.802 389.112 300.182 389.113 299.801 389.494C299.42 389.876 299.42 390.494 299.801 390.875C299.992 391.066 300.242 391.161 300.492 391.161V391.161Z" fill="black"/>
</g>
<path d="M47.6466 233.626C47.4514 233.43 47.4514 233.114 47.6467 232.919L50.8294 229.737C51.0247 229.542 51.3413 229.542 51.5365 229.737C51.7317 229.933 51.7317 230.249 51.5364 230.445L48.7073 233.272L51.5352 236.101C51.7304 236.297 51.7303 236.613 51.535 236.808C51.3397 237.004 51.0231 237.004 50.8279 236.808L47.6466 233.626ZM102 233.272L102 233.772L102 233.272ZM48.0002 233.272C48.0003 232.772 48.0003 232.772 48.0004 232.772C48.0004 232.772 48.0004 232.772 48.0005 232.772C48.0006 232.772 48.0008 232.772 48.0011 232.772C48.0016 232.772 48.0024 232.772 48.0034 232.772C48.0055 232.772 48.0088 232.772 48.0133 232.772C48.0224 232.772 48.0367 232.772 48.0574 232.772C48.0989 232.772 48.1663 232.772 48.2698 232.772C48.4768 232.772 48.8284 232.772 49.4065 232.772C50.5627 232.772 52.6252 232.772 56.2502 232.773C63.5001 232.773 77.0001 232.773 102 232.772L102 233.772C77.0001 233.773 63.5001 233.773 56.2501 233.773C52.6252 233.772 50.5627 233.772 49.4064 233.772C48.8283 233.772 48.4767 233.772 48.2697 233.772C48.1662 233.772 48.0988 233.772 48.0573 233.772C48.0365 233.772 48.0222 233.772 48.0131 233.772C48.0086 233.772 48.0053 233.772 48.0032 233.772C48.0022 233.772 48.0014 233.772 48.0009 233.772C48.0006 233.772 48.0004 233.772 48.0003 233.772C48.0002 233.772 48.0002 233.772 48.0002 233.772C48.0001 233.772 48.0001 233.772 48.0002 233.272ZM102 232.772C126.922 232.772 153.617 226.07 174.102 219.357C184.34 216.001 193.017 212.646 199.135 210.13C202.193 208.871 204.612 207.823 206.265 207.09C207.091 206.723 207.726 206.435 208.154 206.239C208.368 206.141 208.53 206.066 208.639 206.016C208.693 205.991 208.734 205.971 208.761 205.959C208.775 205.952 208.785 205.948 208.792 205.944C208.795 205.943 208.798 205.942 208.799 205.941C208.8 205.94 208.801 205.94 208.801 205.94C208.801 205.94 208.802 205.94 209.015 206.392C209.228 206.844 209.228 206.844 209.227 206.845C209.227 206.845 209.226 206.845 209.225 206.846C209.223 206.847 209.221 206.848 209.217 206.849C209.21 206.853 209.199 206.858 209.185 206.864C209.157 206.877 209.116 206.897 209.061 206.923C208.95 206.974 208.786 207.05 208.571 207.148C208.139 207.346 207.5 207.636 206.67 208.004C205.01 208.741 202.583 209.793 199.515 211.054C193.38 213.578 184.679 216.942 174.413 220.307C153.89 227.033 127.078 233.772 102 233.772L102 232.772Z" fill="black"/>
<g clip-path="url(#clip2)">
<path d="M11.9297 160.334C13.8441 160.334 15.4017 158.776 15.4017 156.86C15.4017 154.945 13.8445 153.387 11.9297 153.387C10.0149 153.387 8.45728 154.945 8.45728 156.86C8.45728 158.776 10.0154 160.334 11.9297 160.334ZM11.9297 155.218C12.8351 155.218 13.5716 155.955 13.5716 156.86C13.5716 157.767 12.8351 158.504 11.9297 158.504C11.0244 158.504 10.2879 157.767 10.2879 156.86C10.2879 155.955 11.0244 155.218 11.9297 155.218V155.218Z" fill="black"/>
<path d="M56.4373 167.621H54.1602V148.409C54.1602 147.236 53.2061 146.282 52.0335 146.282H31.4532C30.2802 146.282 29.3261 147.237 29.3261 148.409V156.816C29.3261 157.321 29.7357 157.731 30.2414 157.731C30.747 157.731 31.1567 157.321 31.1567 156.816V148.409C31.1567 148.249 31.2924 148.112 31.4532 148.112H37.0661V150.593C37.0661 151.609 37.8925 152.436 38.9081 152.436H44.5749C45.5909 152.436 46.4168 151.609 46.4168 150.593V148.112H52.0335C52.1943 148.112 52.3301 148.249 52.3301 148.409V167.621H31.1571L31.1633 161.013C31.1638 160.507 30.7546 160.097 30.2489 160.097C30.2485 160.097 30.2485 160.097 30.248 160.097C29.7433 160.097 29.3336 160.506 29.3332 161.011L29.327 167.621H16.6136V162.751C18.3458 161.37 19.4588 159.243 19.4588 156.86C19.4588 153.703 17.5062 150.995 14.7461 149.877V134.891C15.3525 134.433 15.8435 133.832 16.1699 133.137L19.4919 133.14L24.5977 133.137C24.7633 133.495 24.9676 133.843 25.2136 134.171L28.1411 138.004C28.3214 138.239 28.5934 138.363 28.8691 138.363C29.0598 138.363 29.2518 138.304 29.4159 138.182L29.8483 137.859L30.905 139.275C30.5351 139.618 30.2943 140.073 30.2206 140.581C30.1349 141.171 30.2835 141.756 30.6363 142.228C31.0526 142.788 31.72 143.123 32.422 143.123C32.9035 143.123 33.3614 142.971 33.7479 142.683L34.9867 141.758L35.6594 142.659C35.9891 143.101 36.4966 143.334 37.0117 143.334C37.3055 143.334 37.6011 143.257 37.8684 143.1L39.0221 144.572C39.2028 144.802 39.4715 144.922 39.743 144.922C39.9407 144.922 40.1394 144.859 40.3073 144.727C40.7046 144.416 40.7742 143.84 40.4624 143.443L39.331 141.999C39.5954 141.743 39.769 141.409 39.8234 141.037C39.8891 140.59 39.777 140.146 39.5079 139.786L38.8348 138.883L40.2146 137.852C41.1885 137.117 41.3896 135.723 40.662 134.746C40.2467 134.187 39.5802 133.854 38.8797 133.854C38.4776 133.854 38.0926 133.961 37.7506 134.163L36.6943 132.747L37.1286 132.423C37.5335 132.12 37.6167 131.547 37.3145 131.142L34.4276 127.275C33.3486 125.831 31.6216 124.969 29.8071 124.969C28.5583 124.969 27.3715 125.363 26.3744 126.108C25.8432 126.505 25.4019 126.977 25.0504 127.498H14.8629C14.0593 126.85 13.0394 126.461 11.9297 126.461C9.34512 126.461 7.24254 128.565 7.24254 131.15C7.24254 132.677 7.9762 134.034 9.10956 134.89V140.916C9.10956 141.422 9.5192 141.832 10.0249 141.832C10.5305 141.832 10.9402 141.422 10.9402 140.916V135.73C11.2594 135.799 11.5901 135.836 11.9297 135.836C12.2684 135.836 12.5981 135.799 12.9164 135.73V149.395C12.5934 149.352 12.2641 149.328 11.9297 149.328C11.5943 149.328 11.2642 149.352 10.9402 149.395V144.913C10.9402 144.408 10.5305 143.998 10.0249 143.998C9.5192 143.998 9.10956 144.408 9.10956 144.913V149.878C6.35184 150.997 4.40015 153.704 4.40015 156.86C4.40015 159.242 5.51222 161.367 7.24254 162.749V168.778C4.68727 170.272 3 173.071 3 176.348C3 181.07 6.83952 184.911 11.5589 184.911H56.4373C61.1586 184.911 65 181.07 65 176.348V176.187C65 171.464 61.1586 167.621 56.4373 167.621V167.621ZM44.5867 150.593C44.5867 150.599 44.5787 150.605 44.5768 150.606C44.5768 150.606 44.5763 150.606 44.5749 150.606H38.9086C38.9048 150.605 38.8977 150.598 38.8963 150.593V148.112H44.5867V150.593ZM35.2284 133.843L36.2752 135.247L34.6622 136.452L32.3633 138.169L31.3161 136.765L35.2284 133.843ZM37.0396 141.449L36.4531 140.663L37.3684 139.979L37.954 140.764L37.0396 141.449ZM38.1035 136.166C38.1044 136.165 38.1049 136.165 38.1054 136.164L38.6446 135.762C38.7307 135.697 38.8201 135.684 38.8802 135.684C38.9398 135.684 39.0902 135.699 39.1933 135.838C39.3229 136.011 39.2865 136.26 39.1157 136.389L37.0605 137.924C37.0415 137.936 37.0231 137.948 37.0051 137.961C36.9867 137.975 36.9701 137.99 36.9531 138.004L34.6868 139.698C34.6651 139.711 34.6438 139.725 34.623 139.74C34.6022 139.756 34.5823 139.773 34.5629 139.79L32.6538 141.216C32.5691 141.279 32.4807 141.292 32.4215 141.292C32.3615 141.292 32.2101 141.277 32.1037 141.134C32.0204 141.023 32.0228 140.905 32.0318 140.844C32.0403 140.784 32.0715 140.671 32.1826 140.588L35.6721 137.982L38.1035 136.166ZM27.4704 127.574C28.1482 127.067 28.9566 126.799 29.8071 126.799C31.0474 126.799 32.2262 127.386 32.9612 128.37L35.3003 131.504L29.046 136.173L26.6738 133.068C26.4189 132.726 26.2287 132.356 26.0996 131.972C26.0939 131.952 26.0868 131.931 26.0797 131.911C25.7604 130.906 25.8621 129.811 26.3493 128.885C26.3621 128.865 26.3739 128.843 26.3848 128.821C26.6459 128.347 27.0092 127.919 27.4704 127.574ZM24.2382 129.329C24.0784 129.973 24.0301 130.643 24.0973 131.307L19.4919 131.31L16.6098 131.307C16.6112 131.255 16.6136 131.203 16.6136 131.15C16.6136 130.505 16.4826 129.889 16.2456 129.329H24.2382ZM11.9297 134.006C10.3541 134.006 9.07266 132.725 9.07266 131.15C9.07266 129.574 10.3541 128.292 11.9297 128.292C13.503 128.292 14.7835 129.574 14.7835 131.15C14.7835 132.725 13.503 134.006 11.9297 134.006ZM6.23074 156.86C6.23074 153.716 8.78696 151.158 11.9297 151.158C15.0725 151.158 17.6292 153.716 17.6292 156.86C17.6292 160.005 15.0725 162.562 11.9297 162.562C8.78743 162.562 6.23074 160.005 6.23074 156.86ZM14.7835 163.829V167.621H11.5589C10.6904 167.621 9.85693 167.748 9.07266 167.983V163.828C9.95438 164.191 10.9189 164.393 11.9297 164.393C12.9396 164.393 13.9027 164.191 14.7835 163.829ZM63.1699 176.348C63.1699 180.06 60.1496 183.081 56.4373 183.081H11.5589C7.84848 183.081 4.83012 180.06 4.83012 176.348C4.83012 173.633 6.28798 171.333 8.46152 170.202C8.53625 170.176 8.60768 170.14 8.67249 170.096C9.54285 169.682 10.5196 169.451 11.5589 169.451H56.4373C60.1496 169.451 63.1699 172.473 63.1699 176.187V176.348Z" fill="black"/>
<path d="M56.3583 170.787H11.6412C8.62138 170.787 6.16498 173.244 6.16498 176.266C6.16498 179.287 8.62138 181.745 11.6412 181.745H56.3583C59.3781 181.745 61.835 179.287 61.835 176.266C61.835 173.244 59.3781 170.787 56.3583 170.787V170.787ZM56.3583 179.914H11.6412C9.63081 179.914 7.99463 178.277 7.99463 176.266C7.99463 174.254 9.63081 172.617 11.6412 172.617H56.3583C58.3692 172.617 60.0049 174.254 60.0049 176.266C60.0053 178.277 58.3692 179.914 56.3583 179.914V179.914Z" fill="black"/>
<path d="M24.2964 173.538C22.7794 173.538 21.5453 174.774 21.5453 176.293C21.5453 177.811 22.7794 179.046 24.2964 179.046C25.8158 179.046 27.0513 177.811 27.0513 176.293C27.0513 174.774 25.8158 173.538 24.2964 173.538V173.538ZM24.2964 177.215C23.7889 177.215 23.3754 176.802 23.3754 176.293C23.3754 175.783 23.7889 175.368 24.2964 175.368C24.8063 175.368 25.2212 175.783 25.2212 176.293C25.2212 176.802 24.8063 177.215 24.2964 177.215Z" fill="black"/>
<path d="M33.9106 173.514C32.3917 173.514 31.1562 174.748 31.1562 176.266C31.1562 177.785 32.3917 179.022 33.9106 179.022C35.4276 179.022 36.6622 177.785 36.6622 176.266C36.6622 174.748 35.4276 173.514 33.9106 173.514ZM33.9106 177.191C33.4012 177.191 32.9863 176.776 32.9863 176.266C32.9863 175.757 33.4012 175.344 33.9106 175.344C34.4186 175.344 34.832 175.757 34.832 176.266C34.832 176.776 34.4186 177.191 33.9106 177.191V177.191Z" fill="black"/>
<path d="M43.5451 173.514C42.0286 173.514 40.794 174.748 40.794 176.266C40.794 177.785 42.0281 179.022 43.5451 179.022C45.0645 179.022 46.3 177.785 46.3 176.266C46.3 174.748 45.0645 173.514 43.5451 173.514ZM43.5451 177.191C43.0376 177.191 42.6241 176.776 42.6241 176.266C42.6241 175.757 43.0376 175.344 43.5451 175.344C44.055 175.344 44.4703 175.757 44.4703 176.266C44.4703 176.776 44.055 177.191 43.5451 177.191Z" fill="black"/>
<path d="M53.1598 173.486C51.6404 173.486 50.4049 174.722 50.4049 176.242C50.4049 177.76 51.6404 178.994 53.1598 178.994C54.6768 178.994 55.9109 177.76 55.9109 176.242C55.9109 174.722 54.6768 173.486 53.1598 173.486V173.486ZM53.1598 177.164C52.6499 177.164 52.235 176.75 52.235 176.242C52.235 175.731 52.6499 175.316 53.1598 175.316C53.6673 175.316 54.0808 175.731 54.0808 176.242C54.0808 176.75 53.6673 177.164 53.1598 177.164Z" fill="black"/>
<path d="M14.686 173.565C13.169 173.565 11.9344 174.8 11.9344 176.317C11.9344 177.835 13.1686 179.07 14.686 179.07C16.203 179.07 17.4376 177.835 17.4376 176.317C17.4376 174.8 16.203 173.565 14.686 173.565V173.565ZM14.686 177.239C14.178 177.239 13.7646 176.826 13.7646 176.317C13.7646 175.809 14.178 175.395 14.686 175.395C15.1936 175.395 15.607 175.809 15.607 176.317C15.607 176.826 15.1936 177.239 14.686 177.239Z" fill="black"/>
</g>
<defs>
<clipPath id="clip0">
<rect width="59" height="59" fill="white" transform="translate(9 253)"/>
</clipPath>
<clipPath id="clip1">
<rect width="50" height="50" fill="white" transform="translate(296 381)"/>
</clipPath>
<clipPath id="clip2">
<rect width="62" height="62" fill="white" transform="translate(3 124)"/>
</clipPath>
</defs>
</svg>
