<svg width="18" height="24" viewBox="0 0 18 24" fill="none" xmlns="http://www.w3.org/2000/svg">
<path d="M8.6919 0C3.89916 0 0 3.89916 0 8.69184C0 14.6397 7.7784 23.3715 8.10957 23.7404C8.42064 24.0868 8.96373 24.0862 9.27423 23.7404C9.6054 23.3715 17.3838 14.6397 17.3838 8.69184C17.3837 3.89916 13.4846 0 8.6919 0ZM8.6919 13.065C6.28055 13.065 4.31883 11.1032 4.31883 8.69184C4.31883 6.2805 6.2806 4.31878 8.6919 4.31878C11.1032 4.31878 13.0649 6.28055 13.0649 8.69189C13.0649 11.1032 11.1032 13.065 8.6919 13.065Z" fill="white"/>
</svg>
