<svg width="37" height="36" viewBox="0 0 37 36" fill="none" xmlns="http://www.w3.org/2000/svg">
<path d="M11.0883 16.9041C11.0883 21.1614 14.6354 24.6126 19.011 24.6126C23.3866 24.6126 26.9337 21.1614 26.9337 16.9041C26.9337 12.6468 23.3866 9.19556 19.011 9.19556C14.6376 9.20033 11.0933 12.6489 11.0883 16.9041ZM19.011 17.3912C17.6963 17.3984 16.5823 16.451 16.414 15.1822C16.2458 13.9138 17.0762 12.7219 18.3498 12.4044V11.7527C18.3498 11.4576 18.5955 11.2185 18.8989 11.2185C19.2022 11.2185 19.4479 11.4576 19.4479 11.7527V12.3719C20.6937 12.577 21.6031 13.6308 21.5951 14.8606C21.5951 15.1521 21.3522 15.3885 21.0525 15.3885C20.7529 15.3885 20.5099 15.1521 20.5099 14.8606C20.509 14.0536 19.8361 13.4001 19.0067 13.401C18.1773 13.4019 17.5057 14.0568 17.5069 14.8638C17.5079 15.6705 18.181 16.324 19.0104 16.3228C20.3552 16.3302 21.472 17.3343 21.5856 18.6382C21.6993 19.9418 20.7722 21.1146 19.4479 21.3424V21.9791C19.4479 22.2743 19.2022 22.5134 18.8989 22.5134C18.5955 22.5134 18.3498 22.2743 18.3498 21.9791V21.3096C17.2024 21.0147 16.4006 20.0083 16.3929 18.8537C16.3929 18.5553 16.6417 18.3133 16.9484 18.3133C17.2551 18.3133 17.5039 18.5553 17.5039 18.8537C17.5057 19.5999 18.0836 20.2256 18.8459 20.307C18.8741 20.3026 18.9029 20.3005 18.9317 20.3002C18.973 20.3002 19.0141 20.3049 19.0545 20.3139C19.8781 20.2942 20.5316 19.633 20.5197 18.8317C20.5077 18.0301 19.8346 17.3876 19.011 17.3912Z" fill="#E66D53"/>
<path d="M31.726 28.2879C31.722 28.29 31.7177 28.2921 31.7131 28.2942L26.6163 30.637C26.6712 30.9116 26.6951 31.1909 26.6874 31.4705C26.6794 31.7597 26.4362 31.9901 26.139 31.9901C26.1337 31.9901 26.1285 31.9901 26.1233 31.9901L18.6639 31.7904C18.3606 31.7824 18.1216 31.5367 18.1299 31.2416C18.1382 30.9465 18.3909 30.7139 18.6939 30.722L25.5507 30.9056C25.3233 29.6127 24.1903 28.6552 22.8428 28.617L18.3051 28.4957C17.4089 28.4707 16.5302 28.2498 15.7339 27.8494L15.2722 27.6169C13.0046 26.4674 10.2722 26.617 8.15163 28.0071L7.96994 34.4299L8.74971 34.0236C9.52457 33.6181 10.4312 33.5215 11.278 33.7544L18.9789 35.8575C20.4631 36.1533 22.0054 35.9857 23.386 35.3782L34.0549 28.6635C33.4461 28.0572 32.5033 27.9048 31.726 28.2879Z" fill="#E66D53"/>
<path d="M2.9588 35.5454L3.22934 25.9895L7.10765 26.0935L6.83711 35.6495L2.9588 35.5454Z" fill="#E66D53"/>
<path d="M19.5264 6.33425V0.534214C19.5264 0.239085 19.2807 0 18.9774 0C18.674 0 18.4283 0.239085 18.4283 0.534214V6.33425C18.4283 6.62938 18.674 6.86847 18.9774 6.86847C19.2807 6.86847 19.5264 6.62938 19.5264 6.33425Z" fill="#E66D53"/>
<path d="M24.2323 6.33434V3.58695C24.2323 3.29182 23.9866 3.05273 23.6832 3.05273C23.3799 3.05273 23.1342 3.29182 23.1342 3.58695V6.33434C23.1342 6.62947 23.3799 6.86855 23.6832 6.86855C23.9866 6.86855 24.2323 6.62947 24.2323 6.33434Z" fill="#E66D53"/>
<path d="M14.82 6.33434V3.58695C14.82 3.29182 14.5742 3.05273 14.2709 3.05273C13.9676 3.05273 13.7219 3.29182 13.7219 3.58695V6.33434C13.7219 6.62947 13.9676 6.86855 14.2709 6.86855C14.5742 6.86855 14.82 6.62947 14.82 6.33434Z" fill="#E66D53"/>
</svg>
