<svg width="60" height="60" viewBox="0 0 60 60" fill="none" xmlns="http://www.w3.org/2000/svg">
<path d="M20.2207 45.926C20.2055 45.851 20.1832 45.7772 20.1539 45.7057C20.1246 45.6354 20.0883 45.5675 20.0461 45.5042C20.0039 45.4397 19.9547 45.38 19.9008 45.326C19.8469 45.2721 19.7871 45.2229 19.7227 45.1807C19.6594 45.1385 19.5914 45.1022 19.5199 45.0729C19.4496 45.0436 19.3758 45.0202 19.3008 45.0061C19.1496 44.9757 18.9938 44.9757 18.8438 45.0061C18.7688 45.0202 18.6949 45.0436 18.6234 45.0729C18.5531 45.1022 18.4852 45.1385 18.4219 45.1807C18.3574 45.2229 18.2977 45.2721 18.2437 45.326C18.1898 45.38 18.1406 45.4397 18.0984 45.5042C18.0551 45.5675 18.0199 45.6354 17.9906 45.7057C17.9613 45.7772 17.9379 45.851 17.9238 45.926C17.9086 46.001 17.9004 46.0784 17.9004 46.1546C17.9004 46.2307 17.9086 46.3081 17.9238 46.3831C17.9379 46.4581 17.9613 46.5319 17.9906 46.6022C18.0199 46.6737 18.0551 46.7417 18.0984 46.805C18.1406 46.8694 18.1898 46.9292 18.2437 46.9831C18.2977 47.037 18.3574 47.0862 18.4219 47.1284C18.4852 47.1707 18.5531 47.207 18.6234 47.2363C18.6949 47.2656 18.7688 47.2891 18.8438 47.3031C18.9188 47.3183 18.9961 47.3265 19.0723 47.3265C19.1484 47.3265 19.2258 47.3183 19.3008 47.3031C19.3758 47.2891 19.4496 47.2656 19.5199 47.2363C19.5914 47.207 19.6594 47.1706 19.7227 47.1284C19.7871 47.0862 19.8469 47.037 19.9008 46.9831C19.9547 46.9292 20.0039 46.8694 20.0461 46.805C20.0883 46.7417 20.1246 46.6737 20.1539 46.6022C20.1832 46.5319 20.2055 46.4581 20.2207 46.3831C20.2359 46.3081 20.2441 46.2307 20.2441 46.1546C20.2441 46.0784 20.2359 46.001 20.2207 45.926Z" fill="black"/>
<path d="M53.9054 46.2869C53.9009 46.2752 53.8962 46.2636 53.8913 46.2521C52.8127 43.7283 50.283 42.7955 47.2894 43.8179L39.1252 46.0756C38.6531 44.6462 37.4757 43.4298 35.811 42.812C35.8007 42.8082 35.7904 42.8045 35.7799 42.801L26.8056 39.755C26.0586 38.7895 23.7189 36.319 19.338 36.319C16.2765 36.319 13.5682 38.4192 12.0187 40.7085H1.17188C0.524648 40.7085 0 41.2331 0 41.8803V56.655C0 57.3022 0.524648 57.8269 1.17188 57.8269H8.13949C8.78672 57.8269 9.31137 57.3022 9.31137 56.655V55.6432H12.5789C13.2261 55.6432 13.7508 55.1185 13.7508 54.4713V54.134C15.6555 54.3002 16.282 54.6615 18.0314 55.6703C19.3767 56.446 21.41 57.6185 25.0717 59.2649C25.0887 59.2725 25.1059 59.2797 25.1231 59.2865C25.8259 59.563 27.1997 59.9973 28.8934 59.9973C30.0723 59.9973 31.4065 59.7867 32.7759 59.166L50.8218 52.7047C50.8539 52.6932 50.8855 52.6803 50.9164 52.666C52.6411 51.8726 55.2111 49.6363 53.9054 46.2869ZM6.96762 55.483H2.34375V43.0521H6.96762V55.483ZM11.407 53.2993H9.31137V43.0521H11.407V53.2993ZM49.98 50.5165L31.9423 56.9748C31.9264 56.9804 31.905 56.9889 31.8894 56.9952C31.8736 57.0016 31.8578 57.0084 31.8422 57.0156C29.33 58.1701 26.9421 57.4789 26.0063 57.1151C22.4693 55.5235 20.5815 54.435 19.2022 53.6396C17.2846 52.5339 16.3605 52.0009 13.7508 51.7854V42.3469C14.8616 40.5262 17.0157 38.6626 19.3382 38.6626C23.3209 38.6626 25.0085 41.253 25.0748 41.3576C25.2179 41.5903 25.4379 41.7657 25.6965 41.8535L35.01 45.0145C36.4975 45.5728 37.2836 46.8466 36.9223 48.1169C36.7555 48.7036 36.3702 49.1901 35.8375 49.487C35.3093 49.7812 34.6987 49.854 34.1168 49.693L23.6176 46.3658C23.0003 46.1702 22.3419 46.5119 22.1464 47.1289C21.9509 47.7459 22.2926 48.4045 22.9096 48.6001L33.427 51.933C33.4382 51.9365 33.4493 51.9399 33.4605 51.9431C33.8804 52.0625 34.3079 52.1216 34.7328 52.1216C35.5107 52.1216 36.2801 51.9234 36.9783 51.5344C38.0579 50.9328 38.8386 49.9468 39.1766 48.758C39.2036 48.663 39.2275 48.5681 39.2482 48.4732L48.047 46.0357C49.3178 45.6016 50.9859 45.4452 51.7287 47.1558C52.4974 49.164 50.4994 50.2687 49.98 50.5165Z" fill="black"/>
<path d="M42.0773 15.4152C42.0621 15.3402 42.0398 15.2664 42.0094 15.1949C41.9801 15.1246 41.9449 15.0566 41.9016 14.9933C41.8594 14.9289 41.8102 14.8691 41.7563 14.8152C41.7023 14.7613 41.6426 14.7121 41.5781 14.6699C41.5148 14.6277 41.4469 14.5914 41.3766 14.5621C41.3051 14.5328 41.2312 14.5093 41.1574 14.4953C41.0062 14.4648 40.8504 14.4648 40.6992 14.4953C40.6242 14.5093 40.5504 14.5328 40.4801 14.5621C40.4086 14.5914 40.3406 14.6277 40.2773 14.6699C40.2129 14.7121 40.1531 14.7613 40.0992 14.8152C40.0453 14.8691 39.9961 14.9289 39.9539 14.9933C39.9117 15.0566 39.8754 15.1246 39.8461 15.1949C39.8168 15.2664 39.7934 15.3402 39.7793 15.4152C39.7641 15.4902 39.7559 15.5675 39.7559 15.6437C39.7559 15.7199 39.7641 15.7972 39.7793 15.8722C39.7934 15.9472 39.8168 16.021 39.8461 16.0914C39.8754 16.1628 39.9117 16.2308 39.9539 16.2941C39.9961 16.3585 40.0453 16.4183 40.0992 16.4722C40.1531 16.5261 40.2129 16.5753 40.2773 16.6175C40.3406 16.6597 40.4086 16.696 40.4801 16.7253C40.5504 16.7546 40.6242 16.7769 40.6992 16.7921C40.7742 16.8074 40.8516 16.8156 40.9277 16.8156C41.0039 16.8156 41.0812 16.8074 41.1574 16.7921C41.2312 16.7769 41.3051 16.7546 41.3766 16.7253C41.4469 16.696 41.5148 16.6597 41.5781 16.6175C41.6426 16.5753 41.7023 16.5261 41.7563 16.4722C41.8102 16.4183 41.8594 16.3585 41.9016 16.2941C41.9449 16.2308 41.9801 16.1628 42.0094 16.0914C42.0398 16.021 42.0621 15.9472 42.0773 15.8722C42.0926 15.7972 42.0996 15.7199 42.0996 15.6437C42.0996 15.5675 42.0926 15.4902 42.0773 15.4152Z" fill="black"/>
<path d="M58.8281 3.97168H51.8605C51.2133 3.97168 50.6886 4.49633 50.6886 5.14356V6.15536H47.4211C46.7738 6.15536 46.2492 6.68001 46.2492 7.32723V7.6645C44.3444 7.49821 43.7179 7.13704 41.9687 6.12829C40.6234 5.35251 38.5901 4.18004 34.9283 2.53368C34.9113 2.52594 34.8942 2.51879 34.8767 2.512C33.6848 2.04301 30.561 1.12028 27.2245 2.63235L22.5089 4.32079L18.534 0.346021C18.0764 -0.111597 17.3344 -0.111597 16.8767 0.346021L3.82698 13.3957C3.40487 13.8179 3.32389 14.55 3.82698 15.0531L26.1262 37.3523C26.4831 37.7093 27.3186 37.8172 27.7836 37.3523L39.6975 25.4386C40.0072 25.4653 40.3287 25.4797 40.6618 25.4797C43.7235 25.4797 46.4317 23.3795 47.981 21.0903H58.8281C59.4753 21.0903 60 20.5657 60 19.9184V5.14356C60 4.49633 59.4753 3.97168 58.8281 3.97168ZM17.7053 2.83192L20.3762 5.50286C19.5823 5.99387 18.6643 6.25661 17.7053 6.25661C16.7461 6.25661 15.8283 5.99399 15.0343 5.50286L17.7053 2.83192ZM8.98393 16.8954L6.313 14.2243L8.98393 11.5534C9.47495 12.3473 9.73768 13.2652 9.73768 14.2243C9.73768 15.1834 9.47507 16.1013 8.98393 16.8954ZM26.955 34.8663L24.2845 32.1958C25.9149 31.1897 27.9948 31.1897 29.6253 32.1958L26.955 34.8663ZM31.3138 30.5076C28.7242 28.6291 25.1858 28.6291 22.5962 30.5076L10.6723 18.5836C11.5874 17.325 12.0814 15.8131 12.0814 14.2243C12.0814 12.6354 11.5875 11.1236 10.6723 9.86504L13.3461 7.19129C14.6047 8.10641 16.1164 8.60047 17.7054 8.60047C19.2943 8.60047 20.806 8.10641 22.0646 7.19129L24.5993 9.72594C24.0524 9.80669 23.519 9.98692 23.0217 10.2641C22.1817 10.7321 21.5226 11.433 21.1123 12.281C19.7904 12.5258 18.5666 13.1657 17.6066 14.1256C15.0021 16.7302 15.0021 20.9681 17.6067 23.5727C18.9089 24.8749 20.6195 25.5261 22.3302 25.5261C24.0408 25.5261 25.7515 24.875 27.0538 23.5727C27.901 22.7254 28.4946 21.6841 28.7919 20.5493L32.7486 21.8921C32.3032 23.9556 32.7594 26.1263 33.99 27.8314L31.3138 30.5076ZM24.189 18.9866C24.1993 18.9903 24.2096 18.9941 24.2201 18.9976L26.5633 19.7929C26.3864 20.5916 25.986 21.3259 25.3965 21.9154C23.7057 23.606 20.9546 23.6062 19.2641 21.9154C17.5733 20.2248 17.5733 17.4738 19.2641 15.783C19.6719 15.375 20.1532 15.0561 20.6776 14.8399C20.8939 16.6401 22.1901 18.2448 24.189 18.9866ZM35.6785 26.1427C35.2262 25.4056 34.9703 24.5643 34.9298 23.7057C35.4912 24.1115 36.1772 24.5091 36.9965 24.8247L35.6785 26.1427ZM46.2491 19.4512C45.1384 21.2721 42.9842 23.1357 40.6618 23.1357C40.2273 23.1357 39.8201 23.1048 39.4393 23.0497C39.4378 23.0495 39.4363 23.0492 39.4347 23.049C36.904 22.6814 35.5426 21.243 35.0939 20.6735C35.07 20.6383 34.9681 20.5051 34.953 20.4829C34.8165 20.239 34.5927 20.0428 34.3072 19.9459L24.9899 16.7836C23.503 16.2255 22.717 14.9523 23.0772 13.6824C23.0775 13.6816 23.0777 13.6808 23.078 13.68C23.0783 13.679 23.0785 13.678 23.0788 13.677C23.2462 13.0923 23.6308 12.6072 24.1624 12.3111C24.6905 12.0168 25.3009 11.9438 25.8831 12.1052L36.3822 15.4323C36.9994 15.6281 37.658 15.2861 37.8534 14.6691C38.0489 14.0522 37.7073 13.3936 37.0903 13.198L28.7401 10.5519L28.6672 10.479C28.6665 10.4783 28.6658 10.4775 28.665 10.4768L24.3419 6.15372L28.0577 4.82317C28.0703 4.8186 28.0857 4.81286 28.0981 4.80782C28.1013 4.80653 28.1074 4.80418 28.1105 4.8029C28.1264 4.79645 28.1421 4.78965 28.1577 4.78251C30.6697 3.62797 33.0575 4.31903 33.9935 4.68301C37.5306 6.27454 39.4185 7.36309 40.7978 8.15844C42.7154 9.26434 43.6394 9.79719 46.2491 10.0127V19.4512ZM50.6886 18.7463H48.5929V8.49911H50.6886V18.7463ZM57.6562 18.7463H53.0324V6.31543H57.6562V18.7463Z" fill="black"/>
</svg>
