<svg width="33" height="33" viewBox="0 0 33 33" fill="none" xmlns="http://www.w3.org/2000/svg">
<g clip-path="url(#clip0)">
<path d="M31.7402 6.10355L11.5293 1.82635C10.6742 1.64545 9.82662 2.19712 9.64571 3.05221L9.26173 5.51979L32.5817 10.4547L32.9657 7.98709C33.1466 7.13232 32.5953 6.28451 31.7402 6.10355Z" fill="#E66D53"/>
<path d="M23.2409 10.978C23.0049 10.1279 22.1164 9.62538 21.2666 9.86107L17.4298 10.9262L8.38485 9.01196L7.3901 13.7121L1.17485 15.4371C0.325038 15.6729 -0.177461 16.5613 0.0582319 17.4112L3.56089 30.0331C3.79696 30.8829 4.68543 31.3857 5.53524 31.1497L25.627 25.574C26.4768 25.338 26.9793 24.4499 26.7436 23.5997L26.1424 21.4329L28.3957 21.9093C29.2508 22.0905 30.0983 21.5388 30.2793 20.6837L31.7049 13.9469L23.5882 12.2293L23.2409 10.978ZM25.5613 17.393L26.0581 15.0446C26.1328 14.693 26.4814 14.4662 26.833 14.5404L29.1814 15.0376C29.5334 15.1123 29.7602 15.4605 29.6859 15.8125L29.189 18.1609C29.1144 18.5125 28.7658 18.7396 28.4142 18.6651L26.0657 18.1682C25.7135 18.0933 25.4866 17.7446 25.5613 17.393ZM1.52448 16.6967L7.08463 15.1542L20.2038 11.5136L21.6155 11.1213C21.6413 11.1144 21.667 11.1111 21.6921 11.1111C21.8054 11.1111 21.9408 11.1854 21.9804 11.3277L22.1461 11.9246L22.6654 13.7959L2.0032 19.5298L1.31812 17.0619C1.2752 16.907 1.36967 16.7396 1.52448 16.6967ZM25.4837 23.9489C25.5101 24.0447 25.4824 24.1239 25.4543 24.1735C25.4266 24.223 25.3731 24.2877 25.2773 24.3141L5.18594 29.8898C5.16054 29.8967 5.13444 29.9004 5.10931 29.9004C4.99608 29.9004 4.86068 29.8257 4.8211 29.6834L2.77811 22.3212L23.4403 16.5871L24.7005 21.1277L25.4837 23.9489Z" fill="#E66D53"/>
<path d="M8.43221 24.4526C8.33579 24.1059 7.97392 23.9013 7.62726 23.9973L5.28085 24.6487C4.93451 24.7448 4.72949 25.107 4.82591 25.4537L5.47696 27.7998C5.57337 28.1464 5.93524 28.3511 6.28191 28.2547L8.62832 27.6036C8.97498 27.5076 9.17967 27.1454 9.08358 26.7987L8.43221 24.4526Z" fill="#E66D53"/>
</g>
<defs>
<clipPath id="clip0">
<rect width="33" height="33" fill="white"/>
</clipPath>
</defs>
</svg>
