<svg width="112" height="112" viewBox="0 0 112 112" fill="none" xmlns="http://www.w3.org/2000/svg">
<path d="M56.0004 107.625C32.8319 107.625 12.6216 91.9764 6.84954 69.5684C6.60857 68.6336 7.17339 67.6783 8.1099 67.4364C9.03702 67.2023 10 67.7603 10.241 68.6968C15.6123 89.5565 34.4298 104.125 56.0004 104.125C82.0537 104.125 103.25 82.9291 103.25 56.8758C103.25 55.9077 104.032 55.1259 105 55.1259C105.967 55.1259 106.75 55.9077 106.75 56.8758C106.75 84.8577 83.9822 107.625 56.0004 107.625Z" fill="white"/>
<path d="M7.00096 56.8759C6.03283 56.8759 5.25098 56.0932 5.25098 55.1259C5.25098 27.1432 28.0179 4.37628 56.0006 4.37628C79.1683 4.37628 99.3785 20.0245 105.151 42.4325C105.392 43.3673 104.827 44.3226 103.89 44.5645C102.968 44.808 102.002 44.2406 101.759 43.3041C96.3878 22.4444 77.5704 7.87626 56.0006 7.87626C29.9465 7.87626 8.75095 29.0718 8.75095 55.1259C8.75095 56.0932 7.96824 56.8759 7.00096 56.8759Z" fill="white"/>
<path d="M7.00064 56.8759C6.55203 56.8759 6.10428 56.7042 5.76334 56.3624L0.513336 51.1124C-0.171112 50.4288 -0.171112 49.3222 0.513336 48.6386C1.19693 47.9542 2.3035 47.9542 2.98709 48.6386L8.23709 53.8886C8.92154 54.5722 8.92154 55.6788 8.23709 56.3624C7.89615 56.7042 7.44839 56.8759 7.00064 56.8759Z" fill="white"/>
<path d="M7.00064 56.8759C6.55203 56.8759 6.10428 56.7042 5.76334 56.3624C5.07889 55.6788 5.07889 54.5722 5.76334 53.8886L11.0133 48.6386C11.6969 47.9542 12.8035 47.9542 13.4871 48.6386C14.1715 49.3222 14.1715 50.4288 13.4871 51.1124L8.23709 56.3624C7.89615 56.7042 7.44839 56.8759 7.00064 56.8759Z" fill="white"/>
<path d="M110.251 62.1258C109.802 62.1258 109.354 61.9541 109.013 61.6123L103.763 56.3623C103.079 55.6787 103.079 54.5721 103.763 53.8885C104.447 53.2041 105.553 53.2041 106.237 53.8885L111.487 59.1385C112.172 59.8221 112.172 60.9287 111.487 61.6123C111.146 61.9541 110.698 62.1258 110.251 62.1258Z" fill="white"/>
<path d="M99.7506 62.1258C99.302 62.1258 98.8543 61.9541 98.5133 61.6123C97.8289 60.9287 97.8289 59.8221 98.5133 59.1385L103.763 53.8885C104.447 53.2041 105.553 53.2041 106.237 53.8885C106.922 54.5721 106.922 55.6787 106.237 56.3623L100.987 61.6123C100.646 61.9541 100.198 62.1258 99.7506 62.1258Z" fill="white"/>
<path d="M24.4961 96.154C23.5288 96.154 22.7461 95.3713 22.7461 94.404V49.858C22.7461 48.8898 23.5288 48.108 24.4961 48.108C25.4642 48.108 26.2461 48.8898 26.2461 49.858V94.404C26.2461 95.3713 25.4642 96.154 24.4961 96.154Z" fill="white"/>
<path d="M87.5039 96.1574C86.5358 96.1574 85.7539 95.3755 85.7539 94.4074V49.858C85.7539 48.8898 86.5358 48.108 87.5039 48.108C88.4712 48.108 89.2539 48.8898 89.2539 49.858V94.4074C89.2539 95.3755 88.4712 96.1574 87.5039 96.1574Z" fill="white"/>
<path d="M87.5033 51.6079H24.4961C23.5288 51.6079 22.7461 50.8261 22.7461 49.858C22.7461 48.8898 23.5288 48.108 24.4961 48.108H87.5033C88.4706 48.108 89.2533 48.8898 89.2533 49.858C89.2533 50.8261 88.4706 51.6079 87.5033 51.6079Z" fill="white"/>
<path d="M24.4941 51.6081C24.1882 51.6081 23.8763 51.5277 23.5952 51.3577C22.7655 50.8612 22.498 49.7863 22.9945 48.9566L28.2445 40.2031C28.7401 39.376 29.8142 39.106 30.6456 39.6033C31.4753 40.0998 31.7428 41.1747 31.2463 42.0044L25.9963 50.7578C25.6691 51.3056 25.0897 51.6081 24.4941 51.6081Z" fill="white"/>
<path d="M87.5055 51.6081C86.9099 51.6081 86.3306 51.3056 86.0033 50.7595L80.7533 42.0061C80.2568 41.1764 80.5243 40.1015 81.354 39.605C82.1837 39.1077 83.2578 39.3777 83.7551 40.2049L89.0051 48.9583C89.5016 49.788 89.2341 50.8629 88.4044 51.3594C88.1216 51.5277 87.8114 51.6081 87.5055 51.6081Z" fill="white"/>
<path d="M82.2534 42.8546H29.7461C28.7788 42.8546 27.9961 42.0719 27.9961 41.1046C27.9961 40.1365 28.7788 39.3546 29.7461 39.3546H82.2534C83.2206 39.3546 84.0033 40.1365 84.0033 41.1046C84.0033 42.0719 83.2206 42.8546 82.2534 42.8546Z" fill="white"/>
<path d="M48.9983 51.6081C48.8864 51.6081 48.7693 51.5978 48.654 51.573C47.7072 51.3842 47.0911 50.4622 47.2817 49.5137L49.0317 40.7594C49.2196 39.8135 50.1331 39.1897 51.0918 39.388C52.0386 39.5768 52.6547 40.4988 52.4642 41.4473L50.7142 50.2007C50.5475 51.0339 49.8161 51.6081 48.9983 51.6081Z" fill="white"/>
<path d="M62.9983 51.6081C62.1814 51.6081 61.45 51.0338 61.2851 50.2007L59.5351 41.4473C59.3462 40.4988 59.9606 39.5785 60.9074 39.388C61.8678 39.1914 62.7779 39.8135 62.9676 40.7594L64.7176 49.5137C64.9064 50.4622 64.292 51.3825 63.3453 51.573C63.2282 51.5978 63.1111 51.6081 62.9983 51.6081Z" fill="white"/>
<path d="M48.9961 62.108C48.0288 62.108 47.2461 61.3261 47.2461 60.358V49.858C47.2461 48.8898 48.0288 48.108 48.9961 48.108C49.9642 48.108 50.7461 48.8898 50.7461 49.858V60.358C50.7461 61.3261 49.9642 62.108 48.9961 62.108Z" fill="white"/>
<path d="M63 62.108C62.0319 62.108 61.25 61.3261 61.25 60.358V49.858C61.25 48.8898 62.0319 48.108 63 48.108C63.9673 48.108 64.75 48.8898 64.75 49.858V60.358C64.75 61.3261 63.9673 62.108 63 62.108Z" fill="white"/>
<path d="M63.0022 62.1079C62.862 62.1079 62.7185 62.0909 62.5766 62.0558L55.5766 60.3058C54.6384 60.0708 54.0684 59.1206 54.3026 58.1841C54.535 57.245 55.4835 56.6725 56.4234 56.9101L63.4234 58.6601C64.3616 58.895 64.9324 59.8452 64.6975 60.7818C64.4984 61.5799 63.7857 62.1079 63.0022 62.1079Z" fill="white"/>
<path d="M48.9939 62.1079C48.2104 62.1079 47.4977 61.5773 47.2986 60.7818C47.0619 59.8452 47.6327 58.8951 48.5727 58.6601L55.5761 56.9101C56.5109 56.6708 57.4628 57.245 57.6969 58.1841C57.9336 59.1206 57.3628 60.0708 56.4229 60.3058L49.4195 62.0558C49.2776 62.0909 49.1341 62.1079 48.9939 62.1079Z" fill="white"/>
<path d="M71.7565 83.1111H40.2422C39.2749 83.1111 38.4922 82.3293 38.4922 81.3611C38.4922 80.3939 39.2749 79.6111 40.2422 79.6111H71.7565C72.7237 79.6111 73.5064 80.3939 73.5064 81.3611C73.5064 82.3293 72.7237 83.1111 71.7565 83.1111Z" fill="white"/>
<path d="M71.7565 76.1257H40.2422C39.2749 76.1257 38.4922 75.343 38.4922 74.3757C38.4922 73.4076 39.2749 72.6257 40.2422 72.6257H71.7565C72.7237 72.6257 73.5064 73.4076 73.5064 74.3757C73.5064 75.343 72.7237 76.1257 71.7565 76.1257Z" fill="white"/>
<path d="M63.0038 90.1145H48.9961C48.0288 90.1145 47.2461 89.3326 47.2461 88.3645C47.2461 87.3972 48.0288 86.6145 48.9961 86.6145H63.0038C63.9711 86.6145 64.7538 87.3972 64.7538 88.3645C64.7538 89.3326 63.9711 90.1145 63.0038 90.1145Z" fill="white"/>
</svg>
