<svg width="25" height="25" viewBox="0 0 25 25" fill="none" xmlns="http://www.w3.org/2000/svg">
<g clip-path="url(#clip0)">
<path d="M19.0191 4.26865C19.0191 3.68213 18.7902 3.12998 18.3753 2.71514L16.3039 0.64375C15.8948 0.234619 15.3141 0 14.7362 0H14.6103V4.39453H19.0191L19.0191 4.26865Z" fill="#E66D53"/>
<path d="M13.3758 15.1141C13.516 14.6885 13.7606 14.2923 14.0796 13.9711L19.0387 9.03203V5.85938H13.8922C13.4874 5.85938 13.1836 5.53179 13.1836 5.12695V0H2.19727C0.985645 0 0 0.985645 0 2.19727V22.8027C0 24.0144 0.985645 25 2.19727 25H16.8219C18.0335 25 19.0387 24.0144 19.0387 22.8027V17.3364L18.2338 18.1217C17.9077 18.445 17.5258 18.6803 17.0952 18.8241L14.7663 19.6016L14.4115 19.6209C13.825 19.6209 13.27 19.3355 12.9252 18.8578C12.5834 18.3821 12.4904 17.7656 12.6763 17.2084L13.3758 15.1141ZM3.66211 13.1836H10.9625C11.3674 13.1836 11.695 13.5112 11.695 13.916C11.695 14.3208 11.3674 14.6484 10.9625 14.6484H3.66211C3.25728 14.6484 2.92969 14.3208 2.92969 13.916C2.92969 13.5112 3.25728 13.1836 3.66211 13.1836ZM2.92969 10.9863C2.92969 10.5815 3.25728 10.2539 3.66211 10.2539H10.9625C11.3674 10.2539 11.695 10.5815 11.695 10.9863C11.695 11.3912 11.3674 11.7188 10.9625 11.7188H3.66211C3.25728 11.7188 2.92969 11.3912 2.92969 10.9863ZM2.92969 16.8457C2.92969 16.4409 3.25728 16.1133 3.66211 16.1133H10.9625C11.3674 16.1133 11.695 16.4409 11.695 16.8457C11.695 17.2505 11.3674 17.5781 10.9625 17.5781H3.66211C3.25728 17.5781 2.92969 17.2505 2.92969 16.8457ZM13.8922 20.5078C14.2971 20.5078 14.6247 20.8354 14.6247 21.2402C14.6247 21.6451 14.2971 21.9727 13.8922 21.9727H9.49771C9.09287 21.9727 8.76528 21.6451 8.76528 21.2402C8.76528 20.8354 9.09287 20.5078 9.49771 20.5078H13.8922ZM3.66211 8.78906C3.25728 8.78906 2.92969 8.46147 2.92969 8.05664C2.92969 7.65181 3.25728 7.32422 3.66211 7.32422H13.8922C14.2971 7.32422 14.6247 7.65181 14.6247 8.05664C14.6247 8.46147 14.2971 8.78906 13.8922 8.78906H3.66211Z" fill="#E66D53"/>
<path d="M14.7029 15.7622L14.0657 17.6739C13.9701 17.9603 14.2427 18.2327 14.529 18.137L16.4396 17.4989L14.7029 15.7622Z" fill="#E66D53"/>
<path d="M20.3914 9.73169L15.5677 14.5554L17.648 16.6357C18.7382 15.5453 20.8596 13.4236 22.4714 11.8118L20.3914 9.73169Z" fill="#E66D53"/>
<path d="M24.5699 7.6311C24.3124 7.37217 23.9333 7.22412 23.5313 7.22412C23.1293 7.22412 22.7502 7.37217 22.4913 7.63184L21.427 8.69614L23.507 10.7761C24.0896 10.1934 24.4924 9.79067 24.5714 9.71172C25.1435 9.13872 25.1434 8.20542 24.5699 7.6311Z" fill="#E66D53"/>
<path d="M24.5708 9.71213C24.5708 9.71213 24.5708 9.71206 24.5709 9.71199C24.5733 9.70948 24.5744 9.70835 24.5764 9.7063C24.5744 9.70842 24.5733 9.70954 24.5708 9.71213Z" fill="#E66D53"/>
<path d="M24.5754 9.70728C24.5775 9.70508 24.58 9.7025 24.5813 9.70117C24.58 9.70255 24.5775 9.70508 24.5754 9.70728Z" fill="#E66D53"/>
<path d="M24.58 9.70109C24.585 9.69604 24.5851 9.69594 24.58 9.70109V9.70109Z" fill="#E66D53"/>
</g>
<defs>
<clipPath id="clip0">
<rect width="25" height="25" fill="white"/>
</clipPath>
</defs>
</svg>
