<svg width="25" height="23" viewBox="0 0 25 23" fill="none" xmlns="http://www.w3.org/2000/svg">
<path d="M20.8658 12.5371C20.8058 12.5068 20.7456 12.4917 20.685 12.4917C20.5546 12.4917 20.4396 12.5418 20.3395 12.6421L19.3773 13.6042C19.2873 13.6945 19.2422 13.8046 19.2422 13.935V17.753C19.2422 18.4146 19.0072 18.9806 18.5358 19.4519C18.0648 19.9229 17.4985 20.1584 16.837 20.1584H4.32951C3.66797 20.1584 3.10167 19.9229 2.63069 19.4519C2.15959 18.9807 1.92418 18.4147 1.92418 17.753V5.24586C1.92418 4.58443 2.15959 4.01819 2.63069 3.54704C3.10167 3.076 3.66797 2.84054 4.32951 2.84054H16.8371C17.0576 2.84054 17.2831 2.8706 17.5135 2.93079C17.5737 2.95069 17.6188 2.96085 17.6485 2.96085C17.779 2.96085 17.8943 2.91088 17.9944 2.81068L18.731 2.07406C18.8512 1.95396 18.8965 1.80853 18.8662 1.6383C18.8361 1.47791 18.7458 1.3626 18.5955 1.29252C18.0546 1.04231 17.468 0.916626 16.8367 0.916626H4.32951C3.1369 0.916626 2.1171 1.34007 1.27022 2.18695C0.423441 3.03393 0 4.05357 0 5.24623V17.7537C0 18.9462 0.423441 19.9659 1.27027 20.8128C2.11715 21.6599 3.13695 22.0833 4.32956 22.0833H16.837C18.0294 22.0833 19.0493 21.6599 19.8962 20.8128C20.7432 19.9659 21.167 18.9462 21.167 17.7537V12.9729C21.1669 12.7626 21.0661 12.6174 20.8658 12.5371Z" fill="black"/>
<path d="M24.6392 3.90821L22.9854 2.25441C22.7449 2.01394 22.4591 1.89368 22.1283 1.89368C21.7979 1.89368 21.5118 2.01394 21.2715 2.25441L11.545 11.9808L7.59154 8.02714C7.35097 7.78651 7.06527 7.66641 6.73465 7.66641C6.40399 7.66641 6.11839 7.78651 5.87776 8.02714L4.22417 9.68073C3.98365 9.92125 3.86328 10.2069 3.86328 10.5378C3.86328 10.8684 3.98365 11.154 4.22417 11.3947L10.6883 17.8588C10.9289 18.0995 11.2146 18.2195 11.5452 18.2195C11.8758 18.2195 12.1615 18.0995 12.4021 17.8588L24.6391 5.62192C24.8794 5.38145 24.9999 5.0957 24.9999 4.76504C24.9999 4.43437 24.8797 4.14867 24.6392 3.90821Z" fill="black"/>
</svg>
