<svg width="50" height="50" viewBox="0 0 50 50" fill="none" xmlns="http://www.w3.org/2000/svg">
<path d="M50 27.8179C50 25.8009 48.3595 24.1597 46.3426 24.1597C45.3661 24.1597 44.4478 24.5405 43.7563 25.2315L40.3226 28.6653V0H8.53705L0 8.53705V50H40.3226V39.0105L48.9289 30.4042C49.6192 29.7139 50 28.7952 50 27.8179ZM30.2396 41.83L32.338 43.9284L29.4008 44.7856L30.2396 41.83ZM33.871 43.1798L32.996 42.3048L44.5096 30.7905L45.3853 31.6662L33.871 43.1798ZM31.8548 41.1645L30.9791 40.2887L42.4943 28.7743L43.37 29.6501L31.8548 41.1645ZM8.06452 2.75328V8.06452H2.75328L8.06452 2.75328ZM38.7097 48.3871H1.6129V9.67742H9.67742V1.6129H38.7097V30.2782L29.1201 39.867L27.0516 47.1506L34.2951 45.038L38.7097 40.6234V48.3871ZM47.7886 29.2638L46.5265 30.5258L43.6346 27.634L44.8967 26.3719C45.283 25.9856 45.7968 25.7726 46.3426 25.7726C47.4692 25.7726 48.3871 26.6905 48.3871 27.8179C48.3871 28.3644 48.1741 28.8783 47.7886 29.2638Z" fill="black"/>
<path d="M16.3385 33.3284L12.8678 37.1468C11.8444 36.1202 10.4307 35.4839 8.87096 35.4839C5.75896 35.4839 3.2258 38.017 3.2258 41.1291C3.2258 44.2411 5.75896 46.7742 8.87096 46.7742C11.983 46.7742 14.5161 44.2411 14.5161 41.1291C14.5161 40.1671 14.2736 39.2614 13.8467 38.4679L17.5324 34.4136L16.3385 33.3284ZM12.9032 41.1291C12.9032 43.3523 11.0942 45.1613 8.87096 45.1613C6.64771 45.1613 4.8387 43.3523 4.8387 41.1291C4.8387 38.9058 6.64771 37.0968 8.87096 37.0968C10.0137 37.0968 11.0418 37.58 11.7766 38.3466L8.74102 41.6862L6.89933 40.4588L6.00467 41.8008L9.00169 43.7992L12.6547 39.7808C12.8056 40.2041 12.9032 40.6534 12.9032 41.1291Z" fill="black"/>
<path d="M12.8678 22.6307C11.8444 21.6041 10.4307 20.9678 8.87096 20.9678C5.75896 20.9678 3.2258 23.5009 3.2258 26.6129C3.2258 29.7249 5.75896 32.2581 8.87096 32.2581C11.983 32.2581 14.5161 29.7249 14.5161 26.6129C14.5161 25.6509 14.2736 24.7453 13.8467 23.9518L17.5324 19.8975L16.3385 18.8123L12.8678 22.6307ZM12.9032 26.6129C12.9032 28.8362 11.0942 30.6452 8.87096 30.6452C6.64771 30.6452 4.8387 28.8362 4.8387 26.6129C4.8387 24.3897 6.64771 22.5807 8.87096 22.5807C10.0137 22.5807 11.0418 23.0638 11.7766 23.8305L8.74102 27.1701L6.89933 25.9427L6.00467 27.2847L9.00169 29.2831L12.6547 25.2647C12.8056 25.688 12.9032 26.1373 12.9032 26.6129Z" fill="black"/>
<path d="M35.4838 25.8065H37.0967V27.4194H35.4838V25.8065Z" fill="black"/>
<path d="M17.742 25.8065H33.8711V27.4194H17.742V25.8065Z" fill="black"/>
<path d="M17.742 22.5807H37.0969V24.1936H17.742V22.5807Z" fill="black"/>
<path d="M17.742 29.0322H37.0969V30.6451H17.742V29.0322Z" fill="black"/>
<path d="M17.742 40.3225H26.613V41.9354H17.742V40.3225Z" fill="black"/>
<path d="M17.742 43.5483H26.613V45.1612H17.742V43.5483Z" fill="black"/>
<path d="M17.742 37.0968H26.613V38.7097H17.742V37.0968Z" fill="black"/>
<path d="M15.3227 17.742H33.0647C35.2879 17.742 37.0969 15.933 37.0969 13.7097V7.25809C37.0969 5.03483 35.2879 3.22583 33.0647 3.22583H15.3227C13.0995 3.22583 11.2905 5.03483 11.2905 7.25809V13.7097C11.2905 15.933 13.0995 17.742 15.3227 17.742ZM12.9034 7.25809C12.9034 5.92437 13.989 4.83873 15.3227 4.83873H33.0647C34.3984 4.83873 35.484 5.92437 35.484 7.25809V13.7097C35.484 15.0434 34.3984 16.1291 33.0647 16.1291H15.3227C13.989 16.1291 12.9034 15.0434 12.9034 13.7097V7.25809Z" fill="black"/>
<path d="M33.8709 8.06445H29.0322V12.9032H33.8709V8.06445ZM32.258 11.2903H30.6451V9.67736H32.258V11.2903Z" fill="black"/>
<path d="M26.6129 8.06445H21.7742V12.9032H26.6129V8.06445ZM25 11.2903H23.3871V9.67736H25V11.2903Z" fill="black"/>
<path d="M19.3549 8.06445H14.5162V12.9032H19.3549V8.06445ZM17.742 11.2903H16.1291V9.67736H17.742V11.2903Z" fill="black"/>
</svg>
